ISO-10303-21;
HEADER;
/* Generated by software containing ST-Developer
 * from STEP Tools, Inc. (www.steptools.com) 
 */

FILE_DESCRIPTION(
/* description */ (''),
/* implementation_level */ '2;1');

FILE_NAME(
/* name */ '',
/* time_stamp */ '2026-08-24T22:17:12+08:00',
/* author */ (''),
/* organization */ (''),
/* preprocessor_version */ 'ST-DEVELOPER v20.1',
/* originating_system */ 'Autodesk Translation Framework v15.8.0.0',
/* authorisation */ '');

FILE_SCHEMA (('AUTOMOTIVE_DESIGN { 1 0 10303 214 3 1 1 }'));
ENDSEC;

DATA;
#10=MECHANICAL_DESIGN_GEOMETRIC_PRESENTATION_REPRESENTATION('',(#13),#2133);
#11=SHAPE_REPRESENTATION_RELATIONSHIP('SRR','None',#2140,#12);
#12=ADVANCED_BREP_SHAPE_REPRESENTATION('',(#14),#2132);
#13=STYLED_ITEM('',(#2149),#14);
#14=MANIFOLD_SOLID_BREP('\X2\5B9E4F53\X0\1',#1245);
#15=FACE_BOUND('',#194,.T.);
#16=FACE_BOUND('',#197,.T.);
#17=FACE_BOUND('',#199,.T.);
#18=FACE_BOUND('',#200,.T.);
#19=FACE_BOUND('',#206,.T.);
#20=FACE_BOUND('',#225,.T.);
#21=FACE_BOUND('',#229,.T.);
#22=CIRCLE('',#1261,1.90000000000001);
#23=CIRCLE('',#1262,1.90000000000001);
#24=CIRCLE('',#1265,1.9);
#25=CIRCLE('',#1266,1.9);
#26=CIRCLE('',#1269,0.200000000000023);
#27=CIRCLE('',#1270,0.200000000000023);
#28=CIRCLE('',#1273,2.29999999999998);
#29=CIRCLE('',#1274,2.29999999999998);
#30=CIRCLE('',#1277,2.30000000000002);
#31=CIRCLE('',#1278,2.30000000000002);
#32=CIRCLE('',#1281,0.200000000000029);
#33=CIRCLE('',#1282,0.200000000000029);
#34=CIRCLE('',#1285,2.6);
#35=CIRCLE('',#1286,2.6);
#36=CIRCLE('',#1288,1.65);
#37=CIRCLE('',#1290,2.6);
#38=CIRCLE('',#1291,2.6);
#39=CIRCLE('',#1293,1.65);
#40=CIRCLE('',#1295,2.75);
#41=CIRCLE('',#1296,2.75);
#42=CIRCLE('',#1297,4.00000000000004);
#43=CIRCLE('',#1298,1.00000000000004);
#44=CIRCLE('',#1299,3.59999999999999);
#45=CIRCLE('',#1300,1.00000000000003);
#46=CIRCLE('',#1301,2.7);
#47=CIRCLE('',#1302,2.7);
#48=CIRCLE('',#1303,1.00000000000003);
#49=CIRCLE('',#1304,3.6);
#50=CIRCLE('',#1305,1.00000000000003);
#51=CIRCLE('',#1306,4.00000000000002);
#52=CIRCLE('',#1307,2.75);
#53=CIRCLE('',#1308,2.75);
#54=CIRCLE('',#1311,1.99999999999245);
#55=CIRCLE('',#1312,1.99999999999245);
#56=CIRCLE('',#1315,2.75);
#57=CIRCLE('',#1317,2.00000000000878);
#58=CIRCLE('',#1318,2.75);
#59=CIRCLE('',#1319,1.99999999999869);
#60=CIRCLE('',#1320,4.00000000000002);
#61=CIRCLE('',#1321,1.00000000000003);
#62=CIRCLE('',#1322,3.6);
#63=CIRCLE('',#1323,3.10000000000002);
#64=CIRCLE('',#1324,3.09999999999993);
#65=CIRCLE('',#1325,3.59999999999999);
#66=CIRCLE('',#1326,1.00000000000004);
#67=CIRCLE('',#1327,4.00000000000004);
#68=CIRCLE('',#1328,2.00000000000762);
#69=CIRCLE('',#1329,2.75);
#70=CIRCLE('',#1333,1.99999999999869);
#71=CIRCLE('',#1336,2.75);
#72=CIRCLE('',#1339,2.75);
#73=CIRCLE('',#1340,2.75);
#74=CIRCLE('',#1342,2.00000000000762);
#75=CIRCLE('',#1346,2.75);
#76=CIRCLE('',#1348,2.75);
#77=CIRCLE('',#1351,2.00000000000878);
#78=CIRCLE('',#1355,1.65);
#79=CIRCLE('',#1359,1.65);
#80=CIRCLE('',#1370,1.00000000000003);
#81=CIRCLE('',#1373,2.7);
#82=CIRCLE('',#1376,2.7);
#83=CIRCLE('',#1379,1.00000000000003);
#84=CIRCLE('',#1382,3.09999999999993);
#85=CIRCLE('',#1386,3.10000000000002);
#86=CYLINDRICAL_SURFACE('',#1260,1.90000000000001);
#87=CYLINDRICAL_SURFACE('',#1264,1.9);
#88=CYLINDRICAL_SURFACE('',#1268,0.200000000000023);
#89=CYLINDRICAL_SURFACE('',#1272,2.29999999999998);
#90=CYLINDRICAL_SURFACE('',#1276,2.30000000000002);
#91=CYLINDRICAL_SURFACE('',#1280,0.200000000000029);
#92=CYLINDRICAL_SURFACE('',#1284,2.6);
#93=CYLINDRICAL_SURFACE('',#1289,2.6);
#94=CYLINDRICAL_SURFACE('',#1310,1.99999999999245);
#95=CYLINDRICAL_SURFACE('',#1332,1.99999999999869);
#96=CYLINDRICAL_SURFACE('',#1338,2.75);
#97=CYLINDRICAL_SURFACE('',#1341,2.00000000000762);
#98=CYLINDRICAL_SURFACE('',#1347,2.75);
#99=CYLINDRICAL_SURFACE('',#1350,2.00000000000878);
#100=CYLINDRICAL_SURFACE('',#1354,1.65);
#101=CYLINDRICAL_SURFACE('',#1358,1.65);
#102=CYLINDRICAL_SURFACE('',#1361,3.6);
#103=CYLINDRICAL_SURFACE('',#1362,3.59999999999999);
#104=CYLINDRICAL_SURFACE('',#1363,1.00000000000004);
#105=CYLINDRICAL_SURFACE('',#1365,4.00000000000004);
#106=CYLINDRICAL_SURFACE('',#1366,4.00000000000002);
#107=CYLINDRICAL_SURFACE('',#1368,1.00000000000003);
#108=CYLINDRICAL_SURFACE('',#1369,1.00000000000003);
#109=CYLINDRICAL_SURFACE('',#1372,2.7);
#110=CYLINDRICAL_SURFACE('',#1375,2.7);
#111=CYLINDRICAL_SURFACE('',#1378,1.00000000000003);
#112=CYLINDRICAL_SURFACE('',#1381,3.09999999999993);
#113=CYLINDRICAL_SURFACE('',#1385,3.10000000000002);
#114=FACE_OUTER_BOUND('',#179,.T.);
#115=FACE_OUTER_BOUND('',#180,.T.);
#116=FACE_OUTER_BOUND('',#181,.T.);
#117=FACE_OUTER_BOUND('',#182,.T.);
#118=FACE_OUTER_BOUND('',#183,.T.);
#119=FACE_OUTER_BOUND('',#184,.T.);
#120=FACE_OUTER_BOUND('',#185,.T.);
#121=FACE_OUTER_BOUND('',#186,.T.);
#122=FACE_OUTER_BOUND('',#187,.T.);
#123=FACE_OUTER_BOUND('',#188,.T.);
#124=FACE_OUTER_BOUND('',#189,.T.);
#125=FACE_OUTER_BOUND('',#190,.T.);
#126=FACE_OUTER_BOUND('',#191,.T.);
#127=FACE_OUTER_BOUND('',#192,.T.);
#128=FACE_OUTER_BOUND('',#193,.T.);
#129=FACE_OUTER_BOUND('',#195,.T.);
#130=FACE_OUTER_BOUND('',#196,.T.);
#131=FACE_OUTER_BOUND('',#198,.T.);
#132=FACE_OUTER_BOUND('',#201,.T.);
#133=FACE_OUTER_BOUND('',#202,.T.);
#134=FACE_OUTER_BOUND('',#203,.T.);
#135=FACE_OUTER_BOUND('',#204,.T.);
#136=FACE_OUTER_BOUND('',#205,.T.);
#137=FACE_OUTER_BOUND('',#207,.T.);
#138=FACE_OUTER_BOUND('',#208,.T.);
#139=FACE_OUTER_BOUND('',#209,.T.);
#140=FACE_OUTER_BOUND('',#210,.T.);
#141=FACE_OUTER_BOUND('',#211,.T.);
#142=FACE_OUTER_BOUND('',#212,.T.);
#143=FACE_OUTER_BOUND('',#213,.T.);
#144=FACE_OUTER_BOUND('',#214,.T.);
#145=FACE_OUTER_BOUND('',#215,.T.);
#146=FACE_OUTER_BOUND('',#216,.T.);
#147=FACE_OUTER_BOUND('',#217,.T.);
#148=FACE_OUTER_BOUND('',#218,.T.);
#149=FACE_OUTER_BOUND('',#219,.T.);
#150=FACE_OUTER_BOUND('',#220,.T.);
#151=FACE_OUTER_BOUND('',#221,.T.);
#152=FACE_OUTER_BOUND('',#222,.T.);
#153=FACE_OUTER_BOUND('',#223,.T.);
#154=FACE_OUTER_BOUND('',#224,.T.);
#155=FACE_OUTER_BOUND('',#226,.T.);
#156=FACE_OUTER_BOUND('',#227,.T.);
#157=FACE_OUTER_BOUND('',#228,.T.);
#158=FACE_OUTER_BOUND('',#230,.T.);
#159=FACE_OUTER_BOUND('',#231,.T.);
#160=FACE_OUTER_BOUND('',#232,.T.);
#161=FACE_OUTER_BOUND('',#233,.T.);
#162=FACE_OUTER_BOUND('',#234,.T.);
#163=FACE_OUTER_BOUND('',#235,.T.);
#164=FACE_OUTER_BOUND('',#236,.T.);
#165=FACE_OUTER_BOUND('',#237,.T.);
#166=FACE_OUTER_BOUND('',#238,.T.);
#167=FACE_OUTER_BOUND('',#239,.T.);
#168=FACE_OUTER_BOUND('',#240,.T.);
#169=FACE_OUTER_BOUND('',#241,.T.);
#170=FACE_OUTER_BOUND('',#242,.T.);
#171=FACE_OUTER_BOUND('',#243,.T.);
#172=FACE_OUTER_BOUND('',#244,.T.);
#173=FACE_OUTER_BOUND('',#245,.T.);
#174=FACE_OUTER_BOUND('',#246,.T.);
#175=FACE_OUTER_BOUND('',#247,.T.);
#176=FACE_OUTER_BOUND('',#248,.T.);
#177=FACE_OUTER_BOUND('',#249,.T.);
#178=FACE_OUTER_BOUND('',#250,.T.);
#179=EDGE_LOOP('',(#783,#784,#785,#786));
#180=EDGE_LOOP('',(#787,#788,#789,#790));
#181=EDGE_LOOP('',(#791,#792,#793,#794));
#182=EDGE_LOOP('',(#795,#796,#797,#798));
#183=EDGE_LOOP('',(#799,#800,#801,#802));
#184=EDGE_LOOP('',(#803,#804,#805,#806));
#185=EDGE_LOOP('',(#807,#808,#809,#810));
#186=EDGE_LOOP('',(#811,#812,#813,#814));
#187=EDGE_LOOP('',(#815,#816,#817,#818));
#188=EDGE_LOOP('',(#819,#820,#821,#822));
#189=EDGE_LOOP('',(#823,#824,#825,#826));
#190=EDGE_LOOP('',(#827,#828,#829,#830));
#191=EDGE_LOOP('',(#831,#832,#833,#834,#835,#836,#837,#838,#839,#840,#841,
#842));
#192=EDGE_LOOP('',(#843,#844,#845,#846));
#193=EDGE_LOOP('',(#847));
#194=EDGE_LOOP('',(#848));
#195=EDGE_LOOP('',(#849,#850,#851,#852));
#196=EDGE_LOOP('',(#853));
#197=EDGE_LOOP('',(#854));
#198=EDGE_LOOP('',(#855,#856,#857,#858,#859,#860,#861,#862,#863,#864,#865,
#866,#867,#868,#869,#870,#871,#872,#873,#874,#875,#876,#877,#878,#879,#880,
#881,#882));
#199=EDGE_LOOP('',(#883));
#200=EDGE_LOOP('',(#884));
#201=EDGE_LOOP('',(#885,#886,#887,#888));
#202=EDGE_LOOP('',(#889,#890,#891,#892));
#203=EDGE_LOOP('',(#893,#894,#895,#896,#897,#898));
#204=EDGE_LOOP('',(#899,#900,#901,#902));
#205=EDGE_LOOP('',(#903,#904,#905,#906,#907,#908,#909,#910,#911,#912,#913,
#914,#915,#916,#917,#918,#919,#920,#921,#922,#923,#924,#925,#926,#927,#928,
#929,#930,#931,#932));
#206=EDGE_LOOP('',(#933,#934,#935,#936,#937,#938,#939,#940,#941,#942,#943,
#944));
#207=EDGE_LOOP('',(#945,#946,#947,#948));
#208=EDGE_LOOP('',(#949,#950,#951,#952,#953,#954));
#209=EDGE_LOOP('',(#955,#956,#957,#958));
#210=EDGE_LOOP('',(#959,#960,#961,#962));
#211=EDGE_LOOP('',(#963,#964,#965,#966));
#212=EDGE_LOOP('',(#967,#968,#969,#970));
#213=EDGE_LOOP('',(#971,#972,#973,#974,#975,#976,#977,#978,#979,#980,#981,
#982));
#214=EDGE_LOOP('',(#983,#984,#985,#986));
#215=EDGE_LOOP('',(#987,#988,#989,#990,#991,#992));
#216=EDGE_LOOP('',(#993,#994,#995,#996));
#217=EDGE_LOOP('',(#997,#998,#999,#1000));
#218=EDGE_LOOP('',(#1001,#1002,#1003,#1004,#1005,#1006,#1007,#1008,#1009,
#1010,#1011,#1012));
#219=EDGE_LOOP('',(#1013,#1014,#1015,#1016));
#220=EDGE_LOOP('',(#1017,#1018,#1019,#1020));
#221=EDGE_LOOP('',(#1021,#1022,#1023,#1024,#1025,#1026));
#222=EDGE_LOOP('',(#1027,#1028,#1029,#1030));
#223=EDGE_LOOP('',(#1031,#1032,#1033,#1034));
#224=EDGE_LOOP('',(#1035));
#225=EDGE_LOOP('',(#1036));
#226=EDGE_LOOP('',(#1037,#1038,#1039,#1040));
#227=EDGE_LOOP('',(#1041,#1042,#1043,#1044));
#228=EDGE_LOOP('',(#1045));
#229=EDGE_LOOP('',(#1046));
#230=EDGE_LOOP('',(#1047,#1048,#1049,#1050));
#231=EDGE_LOOP('',(#1051,#1052,#1053,#1054));
#232=EDGE_LOOP('',(#1055,#1056,#1057,#1058));
#233=EDGE_LOOP('',(#1059,#1060,#1061,#1062));
#234=EDGE_LOOP('',(#1063,#1064,#1065,#1066));
#235=EDGE_LOOP('',(#1067,#1068,#1069,#1070));
#236=EDGE_LOOP('',(#1071,#1072,#1073,#1074));
#237=EDGE_LOOP('',(#1075,#1076,#1077,#1078));
#238=EDGE_LOOP('',(#1079,#1080,#1081,#1082));
#239=EDGE_LOOP('',(#1083,#1084,#1085,#1086));
#240=EDGE_LOOP('',(#1087,#1088,#1089,#1090));
#241=EDGE_LOOP('',(#1091,#1092,#1093,#1094));
#242=EDGE_LOOP('',(#1095,#1096,#1097,#1098));
#243=EDGE_LOOP('',(#1099,#1100,#1101,#1102));
#244=EDGE_LOOP('',(#1103,#1104,#1105,#1106));
#245=EDGE_LOOP('',(#1107,#1108,#1109,#1110));
#246=EDGE_LOOP('',(#1111,#1112,#1113,#1114));
#247=EDGE_LOOP('',(#1115,#1116,#1117,#1118,#1119,#1120));
#248=EDGE_LOOP('',(#1121,#1122,#1123,#1124,#1125,#1126));
#249=EDGE_LOOP('',(#1127,#1128,#1129,#1130));
#250=EDGE_LOOP('',(#1131,#1132,#1133,#1134,#1135,#1136,#1137,#1138,#1139,
#1140,#1141,#1142));
#251=LINE('',#1768,#367);
#252=LINE('',#1770,#368);
#253=LINE('',#1772,#369);
#254=LINE('',#1773,#370);
#255=LINE('',#1779,#371);
#256=LINE('',#1782,#372);
#257=LINE('',#1784,#373);
#258=LINE('',#1785,#374);
#259=LINE('',#1791,#375);
#260=LINE('',#1794,#376);
#261=LINE('',#1796,#377);
#262=LINE('',#1797,#378);
#263=LINE('',#1803,#379);
#264=LINE('',#1806,#380);
#265=LINE('',#1808,#381);
#266=LINE('',#1809,#382);
#267=LINE('',#1815,#383);
#268=LINE('',#1818,#384);
#269=LINE('',#1820,#385);
#270=LINE('',#1821,#386);
#271=LINE('',#1827,#387);
#272=LINE('',#1830,#388);
#273=LINE('',#1832,#389);
#274=LINE('',#1833,#390);
#275=LINE('',#1842,#391);
#276=LINE('',#1851,#392);
#277=LINE('',#1863,#393);
#278=LINE('',#1865,#394);
#279=LINE('',#1869,#395);
#280=LINE('',#1875,#396);
#281=LINE('',#1879,#397);
#282=LINE('',#1883,#398);
#283=LINE('',#1887,#399);
#284=LINE('',#1891,#400);
#285=LINE('',#1897,#401);
#286=LINE('',#1901,#402);
#287=LINE('',#1903,#403);
#288=LINE('',#1909,#404);
#289=LINE('',#1911,#405);
#290=LINE('',#1912,#406);
#291=LINE('',#1916,#407);
#292=LINE('',#1918,#408);
#293=LINE('',#1920,#409);
#294=LINE('',#1921,#410);
#295=LINE('',#1927,#411);
#296=LINE('',#1930,#412);
#297=LINE('',#1932,#413);
#298=LINE('',#1933,#414);
#299=LINE('',#1934,#415);
#300=LINE('',#1939,#416);
#301=LINE('',#1941,#417);
#302=LINE('',#1945,#418);
#303=LINE('',#1949,#419);
#304=LINE('',#1953,#420);
#305=LINE('',#1955,#421);
#306=LINE('',#1959,#422);
#307=LINE('',#1965,#423);
#308=LINE('',#1969,#424);
#309=LINE('',#1973,#425);
#310=LINE('',#1979,#426);
#311=LINE('',#1983,#427);
#312=LINE('',#1985,#428);
#313=LINE('',#1989,#429);
#314=LINE('',#1992,#430);
#315=LINE('',#1994,#431);
#316=LINE('',#1996,#432);
#317=LINE('',#1998,#433);
#318=LINE('',#1999,#434);
#319=LINE('',#2002,#435);
#320=LINE('',#2006,#436);
#321=LINE('',#2007,#437);
#322=LINE('',#2011,#438);
#323=LINE('',#2015,#439);
#324=LINE('',#2017,#440);
#325=LINE('',#2020,#441);
#326=LINE('',#2023,#442);
#327=LINE('',#2026,#443);
#328=LINE('',#2028,#444);
#329=LINE('',#2030,#445);
#330=LINE('',#2031,#446);
#331=LINE('',#2034,#447);
#332=LINE('',#2035,#448);
#333=LINE('',#2041,#449);
#334=LINE('',#2044,#450);
#335=LINE('',#2045,#451);
#336=LINE('',#2048,#452);
#337=LINE('',#2051,#453);
#338=LINE('',#2056,#454);
#339=LINE('',#2059,#455);
#340=LINE('',#2063,#456);
#341=LINE('',#2066,#457);
#342=LINE('',#2067,#458);
#343=LINE('',#2069,#459);
#344=LINE('',#2070,#460);
#345=LINE('',#2072,#461);
#346=LINE('',#2074,#462);
#347=LINE('',#2077,#463);
#348=LINE('',#2079,#464);
#349=LINE('',#2083,#465);
#350=LINE('',#2086,#466);
#351=LINE('',#2089,#467);
#352=LINE('',#2090,#468);
#353=LINE('',#2093,#469);
#354=LINE('',#2097,#470);
#355=LINE('',#2098,#471);
#356=LINE('',#2101,#472);
#357=LINE('',#2105,#473);
#358=LINE('',#2106,#474);
#359=LINE('',#2109,#475);
#360=LINE('',#2113,#476);
#361=LINE('',#2115,#477);
#362=LINE('',#2116,#478);
#363=LINE('',#2120,#479);
#364=LINE('',#2122,#480);
#365=LINE('',#2125,#481);
#366=LINE('',#2126,#482);
#367=VECTOR('',#1392,10.);
#368=VECTOR('',#1393,10.);
#369=VECTOR('',#1394,10.);
#370=VECTOR('',#1395,10.);
#371=VECTOR('',#1402,10.);
#372=VECTOR('',#1405,10.);
#373=VECTOR('',#1406,10.);
#374=VECTOR('',#1407,10.);
#375=VECTOR('',#1414,10.);
#376=VECTOR('',#1417,10.);
#377=VECTOR('',#1418,10.);
#378=VECTOR('',#1419,10.);
#379=VECTOR('',#1426,10.);
#380=VECTOR('',#1429,10.);
#381=VECTOR('',#1430,10.);
#382=VECTOR('',#1431,10.);
#383=VECTOR('',#1438,10.);
#384=VECTOR('',#1441,10.);
#385=VECTOR('',#1442,10.);
#386=VECTOR('',#1443,10.);
#387=VECTOR('',#1450,10.);
#388=VECTOR('',#1453,10.);
#389=VECTOR('',#1454,10.);
#390=VECTOR('',#1455,10.);
#391=VECTOR('',#1468,2.6);
#392=VECTOR('',#1479,2.6);
#393=VECTOR('',#1492,10.);
#394=VECTOR('',#1493,10.);
#395=VECTOR('',#1496,10.);
#396=VECTOR('',#1501,10.);
#397=VECTOR('',#1504,10.);
#398=VECTOR('',#1507,10.);
#399=VECTOR('',#1510,10.);
#400=VECTOR('',#1513,10.);
#401=VECTOR('',#1518,10.);
#402=VECTOR('',#1521,10.);
#403=VECTOR('',#1522,10.);
#404=VECTOR('',#1527,10.);
#405=VECTOR('',#1528,10.);
#406=VECTOR('',#1529,10.);
#407=VECTOR('',#1532,10.);
#408=VECTOR('',#1533,10.);
#409=VECTOR('',#1534,10.);
#410=VECTOR('',#1535,10.);
#411=VECTOR('',#1542,10.);
#412=VECTOR('',#1545,10.);
#413=VECTOR('',#1546,10.);
#414=VECTOR('',#1547,10.);
#415=VECTOR('',#1548,10.);
#416=VECTOR('',#1555,10.);
#417=VECTOR('',#1556,10.);
#418=VECTOR('',#1559,10.);
#419=VECTOR('',#1562,10.);
#420=VECTOR('',#1565,10.);
#421=VECTOR('',#1566,10.);
#422=VECTOR('',#1569,10.);
#423=VECTOR('',#1574,10.);
#424=VECTOR('',#1577,10.);
#425=VECTOR('',#1580,10.);
#426=VECTOR('',#1585,10.);
#427=VECTOR('',#1588,10.);
#428=VECTOR('',#1589,10.);
#429=VECTOR('',#1592,10.);
#430=VECTOR('',#1597,10.);
#431=VECTOR('',#1600,10.);
#432=VECTOR('',#1601,10.);
#433=VECTOR('',#1602,10.);
#434=VECTOR('',#1603,10.);
#435=VECTOR('',#1606,10.);
#436=VECTOR('',#1611,10.);
#437=VECTOR('',#1612,10.);
#438=VECTOR('',#1619,10.);
#439=VECTOR('',#1624,2.75);
#440=VECTOR('',#1625,10.);
#441=VECTOR('',#1628,10.);
#442=VECTOR('',#1631,10.);
#443=VECTOR('',#1634,10.);
#444=VECTOR('',#1637,10.);
#445=VECTOR('',#1638,10.);
#446=VECTOR('',#1639,10.);
#447=VECTOR('',#1642,10.);
#448=VECTOR('',#1643,10.);
#449=VECTOR('',#1652,2.75);
#450=VECTOR('',#1655,10.);
#451=VECTOR('',#1656,10.);
#452=VECTOR('',#1659,10.);
#453=VECTOR('',#1664,10.);
#454=VECTOR('',#1671,1.65);
#455=VECTOR('',#1676,10.);
#456=VECTOR('',#1681,1.65);
#457=VECTOR('',#1686,10.);
#458=VECTOR('',#1687,10.);
#459=VECTOR('',#1690,10.);
#460=VECTOR('',#1691,10.);
#461=VECTOR('',#1694,10.);
#462=VECTOR('',#1697,10.);
#463=VECTOR('',#1702,10.);
#464=VECTOR('',#1705,10.);
#465=VECTOR('',#1710,10.);
#466=VECTOR('',#1713,10.);
#467=VECTOR('',#1716,10.);
#468=VECTOR('',#1717,10.);
#469=VECTOR('',#1720,10.);
#470=VECTOR('',#1725,10.);
#471=VECTOR('',#1726,10.);
#472=VECTOR('',#1729,10.);
#473=VECTOR('',#1734,10.);
#474=VECTOR('',#1735,10.);
#475=VECTOR('',#1738,10.);
#476=VECTOR('',#1743,10.);
#477=VECTOR('',#1744,10.);
#478=VECTOR('',#1745,10.);
#479=VECTOR('',#1750,10.);
#480=VECTOR('',#1753,10.);
#481=VECTOR('',#1756,10.);
#482=VECTOR('',#1757,10.);
#483=VERTEX_POINT('',#1766);
#484=VERTEX_POINT('',#1767);
#485=VERTEX_POINT('',#1769);
#486=VERTEX_POINT('',#1771);
#487=VERTEX_POINT('',#1775);
#488=VERTEX_POINT('',#1777);
#489=VERTEX_POINT('',#1781);
#490=VERTEX_POINT('',#1783);
#491=VERTEX_POINT('',#1787);
#492=VERTEX_POINT('',#1789);
#493=VERTEX_POINT('',#1793);
#494=VERTEX_POINT('',#1795);
#495=VERTEX_POINT('',#1799);
#496=VERTEX_POINT('',#1801);
#497=VERTEX_POINT('',#1805);
#498=VERTEX_POINT('',#1807);
#499=VERTEX_POINT('',#1811);
#500=VERTEX_POINT('',#1813);
#501=VERTEX_POINT('',#1817);
#502=VERTEX_POINT('',#1819);
#503=VERTEX_POINT('',#1823);
#504=VERTEX_POINT('',#1825);
#505=VERTEX_POINT('',#1829);
#506=VERTEX_POINT('',#1831);
#507=VERTEX_POINT('',#1839);
#508=VERTEX_POINT('',#1841);
#509=VERTEX_POINT('',#1845);
#510=VERTEX_POINT('',#1848);
#511=VERTEX_POINT('',#1850);
#512=VERTEX_POINT('',#1854);
#513=VERTEX_POINT('',#1857);
#514=VERTEX_POINT('',#1858);
#515=VERTEX_POINT('',#1860);
#516=VERTEX_POINT('',#1862);
#517=VERTEX_POINT('',#1864);
#518=VERTEX_POINT('',#1866);
#519=VERTEX_POINT('',#1868);
#520=VERTEX_POINT('',#1870);
#521=VERTEX_POINT('',#1872);
#522=VERTEX_POINT('',#1874);
#523=VERTEX_POINT('',#1876);
#524=VERTEX_POINT('',#1878);
#525=VERTEX_POINT('',#1880);
#526=VERTEX_POINT('',#1882);
#527=VERTEX_POINT('',#1884);
#528=VERTEX_POINT('',#1886);
#529=VERTEX_POINT('',#1888);
#530=VERTEX_POINT('',#1890);
#531=VERTEX_POINT('',#1892);
#532=VERTEX_POINT('',#1894);
#533=VERTEX_POINT('',#1896);
#534=VERTEX_POINT('',#1898);
#535=VERTEX_POINT('',#1900);
#536=VERTEX_POINT('',#1902);
#537=VERTEX_POINT('',#1904);
#538=VERTEX_POINT('',#1906);
#539=VERTEX_POINT('',#1908);
#540=VERTEX_POINT('',#1910);
#541=VERTEX_POINT('',#1914);
#542=VERTEX_POINT('',#1915);
#543=VERTEX_POINT('',#1917);
#544=VERTEX_POINT('',#1919);
#545=VERTEX_POINT('',#1923);
#546=VERTEX_POINT('',#1925);
#547=VERTEX_POINT('',#1929);
#548=VERTEX_POINT('',#1931);
#549=VERTEX_POINT('',#1938);
#550=VERTEX_POINT('',#1940);
#551=VERTEX_POINT('',#1942);
#552=VERTEX_POINT('',#1944);
#553=VERTEX_POINT('',#1946);
#554=VERTEX_POINT('',#1948);
#555=VERTEX_POINT('',#1950);
#556=VERTEX_POINT('',#1952);
#557=VERTEX_POINT('',#1954);
#558=VERTEX_POINT('',#1956);
#559=VERTEX_POINT('',#1958);
#560=VERTEX_POINT('',#1960);
#561=VERTEX_POINT('',#1962);
#562=VERTEX_POINT('',#1964);
#563=VERTEX_POINT('',#1966);
#564=VERTEX_POINT('',#1968);
#565=VERTEX_POINT('',#1970);
#566=VERTEX_POINT('',#1972);
#567=VERTEX_POINT('',#1974);
#568=VERTEX_POINT('',#1976);
#569=VERTEX_POINT('',#1978);
#570=VERTEX_POINT('',#1980);
#571=VERTEX_POINT('',#1982);
#572=VERTEX_POINT('',#1984);
#573=VERTEX_POINT('',#1986);
#574=VERTEX_POINT('',#1988);
#575=VERTEX_POINT('',#1995);
#576=VERTEX_POINT('',#1997);
#577=VERTEX_POINT('',#2001);
#578=VERTEX_POINT('',#2005);
#579=VERTEX_POINT('',#2013);
#580=VERTEX_POINT('',#2016);
#581=VERTEX_POINT('',#2018);
#582=VERTEX_POINT('',#2022);
#583=VERTEX_POINT('',#2024);
#584=VERTEX_POINT('',#2029);
#585=VERTEX_POINT('',#2033);
#586=VERTEX_POINT('',#2039);
#587=VERTEX_POINT('',#2043);
#588=VERTEX_POINT('',#2047);
#589=VERTEX_POINT('',#2054);
#590=VERTEX_POINT('',#2061);
#591=VERTEX_POINT('',#2082);
#592=VERTEX_POINT('',#2084);
#593=VERTEX_POINT('',#2088);
#594=VERTEX_POINT('',#2092);
#595=VERTEX_POINT('',#2096);
#596=VERTEX_POINT('',#2100);
#597=VERTEX_POINT('',#2104);
#598=VERTEX_POINT('',#2108);
#599=VERTEX_POINT('',#2112);
#600=VERTEX_POINT('',#2114);
#601=VERTEX_POINT('',#2118);
#602=VERTEX_POINT('',#2124);
#603=EDGE_CURVE('',#483,#484,#251,.T.);
#604=EDGE_CURVE('',#485,#483,#252,.T.);
#605=EDGE_CURVE('',#485,#486,#253,.T.);
#606=EDGE_CURVE('',#486,#484,#254,.T.);
#607=EDGE_CURVE('',#484,#487,#22,.T.);
#608=EDGE_CURVE('',#486,#488,#23,.T.);
#609=EDGE_CURVE('',#488,#487,#255,.T.);
#610=EDGE_CURVE('',#487,#489,#256,.T.);
#611=EDGE_CURVE('',#488,#490,#257,.T.);
#612=EDGE_CURVE('',#490,#489,#258,.T.);
#613=EDGE_CURVE('',#489,#491,#24,.T.);
#614=EDGE_CURVE('',#490,#492,#25,.T.);
#615=EDGE_CURVE('',#492,#491,#259,.T.);
#616=EDGE_CURVE('',#491,#493,#260,.T.);
#617=EDGE_CURVE('',#492,#494,#261,.T.);
#618=EDGE_CURVE('',#494,#493,#262,.T.);
#619=EDGE_CURVE('',#493,#495,#26,.T.);
#620=EDGE_CURVE('',#494,#496,#27,.T.);
#621=EDGE_CURVE('',#496,#495,#263,.T.);
#622=EDGE_CURVE('',#495,#497,#264,.T.);
#623=EDGE_CURVE('',#496,#498,#265,.T.);
#624=EDGE_CURVE('',#498,#497,#266,.T.);
#625=EDGE_CURVE('',#497,#499,#28,.T.);
#626=EDGE_CURVE('',#498,#500,#29,.T.);
#627=EDGE_CURVE('',#500,#499,#267,.T.);
#628=EDGE_CURVE('',#499,#501,#268,.T.);
#629=EDGE_CURVE('',#500,#502,#269,.T.);
#630=EDGE_CURVE('',#502,#501,#270,.T.);
#631=EDGE_CURVE('',#501,#503,#30,.T.);
#632=EDGE_CURVE('',#502,#504,#31,.T.);
#633=EDGE_CURVE('',#504,#503,#271,.T.);
#634=EDGE_CURVE('',#503,#505,#272,.T.);
#635=EDGE_CURVE('',#504,#506,#273,.T.);
#636=EDGE_CURVE('',#506,#505,#274,.T.);
#637=EDGE_CURVE('',#505,#483,#32,.T.);
#638=EDGE_CURVE('',#506,#485,#33,.T.);
#639=EDGE_CURVE('',#507,#507,#34,.T.);
#640=EDGE_CURVE('',#507,#508,#275,.T.);
#641=EDGE_CURVE('',#508,#508,#35,.F.);
#642=EDGE_CURVE('',#509,#509,#36,.F.);
#643=EDGE_CURVE('',#510,#510,#37,.T.);
#644=EDGE_CURVE('',#510,#511,#276,.T.);
#645=EDGE_CURVE('',#511,#511,#38,.F.);
#646=EDGE_CURVE('',#512,#512,#39,.F.);
#647=EDGE_CURVE('',#513,#514,#40,.T.);
#648=EDGE_CURVE('',#514,#515,#41,.T.);
#649=EDGE_CURVE('',#515,#516,#277,.T.);
#650=EDGE_CURVE('',#516,#517,#278,.T.);
#651=EDGE_CURVE('',#517,#518,#42,.T.);
#652=EDGE_CURVE('',#518,#519,#279,.T.);
#653=EDGE_CURVE('',#519,#520,#43,.T.);
#654=EDGE_CURVE('',#520,#521,#44,.T.);
#655=EDGE_CURVE('',#521,#522,#280,.T.);
#656=EDGE_CURVE('',#523,#522,#45,.T.);
#657=EDGE_CURVE('',#524,#523,#281,.T.);
#658=EDGE_CURVE('',#525,#524,#46,.T.);
#659=EDGE_CURVE('',#526,#525,#282,.T.);
#660=EDGE_CURVE('',#527,#526,#47,.T.);
#661=EDGE_CURVE('',#528,#527,#283,.T.);
#662=EDGE_CURVE('',#529,#528,#48,.T.);
#663=EDGE_CURVE('',#529,#530,#284,.T.);
#664=EDGE_CURVE('',#530,#531,#49,.T.);
#665=EDGE_CURVE('',#531,#532,#50,.T.);
#666=EDGE_CURVE('',#532,#533,#285,.T.);
#667=EDGE_CURVE('',#533,#534,#51,.T.);
#668=EDGE_CURVE('',#534,#535,#286,.T.);
#669=EDGE_CURVE('',#536,#535,#287,.T.);
#670=EDGE_CURVE('',#536,#537,#52,.T.);
#671=EDGE_CURVE('',#537,#538,#53,.T.);
#672=EDGE_CURVE('',#538,#539,#288,.T.);
#673=EDGE_CURVE('',#539,#540,#289,.T.);
#674=EDGE_CURVE('',#513,#540,#290,.T.);
#675=EDGE_CURVE('',#541,#542,#291,.T.);
#676=EDGE_CURVE('',#541,#543,#292,.T.);
#677=EDGE_CURVE('',#543,#544,#293,.F.);
#678=EDGE_CURVE('',#542,#544,#294,.T.);
#679=EDGE_CURVE('',#542,#545,#54,.T.);
#680=EDGE_CURVE('',#544,#546,#55,.F.);
#681=EDGE_CURVE('',#545,#546,#295,.T.);
#682=EDGE_CURVE('',#545,#547,#296,.T.);
#683=EDGE_CURVE('',#546,#548,#297,.F.);
#684=EDGE_CURVE('',#513,#548,#298,.T.);
#685=EDGE_CURVE('',#547,#540,#299,.T.);
#686=EDGE_CURVE('',#548,#543,#56,.T.);
#687=EDGE_CURVE('',#549,#547,#300,.T.);
#688=EDGE_CURVE('',#549,#550,#301,.T.);
#689=EDGE_CURVE('',#550,#551,#57,.T.);
#690=EDGE_CURVE('',#551,#552,#302,.T.);
#691=EDGE_CURVE('',#552,#553,#58,.T.);
#692=EDGE_CURVE('',#553,#554,#303,.T.);
#693=EDGE_CURVE('',#554,#555,#59,.T.);
#694=EDGE_CURVE('',#555,#556,#304,.T.);
#695=EDGE_CURVE('',#557,#556,#305,.T.);
#696=EDGE_CURVE('',#558,#557,#60,.T.);
#697=EDGE_CURVE('',#559,#558,#306,.T.);
#698=EDGE_CURVE('',#560,#559,#61,.T.);
#699=EDGE_CURVE('',#560,#561,#62,.T.);
#700=EDGE_CURVE('',#561,#562,#307,.T.);
#701=EDGE_CURVE('',#563,#562,#63,.T.);
#702=EDGE_CURVE('',#563,#564,#308,.T.);
#703=EDGE_CURVE('',#565,#564,#64,.T.);
#704=EDGE_CURVE('',#565,#566,#309,.T.);
#705=EDGE_CURVE('',#566,#567,#65,.T.);
#706=EDGE_CURVE('',#568,#567,#66,.T.);
#707=EDGE_CURVE('',#569,#568,#310,.T.);
#708=EDGE_CURVE('',#570,#569,#67,.T.);
#709=EDGE_CURVE('',#571,#570,#311,.T.);
#710=EDGE_CURVE('',#571,#572,#312,.T.);
#711=EDGE_CURVE('',#572,#573,#68,.T.);
#712=EDGE_CURVE('',#573,#574,#313,.T.);
#713=EDGE_CURVE('',#574,#541,#69,.T.);
#714=EDGE_CURVE('',#539,#549,#314,.T.);
#715=EDGE_CURVE('',#556,#535,#315,.T.);
#716=EDGE_CURVE('',#555,#575,#316,.T.);
#717=EDGE_CURVE('',#575,#576,#317,.F.);
#718=EDGE_CURVE('',#536,#576,#318,.T.);
#719=EDGE_CURVE('',#554,#577,#319,.T.);
#720=EDGE_CURVE('',#577,#575,#70,.F.);
#721=EDGE_CURVE('',#553,#578,#320,.T.);
#722=EDGE_CURVE('',#578,#577,#321,.F.);
#723=EDGE_CURVE('',#576,#578,#71,.T.);
#724=EDGE_CURVE('',#557,#534,#322,.T.);
#725=EDGE_CURVE('',#579,#579,#72,.T.);
#726=EDGE_CURVE('',#579,#537,#323,.T.);
#727=EDGE_CURVE('',#552,#580,#324,.T.);
#728=EDGE_CURVE('',#580,#581,#73,.T.);
#729=EDGE_CURVE('',#538,#581,#325,.T.);
#730=EDGE_CURVE('',#572,#582,#326,.T.);
#731=EDGE_CURVE('',#582,#583,#74,.F.);
#732=EDGE_CURVE('',#573,#583,#327,.T.);
#733=EDGE_CURVE('',#516,#571,#328,.T.);
#734=EDGE_CURVE('',#515,#584,#329,.T.);
#735=EDGE_CURVE('',#584,#582,#330,.F.);
#736=EDGE_CURVE('',#583,#585,#331,.F.);
#737=EDGE_CURVE('',#574,#585,#332,.T.);
#738=EDGE_CURVE('',#585,#584,#75,.T.);
#739=EDGE_CURVE('',#586,#586,#76,.T.);
#740=EDGE_CURVE('',#586,#514,#333,.T.);
#741=EDGE_CURVE('',#551,#587,#334,.T.);
#742=EDGE_CURVE('',#587,#580,#335,.F.);
#743=EDGE_CURVE('',#550,#588,#336,.T.);
#744=EDGE_CURVE('',#588,#587,#77,.F.);
#745=EDGE_CURVE('',#581,#588,#337,.F.);
#746=EDGE_CURVE('',#589,#589,#78,.T.);
#747=EDGE_CURVE('',#589,#512,#338,.T.);
#748=EDGE_CURVE('',#570,#517,#339,.T.);
#749=EDGE_CURVE('',#590,#590,#79,.T.);
#750=EDGE_CURVE('',#590,#509,#340,.T.);
#751=EDGE_CURVE('',#560,#531,#341,.T.);
#752=EDGE_CURVE('',#561,#530,#342,.T.);
#753=EDGE_CURVE('',#566,#521,#343,.T.);
#754=EDGE_CURVE('',#567,#520,#344,.T.);
#755=EDGE_CURVE('',#568,#519,#345,.T.);
#756=EDGE_CURVE('',#569,#518,#346,.T.);
#757=EDGE_CURVE('',#558,#533,#347,.T.);
#758=EDGE_CURVE('',#559,#532,#348,.T.);
#759=EDGE_CURVE('',#528,#591,#349,.T.);
#760=EDGE_CURVE('',#592,#591,#80,.T.);
#761=EDGE_CURVE('',#529,#592,#350,.T.);
#762=EDGE_CURVE('',#527,#593,#351,.T.);
#763=EDGE_CURVE('',#591,#593,#352,.T.);
#764=EDGE_CURVE('',#526,#594,#353,.T.);
#765=EDGE_CURVE('',#593,#594,#81,.T.);
#766=EDGE_CURVE('',#525,#595,#354,.T.);
#767=EDGE_CURVE('',#594,#595,#355,.T.);
#768=EDGE_CURVE('',#524,#596,#356,.T.);
#769=EDGE_CURVE('',#595,#596,#82,.T.);
#770=EDGE_CURVE('',#523,#597,#357,.T.);
#771=EDGE_CURVE('',#596,#597,#358,.T.);
#772=EDGE_CURVE('',#522,#598,#359,.T.);
#773=EDGE_CURVE('',#597,#598,#83,.T.);
#774=EDGE_CURVE('',#563,#599,#360,.T.);
#775=EDGE_CURVE('',#600,#599,#361,.T.);
#776=EDGE_CURVE('',#564,#600,#362,.T.);
#777=EDGE_CURVE('',#601,#600,#84,.T.);
#778=EDGE_CURVE('',#565,#601,#363,.T.);
#779=EDGE_CURVE('',#598,#601,#364,.T.);
#780=EDGE_CURVE('',#602,#592,#365,.T.);
#781=EDGE_CURVE('',#562,#602,#366,.T.);
#782=EDGE_CURVE('',#599,#602,#85,.T.);
#783=ORIENTED_EDGE('',*,*,#603,.F.);
#784=ORIENTED_EDGE('',*,*,#604,.F.);
#785=ORIENTED_EDGE('',*,*,#605,.T.);
#786=ORIENTED_EDGE('',*,*,#606,.T.);
#787=ORIENTED_EDGE('',*,*,#607,.F.);
#788=ORIENTED_EDGE('',*,*,#606,.F.);
#789=ORIENTED_EDGE('',*,*,#608,.T.);
#790=ORIENTED_EDGE('',*,*,#609,.T.);
#791=ORIENTED_EDGE('',*,*,#610,.F.);
#792=ORIENTED_EDGE('',*,*,#609,.F.);
#793=ORIENTED_EDGE('',*,*,#611,.T.);
#794=ORIENTED_EDGE('',*,*,#612,.T.);
#795=ORIENTED_EDGE('',*,*,#613,.F.);
#796=ORIENTED_EDGE('',*,*,#612,.F.);
#797=ORIENTED_EDGE('',*,*,#614,.T.);
#798=ORIENTED_EDGE('',*,*,#615,.T.);
#799=ORIENTED_EDGE('',*,*,#616,.F.);
#800=ORIENTED_EDGE('',*,*,#615,.F.);
#801=ORIENTED_EDGE('',*,*,#617,.T.);
#802=ORIENTED_EDGE('',*,*,#618,.T.);
#803=ORIENTED_EDGE('',*,*,#619,.F.);
#804=ORIENTED_EDGE('',*,*,#618,.F.);
#805=ORIENTED_EDGE('',*,*,#620,.T.);
#806=ORIENTED_EDGE('',*,*,#621,.T.);
#807=ORIENTED_EDGE('',*,*,#622,.F.);
#808=ORIENTED_EDGE('',*,*,#621,.F.);
#809=ORIENTED_EDGE('',*,*,#623,.T.);
#810=ORIENTED_EDGE('',*,*,#624,.T.);
#811=ORIENTED_EDGE('',*,*,#625,.F.);
#812=ORIENTED_EDGE('',*,*,#624,.F.);
#813=ORIENTED_EDGE('',*,*,#626,.T.);
#814=ORIENTED_EDGE('',*,*,#627,.T.);
#815=ORIENTED_EDGE('',*,*,#628,.F.);
#816=ORIENTED_EDGE('',*,*,#627,.F.);
#817=ORIENTED_EDGE('',*,*,#629,.T.);
#818=ORIENTED_EDGE('',*,*,#630,.T.);
#819=ORIENTED_EDGE('',*,*,#631,.F.);
#820=ORIENTED_EDGE('',*,*,#630,.F.);
#821=ORIENTED_EDGE('',*,*,#632,.T.);
#822=ORIENTED_EDGE('',*,*,#633,.T.);
#823=ORIENTED_EDGE('',*,*,#634,.F.);
#824=ORIENTED_EDGE('',*,*,#633,.F.);
#825=ORIENTED_EDGE('',*,*,#635,.T.);
#826=ORIENTED_EDGE('',*,*,#636,.T.);
#827=ORIENTED_EDGE('',*,*,#637,.F.);
#828=ORIENTED_EDGE('',*,*,#636,.F.);
#829=ORIENTED_EDGE('',*,*,#638,.T.);
#830=ORIENTED_EDGE('',*,*,#604,.T.);
#831=ORIENTED_EDGE('',*,*,#620,.F.);
#832=ORIENTED_EDGE('',*,*,#617,.F.);
#833=ORIENTED_EDGE('',*,*,#614,.F.);
#834=ORIENTED_EDGE('',*,*,#611,.F.);
#835=ORIENTED_EDGE('',*,*,#608,.F.);
#836=ORIENTED_EDGE('',*,*,#605,.F.);
#837=ORIENTED_EDGE('',*,*,#638,.F.);
#838=ORIENTED_EDGE('',*,*,#635,.F.);
#839=ORIENTED_EDGE('',*,*,#632,.F.);
#840=ORIENTED_EDGE('',*,*,#629,.F.);
#841=ORIENTED_EDGE('',*,*,#626,.F.);
#842=ORIENTED_EDGE('',*,*,#623,.F.);
#843=ORIENTED_EDGE('',*,*,#639,.F.);
#844=ORIENTED_EDGE('',*,*,#640,.T.);
#845=ORIENTED_EDGE('',*,*,#641,.F.);
#846=ORIENTED_EDGE('',*,*,#640,.F.);
#847=ORIENTED_EDGE('',*,*,#641,.T.);
#848=ORIENTED_EDGE('',*,*,#642,.T.);
#849=ORIENTED_EDGE('',*,*,#643,.F.);
#850=ORIENTED_EDGE('',*,*,#644,.T.);
#851=ORIENTED_EDGE('',*,*,#645,.F.);
#852=ORIENTED_EDGE('',*,*,#644,.F.);
#853=ORIENTED_EDGE('',*,*,#645,.T.);
#854=ORIENTED_EDGE('',*,*,#646,.T.);
#855=ORIENTED_EDGE('',*,*,#647,.T.);
#856=ORIENTED_EDGE('',*,*,#648,.T.);
#857=ORIENTED_EDGE('',*,*,#649,.T.);
#858=ORIENTED_EDGE('',*,*,#650,.T.);
#859=ORIENTED_EDGE('',*,*,#651,.T.);
#860=ORIENTED_EDGE('',*,*,#652,.T.);
#861=ORIENTED_EDGE('',*,*,#653,.T.);
#862=ORIENTED_EDGE('',*,*,#654,.T.);
#863=ORIENTED_EDGE('',*,*,#655,.T.);
#864=ORIENTED_EDGE('',*,*,#656,.F.);
#865=ORIENTED_EDGE('',*,*,#657,.F.);
#866=ORIENTED_EDGE('',*,*,#658,.F.);
#867=ORIENTED_EDGE('',*,*,#659,.F.);
#868=ORIENTED_EDGE('',*,*,#660,.F.);
#869=ORIENTED_EDGE('',*,*,#661,.F.);
#870=ORIENTED_EDGE('',*,*,#662,.F.);
#871=ORIENTED_EDGE('',*,*,#663,.T.);
#872=ORIENTED_EDGE('',*,*,#664,.T.);
#873=ORIENTED_EDGE('',*,*,#665,.T.);
#874=ORIENTED_EDGE('',*,*,#666,.T.);
#875=ORIENTED_EDGE('',*,*,#667,.T.);
#876=ORIENTED_EDGE('',*,*,#668,.T.);
#877=ORIENTED_EDGE('',*,*,#669,.F.);
#878=ORIENTED_EDGE('',*,*,#670,.T.);
#879=ORIENTED_EDGE('',*,*,#671,.T.);
#880=ORIENTED_EDGE('',*,*,#672,.T.);
#881=ORIENTED_EDGE('',*,*,#673,.T.);
#882=ORIENTED_EDGE('',*,*,#674,.F.);
#883=ORIENTED_EDGE('',*,*,#639,.T.);
#884=ORIENTED_EDGE('',*,*,#643,.T.);
#885=ORIENTED_EDGE('',*,*,#675,.F.);
#886=ORIENTED_EDGE('',*,*,#676,.T.);
#887=ORIENTED_EDGE('',*,*,#677,.T.);
#888=ORIENTED_EDGE('',*,*,#678,.F.);
#889=ORIENTED_EDGE('',*,*,#679,.F.);
#890=ORIENTED_EDGE('',*,*,#678,.T.);
#891=ORIENTED_EDGE('',*,*,#680,.T.);
#892=ORIENTED_EDGE('',*,*,#681,.F.);
#893=ORIENTED_EDGE('',*,*,#682,.F.);
#894=ORIENTED_EDGE('',*,*,#681,.T.);
#895=ORIENTED_EDGE('',*,*,#683,.T.);
#896=ORIENTED_EDGE('',*,*,#684,.F.);
#897=ORIENTED_EDGE('',*,*,#674,.T.);
#898=ORIENTED_EDGE('',*,*,#685,.F.);
#899=ORIENTED_EDGE('',*,*,#680,.F.);
#900=ORIENTED_EDGE('',*,*,#677,.F.);
#901=ORIENTED_EDGE('',*,*,#686,.F.);
#902=ORIENTED_EDGE('',*,*,#683,.F.);
#903=ORIENTED_EDGE('',*,*,#675,.T.);
#904=ORIENTED_EDGE('',*,*,#679,.T.);
#905=ORIENTED_EDGE('',*,*,#682,.T.);
#906=ORIENTED_EDGE('',*,*,#687,.F.);
#907=ORIENTED_EDGE('',*,*,#688,.T.);
#908=ORIENTED_EDGE('',*,*,#689,.T.);
#909=ORIENTED_EDGE('',*,*,#690,.T.);
#910=ORIENTED_EDGE('',*,*,#691,.T.);
#911=ORIENTED_EDGE('',*,*,#692,.T.);
#912=ORIENTED_EDGE('',*,*,#693,.T.);
#913=ORIENTED_EDGE('',*,*,#694,.T.);
#914=ORIENTED_EDGE('',*,*,#695,.F.);
#915=ORIENTED_EDGE('',*,*,#696,.F.);
#916=ORIENTED_EDGE('',*,*,#697,.F.);
#917=ORIENTED_EDGE('',*,*,#698,.F.);
#918=ORIENTED_EDGE('',*,*,#699,.T.);
#919=ORIENTED_EDGE('',*,*,#700,.T.);
#920=ORIENTED_EDGE('',*,*,#701,.F.);
#921=ORIENTED_EDGE('',*,*,#702,.T.);
#922=ORIENTED_EDGE('',*,*,#703,.F.);
#923=ORIENTED_EDGE('',*,*,#704,.T.);
#924=ORIENTED_EDGE('',*,*,#705,.T.);
#925=ORIENTED_EDGE('',*,*,#706,.F.);
#926=ORIENTED_EDGE('',*,*,#707,.F.);
#927=ORIENTED_EDGE('',*,*,#708,.F.);
#928=ORIENTED_EDGE('',*,*,#709,.F.);
#929=ORIENTED_EDGE('',*,*,#710,.T.);
#930=ORIENTED_EDGE('',*,*,#711,.T.);
#931=ORIENTED_EDGE('',*,*,#712,.T.);
#932=ORIENTED_EDGE('',*,*,#713,.T.);
#933=ORIENTED_EDGE('',*,*,#603,.T.);
#934=ORIENTED_EDGE('',*,*,#607,.T.);
#935=ORIENTED_EDGE('',*,*,#610,.T.);
#936=ORIENTED_EDGE('',*,*,#613,.T.);
#937=ORIENTED_EDGE('',*,*,#616,.T.);
#938=ORIENTED_EDGE('',*,*,#619,.T.);
#939=ORIENTED_EDGE('',*,*,#622,.T.);
#940=ORIENTED_EDGE('',*,*,#625,.T.);
#941=ORIENTED_EDGE('',*,*,#628,.T.);
#942=ORIENTED_EDGE('',*,*,#631,.T.);
#943=ORIENTED_EDGE('',*,*,#634,.T.);
#944=ORIENTED_EDGE('',*,*,#637,.T.);
#945=ORIENTED_EDGE('',*,*,#685,.T.);
#946=ORIENTED_EDGE('',*,*,#673,.F.);
#947=ORIENTED_EDGE('',*,*,#714,.T.);
#948=ORIENTED_EDGE('',*,*,#687,.T.);
#949=ORIENTED_EDGE('',*,*,#715,.F.);
#950=ORIENTED_EDGE('',*,*,#694,.F.);
#951=ORIENTED_EDGE('',*,*,#716,.T.);
#952=ORIENTED_EDGE('',*,*,#717,.T.);
#953=ORIENTED_EDGE('',*,*,#718,.F.);
#954=ORIENTED_EDGE('',*,*,#669,.T.);
#955=ORIENTED_EDGE('',*,*,#693,.F.);
#956=ORIENTED_EDGE('',*,*,#719,.T.);
#957=ORIENTED_EDGE('',*,*,#720,.T.);
#958=ORIENTED_EDGE('',*,*,#716,.F.);
#959=ORIENTED_EDGE('',*,*,#692,.F.);
#960=ORIENTED_EDGE('',*,*,#721,.T.);
#961=ORIENTED_EDGE('',*,*,#722,.T.);
#962=ORIENTED_EDGE('',*,*,#719,.F.);
#963=ORIENTED_EDGE('',*,*,#720,.F.);
#964=ORIENTED_EDGE('',*,*,#722,.F.);
#965=ORIENTED_EDGE('',*,*,#723,.F.);
#966=ORIENTED_EDGE('',*,*,#717,.F.);
#967=ORIENTED_EDGE('',*,*,#715,.T.);
#968=ORIENTED_EDGE('',*,*,#668,.F.);
#969=ORIENTED_EDGE('',*,*,#724,.F.);
#970=ORIENTED_EDGE('',*,*,#695,.T.);
#971=ORIENTED_EDGE('',*,*,#725,.F.);
#972=ORIENTED_EDGE('',*,*,#726,.T.);
#973=ORIENTED_EDGE('',*,*,#670,.F.);
#974=ORIENTED_EDGE('',*,*,#718,.T.);
#975=ORIENTED_EDGE('',*,*,#723,.T.);
#976=ORIENTED_EDGE('',*,*,#721,.F.);
#977=ORIENTED_EDGE('',*,*,#691,.F.);
#978=ORIENTED_EDGE('',*,*,#727,.T.);
#979=ORIENTED_EDGE('',*,*,#728,.T.);
#980=ORIENTED_EDGE('',*,*,#729,.F.);
#981=ORIENTED_EDGE('',*,*,#671,.F.);
#982=ORIENTED_EDGE('',*,*,#726,.F.);
#983=ORIENTED_EDGE('',*,*,#711,.F.);
#984=ORIENTED_EDGE('',*,*,#730,.T.);
#985=ORIENTED_EDGE('',*,*,#731,.T.);
#986=ORIENTED_EDGE('',*,*,#732,.F.);
#987=ORIENTED_EDGE('',*,*,#710,.F.);
#988=ORIENTED_EDGE('',*,*,#733,.F.);
#989=ORIENTED_EDGE('',*,*,#649,.F.);
#990=ORIENTED_EDGE('',*,*,#734,.T.);
#991=ORIENTED_EDGE('',*,*,#735,.T.);
#992=ORIENTED_EDGE('',*,*,#730,.F.);
#993=ORIENTED_EDGE('',*,*,#712,.F.);
#994=ORIENTED_EDGE('',*,*,#732,.T.);
#995=ORIENTED_EDGE('',*,*,#736,.T.);
#996=ORIENTED_EDGE('',*,*,#737,.F.);
#997=ORIENTED_EDGE('',*,*,#731,.F.);
#998=ORIENTED_EDGE('',*,*,#735,.F.);
#999=ORIENTED_EDGE('',*,*,#738,.F.);
#1000=ORIENTED_EDGE('',*,*,#736,.F.);
#1001=ORIENTED_EDGE('',*,*,#739,.F.);
#1002=ORIENTED_EDGE('',*,*,#740,.T.);
#1003=ORIENTED_EDGE('',*,*,#647,.F.);
#1004=ORIENTED_EDGE('',*,*,#684,.T.);
#1005=ORIENTED_EDGE('',*,*,#686,.T.);
#1006=ORIENTED_EDGE('',*,*,#676,.F.);
#1007=ORIENTED_EDGE('',*,*,#713,.F.);
#1008=ORIENTED_EDGE('',*,*,#737,.T.);
#1009=ORIENTED_EDGE('',*,*,#738,.T.);
#1010=ORIENTED_EDGE('',*,*,#734,.F.);
#1011=ORIENTED_EDGE('',*,*,#648,.F.);
#1012=ORIENTED_EDGE('',*,*,#740,.F.);
#1013=ORIENTED_EDGE('',*,*,#690,.F.);
#1014=ORIENTED_EDGE('',*,*,#741,.T.);
#1015=ORIENTED_EDGE('',*,*,#742,.T.);
#1016=ORIENTED_EDGE('',*,*,#727,.F.);
#1017=ORIENTED_EDGE('',*,*,#689,.F.);
#1018=ORIENTED_EDGE('',*,*,#743,.T.);
#1019=ORIENTED_EDGE('',*,*,#744,.T.);
#1020=ORIENTED_EDGE('',*,*,#741,.F.);
#1021=ORIENTED_EDGE('',*,*,#688,.F.);
#1022=ORIENTED_EDGE('',*,*,#714,.F.);
#1023=ORIENTED_EDGE('',*,*,#672,.F.);
#1024=ORIENTED_EDGE('',*,*,#729,.T.);
#1025=ORIENTED_EDGE('',*,*,#745,.T.);
#1026=ORIENTED_EDGE('',*,*,#743,.F.);
#1027=ORIENTED_EDGE('',*,*,#744,.F.);
#1028=ORIENTED_EDGE('',*,*,#745,.F.);
#1029=ORIENTED_EDGE('',*,*,#728,.F.);
#1030=ORIENTED_EDGE('',*,*,#742,.F.);
#1031=ORIENTED_EDGE('',*,*,#746,.F.);
#1032=ORIENTED_EDGE('',*,*,#747,.T.);
#1033=ORIENTED_EDGE('',*,*,#646,.F.);
#1034=ORIENTED_EDGE('',*,*,#747,.F.);
#1035=ORIENTED_EDGE('',*,*,#739,.T.);
#1036=ORIENTED_EDGE('',*,*,#746,.T.);
#1037=ORIENTED_EDGE('',*,*,#733,.T.);
#1038=ORIENTED_EDGE('',*,*,#709,.T.);
#1039=ORIENTED_EDGE('',*,*,#748,.T.);
#1040=ORIENTED_EDGE('',*,*,#650,.F.);
#1041=ORIENTED_EDGE('',*,*,#749,.F.);
#1042=ORIENTED_EDGE('',*,*,#750,.T.);
#1043=ORIENTED_EDGE('',*,*,#642,.F.);
#1044=ORIENTED_EDGE('',*,*,#750,.F.);
#1045=ORIENTED_EDGE('',*,*,#725,.T.);
#1046=ORIENTED_EDGE('',*,*,#749,.T.);
#1047=ORIENTED_EDGE('',*,*,#699,.F.);
#1048=ORIENTED_EDGE('',*,*,#751,.T.);
#1049=ORIENTED_EDGE('',*,*,#664,.F.);
#1050=ORIENTED_EDGE('',*,*,#752,.F.);
#1051=ORIENTED_EDGE('',*,*,#705,.F.);
#1052=ORIENTED_EDGE('',*,*,#753,.T.);
#1053=ORIENTED_EDGE('',*,*,#654,.F.);
#1054=ORIENTED_EDGE('',*,*,#754,.F.);
#1055=ORIENTED_EDGE('',*,*,#706,.T.);
#1056=ORIENTED_EDGE('',*,*,#754,.T.);
#1057=ORIENTED_EDGE('',*,*,#653,.F.);
#1058=ORIENTED_EDGE('',*,*,#755,.F.);
#1059=ORIENTED_EDGE('',*,*,#707,.T.);
#1060=ORIENTED_EDGE('',*,*,#755,.T.);
#1061=ORIENTED_EDGE('',*,*,#652,.F.);
#1062=ORIENTED_EDGE('',*,*,#756,.F.);
#1063=ORIENTED_EDGE('',*,*,#708,.T.);
#1064=ORIENTED_EDGE('',*,*,#756,.T.);
#1065=ORIENTED_EDGE('',*,*,#651,.F.);
#1066=ORIENTED_EDGE('',*,*,#748,.F.);
#1067=ORIENTED_EDGE('',*,*,#696,.T.);
#1068=ORIENTED_EDGE('',*,*,#724,.T.);
#1069=ORIENTED_EDGE('',*,*,#667,.F.);
#1070=ORIENTED_EDGE('',*,*,#757,.F.);
#1071=ORIENTED_EDGE('',*,*,#697,.T.);
#1072=ORIENTED_EDGE('',*,*,#757,.T.);
#1073=ORIENTED_EDGE('',*,*,#666,.F.);
#1074=ORIENTED_EDGE('',*,*,#758,.F.);
#1075=ORIENTED_EDGE('',*,*,#698,.T.);
#1076=ORIENTED_EDGE('',*,*,#758,.T.);
#1077=ORIENTED_EDGE('',*,*,#665,.F.);
#1078=ORIENTED_EDGE('',*,*,#751,.F.);
#1079=ORIENTED_EDGE('',*,*,#662,.T.);
#1080=ORIENTED_EDGE('',*,*,#759,.T.);
#1081=ORIENTED_EDGE('',*,*,#760,.F.);
#1082=ORIENTED_EDGE('',*,*,#761,.F.);
#1083=ORIENTED_EDGE('',*,*,#661,.T.);
#1084=ORIENTED_EDGE('',*,*,#762,.T.);
#1085=ORIENTED_EDGE('',*,*,#763,.F.);
#1086=ORIENTED_EDGE('',*,*,#759,.F.);
#1087=ORIENTED_EDGE('',*,*,#660,.T.);
#1088=ORIENTED_EDGE('',*,*,#764,.T.);
#1089=ORIENTED_EDGE('',*,*,#765,.F.);
#1090=ORIENTED_EDGE('',*,*,#762,.F.);
#1091=ORIENTED_EDGE('',*,*,#659,.T.);
#1092=ORIENTED_EDGE('',*,*,#766,.T.);
#1093=ORIENTED_EDGE('',*,*,#767,.F.);
#1094=ORIENTED_EDGE('',*,*,#764,.F.);
#1095=ORIENTED_EDGE('',*,*,#658,.T.);
#1096=ORIENTED_EDGE('',*,*,#768,.T.);
#1097=ORIENTED_EDGE('',*,*,#769,.F.);
#1098=ORIENTED_EDGE('',*,*,#766,.F.);
#1099=ORIENTED_EDGE('',*,*,#657,.T.);
#1100=ORIENTED_EDGE('',*,*,#770,.T.);
#1101=ORIENTED_EDGE('',*,*,#771,.F.);
#1102=ORIENTED_EDGE('',*,*,#768,.F.);
#1103=ORIENTED_EDGE('',*,*,#656,.T.);
#1104=ORIENTED_EDGE('',*,*,#772,.T.);
#1105=ORIENTED_EDGE('',*,*,#773,.F.);
#1106=ORIENTED_EDGE('',*,*,#770,.F.);
#1107=ORIENTED_EDGE('',*,*,#702,.F.);
#1108=ORIENTED_EDGE('',*,*,#774,.T.);
#1109=ORIENTED_EDGE('',*,*,#775,.F.);
#1110=ORIENTED_EDGE('',*,*,#776,.F.);
#1111=ORIENTED_EDGE('',*,*,#703,.T.);
#1112=ORIENTED_EDGE('',*,*,#776,.T.);
#1113=ORIENTED_EDGE('',*,*,#777,.F.);
#1114=ORIENTED_EDGE('',*,*,#778,.F.);
#1115=ORIENTED_EDGE('',*,*,#704,.F.);
#1116=ORIENTED_EDGE('',*,*,#778,.T.);
#1117=ORIENTED_EDGE('',*,*,#779,.F.);
#1118=ORIENTED_EDGE('',*,*,#772,.F.);
#1119=ORIENTED_EDGE('',*,*,#655,.F.);
#1120=ORIENTED_EDGE('',*,*,#753,.F.);
#1121=ORIENTED_EDGE('',*,*,#700,.F.);
#1122=ORIENTED_EDGE('',*,*,#752,.T.);
#1123=ORIENTED_EDGE('',*,*,#663,.F.);
#1124=ORIENTED_EDGE('',*,*,#761,.T.);
#1125=ORIENTED_EDGE('',*,*,#780,.F.);
#1126=ORIENTED_EDGE('',*,*,#781,.F.);
#1127=ORIENTED_EDGE('',*,*,#701,.T.);
#1128=ORIENTED_EDGE('',*,*,#781,.T.);
#1129=ORIENTED_EDGE('',*,*,#782,.F.);
#1130=ORIENTED_EDGE('',*,*,#774,.F.);
#1131=ORIENTED_EDGE('',*,*,#782,.T.);
#1132=ORIENTED_EDGE('',*,*,#780,.T.);
#1133=ORIENTED_EDGE('',*,*,#760,.T.);
#1134=ORIENTED_EDGE('',*,*,#763,.T.);
#1135=ORIENTED_EDGE('',*,*,#765,.T.);
#1136=ORIENTED_EDGE('',*,*,#767,.T.);
#1137=ORIENTED_EDGE('',*,*,#769,.T.);
#1138=ORIENTED_EDGE('',*,*,#771,.T.);
#1139=ORIENTED_EDGE('',*,*,#773,.T.);
#1140=ORIENTED_EDGE('',*,*,#779,.T.);
#1141=ORIENTED_EDGE('',*,*,#777,.T.);
#1142=ORIENTED_EDGE('',*,*,#775,.T.);
#1143=PLANE('',#1259);
#1144=PLANE('',#1263);
#1145=PLANE('',#1267);
#1146=PLANE('',#1271);
#1147=PLANE('',#1275);
#1148=PLANE('',#1279);
#1149=PLANE('',#1283);
#1150=PLANE('',#1287);
#1151=PLANE('',#1292);
#1152=PLANE('',#1294);
#1153=PLANE('',#1309);
#1154=PLANE('',#1313);
#1155=PLANE('',#1314);
#1156=PLANE('',#1316);
#1157=PLANE('',#1330);
#1158=PLANE('',#1331);
#1159=PLANE('',#1334);
#1160=PLANE('',#1335);
#1161=PLANE('',#1337);
#1162=PLANE('',#1343);
#1163=PLANE('',#1344);
#1164=PLANE('',#1345);
#1165=PLANE('',#1349);
#1166=PLANE('',#1352);
#1167=PLANE('',#1353);
#1168=PLANE('',#1356);
#1169=PLANE('',#1357);
#1170=PLANE('',#1360);
#1171=PLANE('',#1364);
#1172=PLANE('',#1367);
#1173=PLANE('',#1371);
#1174=PLANE('',#1374);
#1175=PLANE('',#1377);
#1176=PLANE('',#1380);
#1177=PLANE('',#1383);
#1178=PLANE('',#1384);
#1179=PLANE('',#1387);
#1180=ADVANCED_FACE('',(#114),#1143,.F.);
#1181=ADVANCED_FACE('',(#115),#86,.F.);
#1182=ADVANCED_FACE('',(#116),#1144,.F.);
#1183=ADVANCED_FACE('',(#117),#87,.F.);
#1184=ADVANCED_FACE('',(#118),#1145,.F.);
#1185=ADVANCED_FACE('',(#119),#88,.F.);
#1186=ADVANCED_FACE('',(#120),#1146,.F.);
#1187=ADVANCED_FACE('',(#121),#89,.F.);
#1188=ADVANCED_FACE('',(#122),#1147,.F.);
#1189=ADVANCED_FACE('',(#123),#90,.F.);
#1190=ADVANCED_FACE('',(#124),#1148,.F.);
#1191=ADVANCED_FACE('',(#125),#91,.F.);
#1192=ADVANCED_FACE('',(#126),#1149,.F.);
#1193=ADVANCED_FACE('',(#127),#92,.F.);
#1194=ADVANCED_FACE('',(#128,#15),#1150,.F.);
#1195=ADVANCED_FACE('',(#129),#93,.F.);
#1196=ADVANCED_FACE('',(#130,#16),#1151,.F.);
#1197=ADVANCED_FACE('',(#131,#17,#18),#1152,.T.);
#1198=ADVANCED_FACE('',(#132),#1153,.T.);
#1199=ADVANCED_FACE('',(#133),#94,.T.);
#1200=ADVANCED_FACE('',(#134),#1154,.T.);
#1201=ADVANCED_FACE('',(#135),#1155,.T.);
#1202=ADVANCED_FACE('',(#136,#19),#1156,.F.);
#1203=ADVANCED_FACE('',(#137),#1157,.T.);
#1204=ADVANCED_FACE('',(#138),#1158,.T.);
#1205=ADVANCED_FACE('',(#139),#95,.T.);
#1206=ADVANCED_FACE('',(#140),#1159,.T.);
#1207=ADVANCED_FACE('',(#141),#1160,.T.);
#1208=ADVANCED_FACE('',(#142),#1161,.T.);
#1209=ADVANCED_FACE('',(#143),#96,.T.);
#1210=ADVANCED_FACE('',(#144),#97,.T.);
#1211=ADVANCED_FACE('',(#145),#1162,.T.);
#1212=ADVANCED_FACE('',(#146),#1163,.T.);
#1213=ADVANCED_FACE('',(#147),#1164,.T.);
#1214=ADVANCED_FACE('',(#148),#98,.T.);
#1215=ADVANCED_FACE('',(#149),#1165,.T.);
#1216=ADVANCED_FACE('',(#150),#99,.T.);
#1217=ADVANCED_FACE('',(#151),#1166,.T.);
#1218=ADVANCED_FACE('',(#152),#1167,.T.);
#1219=ADVANCED_FACE('',(#153),#100,.F.);
#1220=ADVANCED_FACE('',(#154,#20),#1168,.F.);
#1221=ADVANCED_FACE('',(#155),#1169,.T.);
#1222=ADVANCED_FACE('',(#156),#101,.F.);
#1223=ADVANCED_FACE('',(#157,#21),#1170,.F.);
#1224=ADVANCED_FACE('',(#158),#102,.F.);
#1225=ADVANCED_FACE('',(#159),#103,.F.);
#1226=ADVANCED_FACE('',(#160),#104,.T.);
#1227=ADVANCED_FACE('',(#161),#1171,.T.);
#1228=ADVANCED_FACE('',(#162),#105,.T.);
#1229=ADVANCED_FACE('',(#163),#106,.T.);
#1230=ADVANCED_FACE('',(#164),#1172,.T.);
#1231=ADVANCED_FACE('',(#165),#107,.T.);
#1232=ADVANCED_FACE('',(#166),#108,.T.);
#1233=ADVANCED_FACE('',(#167),#1173,.T.);
#1234=ADVANCED_FACE('',(#168),#109,.T.);
#1235=ADVANCED_FACE('',(#169),#1174,.T.);
#1236=ADVANCED_FACE('',(#170),#110,.T.);
#1237=ADVANCED_FACE('',(#171),#1175,.T.);
#1238=ADVANCED_FACE('',(#172),#111,.T.);
#1239=ADVANCED_FACE('',(#173),#1176,.T.);
#1240=ADVANCED_FACE('',(#174),#112,.T.);
#1241=ADVANCED_FACE('',(#175),#1177,.T.);
#1242=ADVANCED_FACE('',(#176),#1178,.T.);
#1243=ADVANCED_FACE('',(#177),#113,.T.);
#1244=ADVANCED_FACE('',(#178),#1179,.T.);
#1245=CLOSED_SHELL('',(#1180,#1181,#1182,#1183,#1184,#1185,#1186,#1187,
#1188,#1189,#1190,#1191,#1192,#1193,#1194,#1195,#1196,#1197,#1198,#1199,
#1200,#1201,#1202,#1203,#1204,#1205,#1206,#1207,#1208,#1209,#1210,#1211,
#1212,#1213,#1214,#1215,#1216,#1217,#1218,#1219,#1220,#1221,#1222,#1223,
#1224,#1225,#1226,#1227,#1228,#1229,#1230,#1231,#1232,#1233,#1234,#1235,
#1236,#1237,#1238,#1239,#1240,#1241,#1242,#1243,#1244));
#1246=DERIVED_UNIT_ELEMENT(#1248,1.);
#1247=DERIVED_UNIT_ELEMENT(#2135,-3.);
#1248=(
MASS_UNIT()
NAMED_UNIT(*)
SI_UNIT(.KILO.,.GRAM.)
);
#1249=DERIVED_UNIT((#1246,#1247));
#1250=MEASURE_REPRESENTATION_ITEM('density measure',
POSITIVE_RATIO_MEASURE(1060.),#1249);
#1251=PROPERTY_DEFINITION_REPRESENTATION(#1256,#1253);
#1252=PROPERTY_DEFINITION_REPRESENTATION(#1257,#1254);
#1253=REPRESENTATION('material name',(#1255),#2132);
#1254=REPRESENTATION('density',(#1250),#2132);
#1255=DESCRIPTIVE_REPRESENTATION_ITEM('ABS \X2\58516599\X0\',
'ABS \X2\58516599\X0\');
#1256=PROPERTY_DEFINITION('material property','material name',#2142);
#1257=PROPERTY_DEFINITION('material property','density of part',#2142);
#1258=AXIS2_PLACEMENT_3D('',#1764,#1388,#1389);
#1259=AXIS2_PLACEMENT_3D('',#1765,#1390,#1391);
#1260=AXIS2_PLACEMENT_3D('',#1774,#1396,#1397);
#1261=AXIS2_PLACEMENT_3D('',#1776,#1398,#1399);
#1262=AXIS2_PLACEMENT_3D('',#1778,#1400,#1401);
#1263=AXIS2_PLACEMENT_3D('',#1780,#1403,#1404);
#1264=AXIS2_PLACEMENT_3D('',#1786,#1408,#1409);
#1265=AXIS2_PLACEMENT_3D('',#1788,#1410,#1411);
#1266=AXIS2_PLACEMENT_3D('',#1790,#1412,#1413);
#1267=AXIS2_PLACEMENT_3D('',#1792,#1415,#1416);
#1268=AXIS2_PLACEMENT_3D('',#1798,#1420,#1421);
#1269=AXIS2_PLACEMENT_3D('',#1800,#1422,#1423);
#1270=AXIS2_PLACEMENT_3D('',#1802,#1424,#1425);
#1271=AXIS2_PLACEMENT_3D('',#1804,#1427,#1428);
#1272=AXIS2_PLACEMENT_3D('',#1810,#1432,#1433);
#1273=AXIS2_PLACEMENT_3D('',#1812,#1434,#1435);
#1274=AXIS2_PLACEMENT_3D('',#1814,#1436,#1437);
#1275=AXIS2_PLACEMENT_3D('',#1816,#1439,#1440);
#1276=AXIS2_PLACEMENT_3D('',#1822,#1444,#1445);
#1277=AXIS2_PLACEMENT_3D('',#1824,#1446,#1447);
#1278=AXIS2_PLACEMENT_3D('',#1826,#1448,#1449);
#1279=AXIS2_PLACEMENT_3D('',#1828,#1451,#1452);
#1280=AXIS2_PLACEMENT_3D('',#1834,#1456,#1457);
#1281=AXIS2_PLACEMENT_3D('',#1835,#1458,#1459);
#1282=AXIS2_PLACEMENT_3D('',#1836,#1460,#1461);
#1283=AXIS2_PLACEMENT_3D('',#1837,#1462,#1463);
#1284=AXIS2_PLACEMENT_3D('',#1838,#1464,#1465);
#1285=AXIS2_PLACEMENT_3D('',#1840,#1466,#1467);
#1286=AXIS2_PLACEMENT_3D('',#1843,#1469,#1470);
#1287=AXIS2_PLACEMENT_3D('',#1844,#1471,#1472);
#1288=AXIS2_PLACEMENT_3D('',#1846,#1473,#1474);
#1289=AXIS2_PLACEMENT_3D('',#1847,#1475,#1476);
#1290=AXIS2_PLACEMENT_3D('',#1849,#1477,#1478);
#1291=AXIS2_PLACEMENT_3D('',#1852,#1480,#1481);
#1292=AXIS2_PLACEMENT_3D('',#1853,#1482,#1483);
#1293=AXIS2_PLACEMENT_3D('',#1855,#1484,#1485);
#1294=AXIS2_PLACEMENT_3D('',#1856,#1486,#1487);
#1295=AXIS2_PLACEMENT_3D('',#1859,#1488,#1489);
#1296=AXIS2_PLACEMENT_3D('',#1861,#1490,#1491);
#1297=AXIS2_PLACEMENT_3D('',#1867,#1494,#1495);
#1298=AXIS2_PLACEMENT_3D('',#1871,#1497,#1498);
#1299=AXIS2_PLACEMENT_3D('',#1873,#1499,#1500);
#1300=AXIS2_PLACEMENT_3D('',#1877,#1502,#1503);
#1301=AXIS2_PLACEMENT_3D('',#1881,#1505,#1506);
#1302=AXIS2_PLACEMENT_3D('',#1885,#1508,#1509);
#1303=AXIS2_PLACEMENT_3D('',#1889,#1511,#1512);
#1304=AXIS2_PLACEMENT_3D('',#1893,#1514,#1515);
#1305=AXIS2_PLACEMENT_3D('',#1895,#1516,#1517);
#1306=AXIS2_PLACEMENT_3D('',#1899,#1519,#1520);
#1307=AXIS2_PLACEMENT_3D('',#1905,#1523,#1524);
#1308=AXIS2_PLACEMENT_3D('',#1907,#1525,#1526);
#1309=AXIS2_PLACEMENT_3D('',#1913,#1530,#1531);
#1310=AXIS2_PLACEMENT_3D('',#1922,#1536,#1537);
#1311=AXIS2_PLACEMENT_3D('',#1924,#1538,#1539);
#1312=AXIS2_PLACEMENT_3D('',#1926,#1540,#1541);
#1313=AXIS2_PLACEMENT_3D('',#1928,#1543,#1544);
#1314=AXIS2_PLACEMENT_3D('',#1935,#1549,#1550);
#1315=AXIS2_PLACEMENT_3D('',#1936,#1551,#1552);
#1316=AXIS2_PLACEMENT_3D('',#1937,#1553,#1554);
#1317=AXIS2_PLACEMENT_3D('',#1943,#1557,#1558);
#1318=AXIS2_PLACEMENT_3D('',#1947,#1560,#1561);
#1319=AXIS2_PLACEMENT_3D('',#1951,#1563,#1564);
#1320=AXIS2_PLACEMENT_3D('',#1957,#1567,#1568);
#1321=AXIS2_PLACEMENT_3D('',#1961,#1570,#1571);
#1322=AXIS2_PLACEMENT_3D('',#1963,#1572,#1573);
#1323=AXIS2_PLACEMENT_3D('',#1967,#1575,#1576);
#1324=AXIS2_PLACEMENT_3D('',#1971,#1578,#1579);
#1325=AXIS2_PLACEMENT_3D('',#1975,#1581,#1582);
#1326=AXIS2_PLACEMENT_3D('',#1977,#1583,#1584);
#1327=AXIS2_PLACEMENT_3D('',#1981,#1586,#1587);
#1328=AXIS2_PLACEMENT_3D('',#1987,#1590,#1591);
#1329=AXIS2_PLACEMENT_3D('',#1990,#1593,#1594);
#1330=AXIS2_PLACEMENT_3D('',#1991,#1595,#1596);
#1331=AXIS2_PLACEMENT_3D('',#1993,#1598,#1599);
#1332=AXIS2_PLACEMENT_3D('',#2000,#1604,#1605);
#1333=AXIS2_PLACEMENT_3D('',#2003,#1607,#1608);
#1334=AXIS2_PLACEMENT_3D('',#2004,#1609,#1610);
#1335=AXIS2_PLACEMENT_3D('',#2008,#1613,#1614);
#1336=AXIS2_PLACEMENT_3D('',#2009,#1615,#1616);
#1337=AXIS2_PLACEMENT_3D('',#2010,#1617,#1618);
#1338=AXIS2_PLACEMENT_3D('',#2012,#1620,#1621);
#1339=AXIS2_PLACEMENT_3D('',#2014,#1622,#1623);
#1340=AXIS2_PLACEMENT_3D('',#2019,#1626,#1627);
#1341=AXIS2_PLACEMENT_3D('',#2021,#1629,#1630);
#1342=AXIS2_PLACEMENT_3D('',#2025,#1632,#1633);
#1343=AXIS2_PLACEMENT_3D('',#2027,#1635,#1636);
#1344=AXIS2_PLACEMENT_3D('',#2032,#1640,#1641);
#1345=AXIS2_PLACEMENT_3D('',#2036,#1644,#1645);
#1346=AXIS2_PLACEMENT_3D('',#2037,#1646,#1647);
#1347=AXIS2_PLACEMENT_3D('',#2038,#1648,#1649);
#1348=AXIS2_PLACEMENT_3D('',#2040,#1650,#1651);
#1349=AXIS2_PLACEMENT_3D('',#2042,#1653,#1654);
#1350=AXIS2_PLACEMENT_3D('',#2046,#1657,#1658);
#1351=AXIS2_PLACEMENT_3D('',#2049,#1660,#1661);
#1352=AXIS2_PLACEMENT_3D('',#2050,#1662,#1663);
#1353=AXIS2_PLACEMENT_3D('',#2052,#1665,#1666);
#1354=AXIS2_PLACEMENT_3D('',#2053,#1667,#1668);
#1355=AXIS2_PLACEMENT_3D('',#2055,#1669,#1670);
#1356=AXIS2_PLACEMENT_3D('',#2057,#1672,#1673);
#1357=AXIS2_PLACEMENT_3D('',#2058,#1674,#1675);
#1358=AXIS2_PLACEMENT_3D('',#2060,#1677,#1678);
#1359=AXIS2_PLACEMENT_3D('',#2062,#1679,#1680);
#1360=AXIS2_PLACEMENT_3D('',#2064,#1682,#1683);
#1361=AXIS2_PLACEMENT_3D('',#2065,#1684,#1685);
#1362=AXIS2_PLACEMENT_3D('',#2068,#1688,#1689);
#1363=AXIS2_PLACEMENT_3D('',#2071,#1692,#1693);
#1364=AXIS2_PLACEMENT_3D('',#2073,#1695,#1696);
#1365=AXIS2_PLACEMENT_3D('',#2075,#1698,#1699);
#1366=AXIS2_PLACEMENT_3D('',#2076,#1700,#1701);
#1367=AXIS2_PLACEMENT_3D('',#2078,#1703,#1704);
#1368=AXIS2_PLACEMENT_3D('',#2080,#1706,#1707);
#1369=AXIS2_PLACEMENT_3D('',#2081,#1708,#1709);
#1370=AXIS2_PLACEMENT_3D('',#2085,#1711,#1712);
#1371=AXIS2_PLACEMENT_3D('',#2087,#1714,#1715);
#1372=AXIS2_PLACEMENT_3D('',#2091,#1718,#1719);
#1373=AXIS2_PLACEMENT_3D('',#2094,#1721,#1722);
#1374=AXIS2_PLACEMENT_3D('',#2095,#1723,#1724);
#1375=AXIS2_PLACEMENT_3D('',#2099,#1727,#1728);
#1376=AXIS2_PLACEMENT_3D('',#2102,#1730,#1731);
#1377=AXIS2_PLACEMENT_3D('',#2103,#1732,#1733);
#1378=AXIS2_PLACEMENT_3D('',#2107,#1736,#1737);
#1379=AXIS2_PLACEMENT_3D('',#2110,#1739,#1740);
#1380=AXIS2_PLACEMENT_3D('',#2111,#1741,#1742);
#1381=AXIS2_PLACEMENT_3D('',#2117,#1746,#1747);
#1382=AXIS2_PLACEMENT_3D('',#2119,#1748,#1749);
#1383=AXIS2_PLACEMENT_3D('',#2121,#1751,#1752);
#1384=AXIS2_PLACEMENT_3D('',#2123,#1754,#1755);
#1385=AXIS2_PLACEMENT_3D('',#2127,#1758,#1759);
#1386=AXIS2_PLACEMENT_3D('',#2128,#1760,#1761);
#1387=AXIS2_PLACEMENT_3D('',#2129,#1762,#1763);
#1388=DIRECTION('axis',(0.,0.,1.));
#1389=DIRECTION('refdir',(1.,0.,0.));
#1390=DIRECTION('center_axis',(0.707106781186549,-0.707106781186546,0.));
#1391=DIRECTION('ref_axis',(-0.707106781186546,-0.707106781186549,0.));
#1392=DIRECTION('',(0.707106781186546,0.707106781186549,0.));
#1393=DIRECTION('',(0.,0.,-1.));
#1394=DIRECTION('',(0.707106781186546,0.707106781186549,0.));
#1395=DIRECTION('',(0.,0.,-1.));
#1396=DIRECTION('center_axis',(0.,0.,-1.));
#1397=DIRECTION('ref_axis',(0.70710678118655,-0.707106781186545,0.));
#1398=DIRECTION('center_axis',(0.,0.,1.));
#1399=DIRECTION('ref_axis',(0.70710678118655,-0.707106781186545,0.));
#1400=DIRECTION('center_axis',(0.,0.,1.));
#1401=DIRECTION('ref_axis',(0.70710678118655,-0.707106781186545,0.));
#1402=DIRECTION('',(0.,0.,-1.));
#1403=DIRECTION('center_axis',(1.,0.,0.));
#1404=DIRECTION('ref_axis',(0.,-1.,0.));
#1405=DIRECTION('',(0.,1.,0.));
#1406=DIRECTION('',(0.,1.,0.));
#1407=DIRECTION('',(0.,0.,-1.));
#1408=DIRECTION('center_axis',(0.,0.,-1.));
#1409=DIRECTION('ref_axis',(1.,0.,0.));
#1410=DIRECTION('center_axis',(0.,0.,1.));
#1411=DIRECTION('ref_axis',(1.,0.,0.));
#1412=DIRECTION('center_axis',(0.,0.,1.));
#1413=DIRECTION('ref_axis',(1.,0.,0.));
#1414=DIRECTION('',(0.,0.,-1.));
#1415=DIRECTION('center_axis',(0.707106781186548,0.707106781186548,0.));
#1416=DIRECTION('ref_axis',(0.707106781186548,-0.707106781186548,0.));
#1417=DIRECTION('',(-0.707106781186548,0.707106781186548,0.));
#1418=DIRECTION('',(-0.707106781186548,0.707106781186548,0.));
#1419=DIRECTION('',(0.,0.,-1.));
#1420=DIRECTION('center_axis',(0.,0.,-1.));
#1421=DIRECTION('ref_axis',(0.70710678118627,0.707106781186825,0.));
#1422=DIRECTION('center_axis',(0.,0.,1.));
#1423=DIRECTION('ref_axis',(0.70710678118627,0.707106781186825,0.));
#1424=DIRECTION('center_axis',(0.,0.,1.));
#1425=DIRECTION('ref_axis',(0.70710678118627,0.707106781186825,0.));
#1426=DIRECTION('',(0.,0.,-1.));
#1427=DIRECTION('center_axis',(-0.707106781186472,0.707106781186623,0.));
#1428=DIRECTION('ref_axis',(0.707106781186623,0.707106781186472,0.));
#1429=DIRECTION('',(-0.707106781186623,-0.707106781186472,0.));
#1430=DIRECTION('',(-0.707106781186623,-0.707106781186472,0.));
#1431=DIRECTION('',(0.,0.,-1.));
#1432=DIRECTION('center_axis',(0.,0.,-1.));
#1433=DIRECTION('ref_axis',(-0.707106781186718,0.707106781186377,0.));
#1434=DIRECTION('center_axis',(0.,0.,1.));
#1435=DIRECTION('ref_axis',(-0.707106781186718,0.707106781186377,0.));
#1436=DIRECTION('center_axis',(0.,0.,1.));
#1437=DIRECTION('ref_axis',(-0.707106781186718,0.707106781186377,0.));
#1438=DIRECTION('',(0.,0.,-1.));
#1439=DIRECTION('center_axis',(-1.,1.7725850438292E-16,0.));
#1440=DIRECTION('ref_axis',(1.7725850438292E-16,1.,0.));
#1441=DIRECTION('',(-1.7725850438292E-16,-1.,0.));
#1442=DIRECTION('',(-1.7725850438292E-16,-1.,0.));
#1443=DIRECTION('',(0.,0.,-1.));
#1444=DIRECTION('center_axis',(0.,0.,-1.));
#1445=DIRECTION('ref_axis',(-1.,-5.79246795456598E-15,0.));
#1446=DIRECTION('center_axis',(0.,0.,1.));
#1447=DIRECTION('ref_axis',(-1.,-5.79246795456598E-15,0.));
#1448=DIRECTION('center_axis',(0.,0.,1.));
#1449=DIRECTION('ref_axis',(-1.,-5.79246795456598E-15,0.));
#1450=DIRECTION('',(0.,0.,-1.));
#1451=DIRECTION('center_axis',(-0.707106781186291,-0.707106781186804,0.));
#1452=DIRECTION('ref_axis',(-0.707106781186804,0.707106781186291,0.));
#1453=DIRECTION('',(0.707106781186804,-0.707106781186291,0.));
#1454=DIRECTION('',(0.707106781186804,-0.707106781186291,0.));
#1455=DIRECTION('',(0.,0.,-1.));
#1456=DIRECTION('center_axis',(0.,0.,-1.));
#1457=DIRECTION('ref_axis',(-0.707106781186248,-0.707106781186847,0.));
#1458=DIRECTION('center_axis',(0.,0.,1.));
#1459=DIRECTION('ref_axis',(-0.707106781186248,-0.707106781186847,0.));
#1460=DIRECTION('center_axis',(0.,0.,1.));
#1461=DIRECTION('ref_axis',(-0.707106781186248,-0.707106781186847,0.));
#1462=DIRECTION('center_axis',(0.,0.,1.));
#1463=DIRECTION('ref_axis',(-1.,0.,0.));
#1464=DIRECTION('center_axis',(0.,0.,-1.));
#1465=DIRECTION('ref_axis',(-1.,0.,0.));
#1466=DIRECTION('center_axis',(0.,0.,-1.));
#1467=DIRECTION('ref_axis',(-1.,0.,0.));
#1468=DIRECTION('',(0.,0.,-1.));
#1469=DIRECTION('center_axis',(0.,0.,-1.));
#1470=DIRECTION('ref_axis',(-1.,0.,0.));
#1471=DIRECTION('center_axis',(0.,0.,-1.));
#1472=DIRECTION('ref_axis',(-1.,0.,0.));
#1473=DIRECTION('center_axis',(0.,0.,1.));
#1474=DIRECTION('ref_axis',(-1.,0.,0.));
#1475=DIRECTION('center_axis',(0.,0.,-1.));
#1476=DIRECTION('ref_axis',(-1.,0.,0.));
#1477=DIRECTION('center_axis',(0.,0.,-1.));
#1478=DIRECTION('ref_axis',(-1.,0.,0.));
#1479=DIRECTION('',(0.,0.,-1.));
#1480=DIRECTION('center_axis',(0.,0.,-1.));
#1481=DIRECTION('ref_axis',(-1.,0.,0.));
#1482=DIRECTION('center_axis',(0.,0.,-1.));
#1483=DIRECTION('ref_axis',(-1.,0.,0.));
#1484=DIRECTION('center_axis',(0.,0.,1.));
#1485=DIRECTION('ref_axis',(-1.,0.,0.));
#1486=DIRECTION('center_axis',(0.,0.,1.));
#1487=DIRECTION('ref_axis',(1.,0.,0.));
#1488=DIRECTION('center_axis',(0.,0.,1.));
#1489=DIRECTION('ref_axis',(-1.,0.,0.));
#1490=DIRECTION('center_axis',(0.,0.,1.));
#1491=DIRECTION('ref_axis',(-1.,0.,0.));
#1492=DIRECTION('',(-0.214285714283549,0.976771023656,0.));
#1493=DIRECTION('',(2.3416910744932E-16,1.,0.));
#1494=DIRECTION('center_axis',(0.,0.,1.));
#1495=DIRECTION('ref_axis',(1.,3.88578058618801E-15,0.));
#1496=DIRECTION('',(-0.707106781186547,0.707106781186548,0.));
#1497=DIRECTION('center_axis',(0.,0.,1.));
#1498=DIRECTION('ref_axis',(0.707106781186547,0.707106781186547,0.));
#1499=DIRECTION('center_axis',(0.,0.,-1.));
#1500=DIRECTION('ref_axis',(0.707106781186637,-0.707106781186458,0.));
#1501=DIRECTION('',(-0.707106781186416,-0.707106781186679,0.));
#1502=DIRECTION('center_axis',(0.,0.,1.));
#1503=DIRECTION('ref_axis',(0.707106781186508,0.707106781186588,0.));
#1504=DIRECTION('',(-0.707106781186547,0.707106781186548,0.));
#1505=DIRECTION('center_axis',(0.,0.,1.));
#1506=DIRECTION('ref_axis',(1.,0.,0.));
#1507=DIRECTION('',(0.,1.,0.));
#1508=DIRECTION('center_axis',(0.,0.,1.));
#1509=DIRECTION('ref_axis',(0.707106781186551,-0.707106781186544,0.));
#1510=DIRECTION('',(0.707106781186545,0.70710678118655,0.));
#1511=DIRECTION('center_axis',(0.,0.,1.));
#1512=DIRECTION('ref_axis',(-0.707106781186294,-0.707106781186801,0.));
#1513=DIRECTION('',(0.707106781186802,-0.707106781186293,0.));
#1514=DIRECTION('center_axis',(0.,0.,-1.));
#1515=DIRECTION('ref_axis',(0.996636906874043,0.0819443460925712,0.));
#1516=DIRECTION('center_axis',(0.,0.,1.));
#1517=DIRECTION('ref_axis',(-0.881183334958513,-0.472774713993243,0.));
#1518=DIRECTION('',(0.707106781186547,0.707106781186548,0.));
#1519=DIRECTION('center_axis',(0.,0.,1.));
#1520=DIRECTION('ref_axis',(0.707106781186548,-0.707106781186547,0.));
#1521=DIRECTION('',(2.3416910744932E-16,1.,0.));
#1522=DIRECTION('',(-0.214285714284144,-0.976771023655869,0.));
#1523=DIRECTION('center_axis',(0.,0.,1.));
#1524=DIRECTION('ref_axis',(-1.,0.,0.));
#1525=DIRECTION('center_axis',(0.,0.,1.));
#1526=DIRECTION('ref_axis',(-1.,0.,0.));
#1527=DIRECTION('',(-0.214285714283213,0.976771023656073,0.));
#1528=DIRECTION('',(2.3416910744932E-16,1.,0.));
#1529=DIRECTION('',(-0.214285714283811,-0.976771023655942,0.));
#1530=DIRECTION('center_axis',(-0.976771023655053,-0.214285714287864,0.));
#1531=DIRECTION('ref_axis',(-0.214285714287864,0.976771023655053,0.));
#1532=DIRECTION('',(0.214285714287864,-0.976771023655053,0.));
#1533=DIRECTION('',(0.,0.,-1.));
#1534=DIRECTION('',(-0.214285714287864,0.976771023655053,0.));
#1535=DIRECTION('',(0.,0.,-1.));
#1536=DIRECTION('center_axis',(0.,0.,-1.));
#1537=DIRECTION('ref_axis',(-0.976771023655119,-0.214285714287561,0.));
#1538=DIRECTION('center_axis',(0.,0.,1.));
#1539=DIRECTION('ref_axis',(-0.976771023655119,-0.214285714287561,0.));
#1540=DIRECTION('center_axis',(0.,0.,-1.));
#1541=DIRECTION('ref_axis',(-0.976771023655119,-0.214285714287561,0.));
#1542=DIRECTION('',(0.,0.,-1.));
#1543=DIRECTION('center_axis',(0.976771023655942,-0.214285714283811,0.));
#1544=DIRECTION('ref_axis',(-0.214285714283811,-0.976771023655942,0.));
#1545=DIRECTION('',(0.214285714283811,0.976771023655942,0.));
#1546=DIRECTION('',(-0.214285714283811,-0.976771023655942,0.));
#1547=DIRECTION('',(0.,0.,-1.));
#1548=DIRECTION('',(0.,0.,1.));
#1549=DIRECTION('center_axis',(0.,0.,-1.));
#1550=DIRECTION('ref_axis',(-1.,0.,0.));
#1551=DIRECTION('center_axis',(0.,0.,-1.));
#1552=DIRECTION('ref_axis',(-1.,0.,0.));
#1553=DIRECTION('center_axis',(0.,0.,1.));
#1554=DIRECTION('ref_axis',(1.,0.,0.));
#1555=DIRECTION('',(2.3416910744932E-16,1.,0.));
#1556=DIRECTION('',(-0.214285714283213,0.976771023656073,0.));
#1557=DIRECTION('center_axis',(0.,0.,1.));
#1558=DIRECTION('ref_axis',(0.976771023655712,0.214285714284858,0.));
#1559=DIRECTION('',(-0.214285714287261,-0.976771023655185,0.));
#1560=DIRECTION('center_axis',(0.,0.,1.));
#1561=DIRECTION('ref_axis',(-1.,0.,0.));
#1562=DIRECTION('',(0.214285714286336,-0.976771023655388,0.));
#1563=DIRECTION('center_axis',(0.,0.,1.));
#1564=DIRECTION('ref_axis',(-0.976771023655704,-0.214285714284898,0.));
#1565=DIRECTION('',(0.214285714284144,0.976771023655869,0.));
#1566=DIRECTION('',(2.3416910744932E-16,1.,0.));
#1567=DIRECTION('center_axis',(0.,0.,1.));
#1568=DIRECTION('ref_axis',(0.707106781186548,-0.707106781186547,0.));
#1569=DIRECTION('',(0.707106781186547,0.707106781186548,0.));
#1570=DIRECTION('center_axis',(0.,0.,1.));
#1571=DIRECTION('ref_axis',(-0.881183334958513,-0.472774713993243,0.));
#1572=DIRECTION('center_axis',(0.,0.,1.));
#1573=DIRECTION('ref_axis',(0.996636906874043,0.0819443460925712,0.));
#1574=DIRECTION('',(-0.707106781186802,0.707106781186293,0.));
#1575=DIRECTION('center_axis',(0.,0.,1.));
#1576=DIRECTION('ref_axis',(-1.,-2.865091676452E-15,0.));
#1577=DIRECTION('',(1.7725850438292E-16,1.,0.));
#1578=DIRECTION('center_axis',(0.,0.,1.));
#1579=DIRECTION('ref_axis',(-0.707106781186624,0.707106781186471,0.));
#1580=DIRECTION('',(0.707106781186416,0.707106781186679,0.));
#1581=DIRECTION('center_axis',(0.,0.,1.));
#1582=DIRECTION('ref_axis',(0.707106781186637,-0.707106781186458,0.));
#1583=DIRECTION('center_axis',(0.,0.,1.));
#1584=DIRECTION('ref_axis',(0.707106781186547,0.707106781186547,0.));
#1585=DIRECTION('',(-0.707106781186547,0.707106781186548,0.));
#1586=DIRECTION('center_axis',(0.,0.,1.));
#1587=DIRECTION('ref_axis',(1.,3.88578058618801E-15,0.));
#1588=DIRECTION('',(2.3416910744932E-16,1.,0.));
#1589=DIRECTION('',(-0.214285714283549,0.976771023656,0.));
#1590=DIRECTION('center_axis',(0.,0.,1.));
#1591=DIRECTION('ref_axis',(0.976771023656028,0.214285714283422,0.));
#1592=DIRECTION('',(-0.214285714287605,-0.97677102365511,0.));
#1593=DIRECTION('center_axis',(0.,0.,1.));
#1594=DIRECTION('ref_axis',(-1.,0.,0.));
#1595=DIRECTION('center_axis',(1.,-2.3416910744932E-16,0.));
#1596=DIRECTION('ref_axis',(2.3416910744932E-16,1.,0.));
#1597=DIRECTION('',(0.,0.,-1.));
#1598=DIRECTION('center_axis',(0.976771023655869,-0.214285714284144,0.));
#1599=DIRECTION('ref_axis',(-0.214285714284144,-0.976771023655869,0.));
#1600=DIRECTION('',(0.,0.,1.));
#1601=DIRECTION('',(0.,0.,-1.));
#1602=DIRECTION('',(-0.214285714284144,-0.976771023655869,0.));
#1603=DIRECTION('',(0.,0.,-1.));
#1604=DIRECTION('center_axis',(0.,0.,-1.));
#1605=DIRECTION('ref_axis',(-0.976771023655704,-0.214285714284898,0.));
#1606=DIRECTION('',(0.,0.,-1.));
#1607=DIRECTION('center_axis',(0.,0.,-1.));
#1608=DIRECTION('ref_axis',(-0.976771023655704,-0.214285714284898,0.));
#1609=DIRECTION('center_axis',(-0.976771023655388,-0.214285714286336,0.));
#1610=DIRECTION('ref_axis',(-0.214285714286336,0.976771023655388,0.));
#1611=DIRECTION('',(0.,0.,-1.));
#1612=DIRECTION('',(-0.214285714286336,0.976771023655388,0.));
#1613=DIRECTION('center_axis',(0.,0.,-1.));
#1614=DIRECTION('ref_axis',(-1.,0.,0.));
#1615=DIRECTION('center_axis',(0.,0.,-1.));
#1616=DIRECTION('ref_axis',(-1.,0.,0.));
#1617=DIRECTION('center_axis',(1.,-2.3416910744932E-16,0.));
#1618=DIRECTION('ref_axis',(2.3416910744932E-16,1.,0.));
#1619=DIRECTION('',(0.,0.,1.));
#1620=DIRECTION('center_axis',(0.,0.,-1.));
#1621=DIRECTION('ref_axis',(-1.,0.,0.));
#1622=DIRECTION('center_axis',(0.,0.,-1.));
#1623=DIRECTION('ref_axis',(-1.,0.,0.));
#1624=DIRECTION('',(0.,0.,1.));
#1625=DIRECTION('',(0.,0.,-1.));
#1626=DIRECTION('center_axis',(0.,0.,-1.));
#1627=DIRECTION('ref_axis',(-1.,0.,0.));
#1628=DIRECTION('',(0.,0.,-1.));
#1629=DIRECTION('center_axis',(0.,0.,-1.));
#1630=DIRECTION('ref_axis',(0.976771023656028,0.214285714283422,0.));
#1631=DIRECTION('',(0.,0.,-1.));
#1632=DIRECTION('center_axis',(0.,0.,-1.));
#1633=DIRECTION('ref_axis',(0.976771023656028,0.214285714283422,0.));
#1634=DIRECTION('',(0.,0.,-1.));
#1635=DIRECTION('center_axis',(0.976771023656,0.214285714283549,0.));
#1636=DIRECTION('ref_axis',(0.214285714283549,-0.976771023656,0.));
#1637=DIRECTION('',(0.,0.,-1.));
#1638=DIRECTION('',(0.,0.,-1.));
#1639=DIRECTION('',(0.214285714283549,-0.976771023656,0.));
#1640=DIRECTION('center_axis',(-0.97677102365511,0.214285714287605,0.));
#1641=DIRECTION('ref_axis',(0.214285714287605,0.97677102365511,0.));
#1642=DIRECTION('',(0.214285714287605,0.97677102365511,0.));
#1643=DIRECTION('',(0.,0.,-1.));
#1644=DIRECTION('center_axis',(0.,0.,-1.));
#1645=DIRECTION('ref_axis',(-1.,0.,0.));
#1646=DIRECTION('center_axis',(0.,0.,-1.));
#1647=DIRECTION('ref_axis',(-1.,0.,0.));
#1648=DIRECTION('center_axis',(0.,0.,-1.));
#1649=DIRECTION('ref_axis',(-1.,0.,0.));
#1650=DIRECTION('center_axis',(0.,0.,-1.));
#1651=DIRECTION('ref_axis',(-1.,0.,0.));
#1652=DIRECTION('',(0.,0.,1.));
#1653=DIRECTION('center_axis',(-0.976771023655185,0.214285714287261,0.));
#1654=DIRECTION('ref_axis',(0.214285714287261,0.976771023655185,0.));
#1655=DIRECTION('',(0.,0.,-1.));
#1656=DIRECTION('',(0.214285714287261,0.976771023655185,0.));
#1657=DIRECTION('center_axis',(0.,0.,-1.));
#1658=DIRECTION('ref_axis',(0.976771023655712,0.214285714284858,0.));
#1659=DIRECTION('',(0.,0.,-1.));
#1660=DIRECTION('center_axis',(0.,0.,-1.));
#1661=DIRECTION('ref_axis',(0.976771023655712,0.214285714284858,0.));
#1662=DIRECTION('center_axis',(0.976771023656073,0.214285714283213,0.));
#1663=DIRECTION('ref_axis',(0.214285714283213,-0.976771023656073,0.));
#1664=DIRECTION('',(0.214285714283213,-0.976771023656073,0.));
#1665=DIRECTION('center_axis',(0.,0.,-1.));
#1666=DIRECTION('ref_axis',(-1.,0.,0.));
#1667=DIRECTION('center_axis',(0.,0.,-1.));
#1668=DIRECTION('ref_axis',(-1.,0.,0.));
#1669=DIRECTION('center_axis',(0.,0.,1.));
#1670=DIRECTION('ref_axis',(-1.,0.,0.));
#1671=DIRECTION('',(0.,0.,1.));
#1672=DIRECTION('center_axis',(0.,0.,1.));
#1673=DIRECTION('ref_axis',(1.,0.,0.));
#1674=DIRECTION('center_axis',(1.,-2.3416910744932E-16,0.));
#1675=DIRECTION('ref_axis',(2.3416910744932E-16,1.,0.));
#1676=DIRECTION('',(0.,0.,1.));
#1677=DIRECTION('center_axis',(0.,0.,-1.));
#1678=DIRECTION('ref_axis',(-1.,0.,0.));
#1679=DIRECTION('center_axis',(0.,0.,1.));
#1680=DIRECTION('ref_axis',(-1.,0.,0.));
#1681=DIRECTION('',(0.,0.,1.));
#1682=DIRECTION('center_axis',(0.,0.,1.));
#1683=DIRECTION('ref_axis',(1.,0.,0.));
#1684=DIRECTION('center_axis',(0.,0.,1.));
#1685=DIRECTION('ref_axis',(0.996636906874043,0.0819443460925712,0.));
#1686=DIRECTION('',(0.,0.,1.));
#1687=DIRECTION('',(0.,0.,1.));
#1688=DIRECTION('center_axis',(0.,0.,1.));
#1689=DIRECTION('ref_axis',(0.707106781186637,-0.707106781186458,0.));
#1690=DIRECTION('',(0.,0.,1.));
#1691=DIRECTION('',(0.,0.,1.));
#1692=DIRECTION('center_axis',(0.,0.,1.));
#1693=DIRECTION('ref_axis',(0.707106781186547,0.707106781186547,0.));
#1694=DIRECTION('',(0.,0.,1.));
#1695=DIRECTION('center_axis',(0.707106781186548,0.707106781186547,0.));
#1696=DIRECTION('ref_axis',(-0.707106781186547,0.707106781186548,0.));
#1697=DIRECTION('',(0.,0.,1.));
#1698=DIRECTION('center_axis',(0.,0.,1.));
#1699=DIRECTION('ref_axis',(1.,3.88578058618801E-15,0.));
#1700=DIRECTION('center_axis',(0.,0.,1.));
#1701=DIRECTION('ref_axis',(0.707106781186548,-0.707106781186547,0.));
#1702=DIRECTION('',(0.,0.,1.));
#1703=DIRECTION('center_axis',(0.707106781186548,-0.707106781186547,0.));
#1704=DIRECTION('ref_axis',(0.707106781186547,0.707106781186548,0.));
#1705=DIRECTION('',(0.,0.,1.));
#1706=DIRECTION('center_axis',(0.,0.,1.));
#1707=DIRECTION('ref_axis',(-0.881183334958513,-0.472774713993243,0.));
#1708=DIRECTION('center_axis',(0.,0.,1.));
#1709=DIRECTION('ref_axis',(-0.707106781186294,-0.707106781186801,0.));
#1710=DIRECTION('',(0.,0.,1.));
#1711=DIRECTION('center_axis',(0.,0.,1.));
#1712=DIRECTION('ref_axis',(-0.707106781186294,-0.707106781186801,0.));
#1713=DIRECTION('',(0.,0.,1.));
#1714=DIRECTION('center_axis',(0.70710678118655,-0.707106781186545,0.));
#1715=DIRECTION('ref_axis',(0.707106781186545,0.70710678118655,0.));
#1716=DIRECTION('',(0.,0.,1.));
#1717=DIRECTION('',(0.707106781186545,0.70710678118655,0.));
#1718=DIRECTION('center_axis',(0.,0.,1.));
#1719=DIRECTION('ref_axis',(0.707106781186551,-0.707106781186544,0.));
#1720=DIRECTION('',(0.,0.,1.));
#1721=DIRECTION('center_axis',(0.,0.,1.));
#1722=DIRECTION('ref_axis',(0.707106781186551,-0.707106781186544,0.));
#1723=DIRECTION('center_axis',(1.,0.,0.));
#1724=DIRECTION('ref_axis',(0.,1.,0.));
#1725=DIRECTION('',(0.,0.,1.));
#1726=DIRECTION('',(0.,1.,0.));
#1727=DIRECTION('center_axis',(0.,0.,1.));
#1728=DIRECTION('ref_axis',(1.,0.,0.));
#1729=DIRECTION('',(0.,0.,1.));
#1730=DIRECTION('center_axis',(0.,0.,1.));
#1731=DIRECTION('ref_axis',(1.,0.,0.));
#1732=DIRECTION('center_axis',(0.707106781186548,0.707106781186547,0.));
#1733=DIRECTION('ref_axis',(-0.707106781186547,0.707106781186548,0.));
#1734=DIRECTION('',(0.,0.,1.));
#1735=DIRECTION('',(-0.707106781186547,0.707106781186548,0.));
#1736=DIRECTION('center_axis',(0.,0.,1.));
#1737=DIRECTION('ref_axis',(0.707106781186508,0.707106781186588,0.));
#1738=DIRECTION('',(0.,0.,1.));
#1739=DIRECTION('center_axis',(0.,0.,1.));
#1740=DIRECTION('ref_axis',(0.707106781186508,0.707106781186588,0.));
#1741=DIRECTION('center_axis',(-1.,1.7725850438292E-16,0.));
#1742=DIRECTION('ref_axis',(-1.7725850438292E-16,-1.,0.));
#1743=DIRECTION('',(0.,0.,1.));
#1744=DIRECTION('',(-1.7725850438292E-16,-1.,0.));
#1745=DIRECTION('',(0.,0.,1.));
#1746=DIRECTION('center_axis',(0.,0.,1.));
#1747=DIRECTION('ref_axis',(-0.707106781186624,0.707106781186471,0.));
#1748=DIRECTION('center_axis',(0.,0.,1.));
#1749=DIRECTION('ref_axis',(-0.707106781186624,0.707106781186471,0.));
#1750=DIRECTION('',(0.,0.,1.));
#1751=DIRECTION('center_axis',(-0.707106781186678,0.707106781186417,0.));
#1752=DIRECTION('ref_axis',(-0.707106781186417,-0.707106781186678,0.));
#1753=DIRECTION('',(-0.707106781186417,-0.707106781186678,0.));
#1754=DIRECTION('center_axis',(-0.707106781186293,-0.707106781186802,0.));
#1755=DIRECTION('ref_axis',(0.707106781186802,-0.707106781186293,0.));
#1756=DIRECTION('',(0.707106781186802,-0.707106781186293,0.));
#1757=DIRECTION('',(0.,0.,1.));
#1758=DIRECTION('center_axis',(0.,0.,1.));
#1759=DIRECTION('ref_axis',(-1.,-2.865091676452E-15,0.));
#1760=DIRECTION('center_axis',(0.,0.,1.));
#1761=DIRECTION('ref_axis',(-1.,-2.865091676452E-15,0.));
#1762=DIRECTION('center_axis',(0.,0.,1.));
#1763=DIRECTION('ref_axis',(1.,0.,0.));
#1764=CARTESIAN_POINT('',(0.,0.,0.));
#1765=CARTESIAN_POINT('Origin',(-63.3564971157459,-24.0180194846605,16.1));
#1766=CARTESIAN_POINT('',(-66.5807611844582,-27.2422835533728,11.));
#1767=CARTESIAN_POINT('',(-63.3564971157459,-24.0180194846605,11.));
#1768=CARTESIAN_POINT('',(-57.8753679656444,-18.5368903345589,11.));
#1769=CARTESIAN_POINT('',(-66.5807611844582,-27.2422835533728,16.1));
#1770=CARTESIAN_POINT('',(-66.5807611844582,-27.2422835533728,16.1));
#1771=CARTESIAN_POINT('',(-63.3564971157459,-24.0180194846605,16.1));
#1772=CARTESIAN_POINT('',(-66.5807611844582,-27.2422835533728,16.1));
#1773=CARTESIAN_POINT('',(-63.3564971157459,-24.0180194846605,16.1));
#1774=CARTESIAN_POINT('Origin',(-64.7000000000004,-22.6745166004061,16.1));
#1775=CARTESIAN_POINT('',(-62.8000000000004,-22.6745166004061,11.));
#1776=CARTESIAN_POINT('Origin',(-64.7000000000004,-22.6745166004061,11.));
#1777=CARTESIAN_POINT('',(-62.8000000000004,-22.6745166004061,16.1));
#1778=CARTESIAN_POINT('Origin',(-64.7000000000004,-22.6745166004061,16.1));
#1779=CARTESIAN_POINT('',(-62.8000000000004,-22.6745166004061,16.1));
#1780=CARTESIAN_POINT('Origin',(-62.8000000000004,22.6745166004061,16.1));
#1781=CARTESIAN_POINT('',(-62.8000000000004,22.6745166004061,11.));
#1782=CARTESIAN_POINT('',(-62.8000000000004,11.3372583002031,11.));
#1783=CARTESIAN_POINT('',(-62.8000000000004,22.6745166004061,16.1));
#1784=CARTESIAN_POINT('',(-62.8000000000004,-22.6745166004061,16.1));
#1785=CARTESIAN_POINT('',(-62.8000000000004,22.6745166004061,16.1));
#1786=CARTESIAN_POINT('Origin',(-64.7000000000004,22.6745166004061,16.1));
#1787=CARTESIAN_POINT('',(-63.356497115746,24.0180194846605,11.));
#1788=CARTESIAN_POINT('Origin',(-64.7000000000004,22.6745166004061,11.));
#1789=CARTESIAN_POINT('',(-63.356497115746,24.0180194846605,16.1));
#1790=CARTESIAN_POINT('Origin',(-64.7000000000004,22.6745166004061,16.1));
#1791=CARTESIAN_POINT('',(-63.356497115746,24.0180194846605,16.1));
#1792=CARTESIAN_POINT('Origin',(-66.5807611844585,27.242283553373,16.1));
#1793=CARTESIAN_POINT('',(-66.5807611844585,27.242283553373,11.));
#1794=CARTESIAN_POINT('',(-59.4875000000006,20.1490223689152,11.));
#1795=CARTESIAN_POINT('',(-66.5807611844585,27.242283553373,16.1));
#1796=CARTESIAN_POINT('',(-63.356497115746,24.0180194846605,16.1));
#1797=CARTESIAN_POINT('',(-66.5807611844585,27.242283553373,16.1));
#1798=CARTESIAN_POINT('Origin',(-66.7221825406957,27.1008621971357,16.1));
#1799=CARTESIAN_POINT('',(-66.8636045985742,27.2422828517284,11.));
#1800=CARTESIAN_POINT('Origin',(-66.7221825406957,27.1008621971357,11.));
#1801=CARTESIAN_POINT('',(-66.8636045985742,27.2422828517284,16.1));
#1802=CARTESIAN_POINT('Origin',(-66.7221825406957,27.1008621971357,16.1));
#1803=CARTESIAN_POINT('',(-66.8636045985742,27.2422828517284,16.1));
#1804=CARTESIAN_POINT('Origin',(-67.4263455967295,26.6795418535763,16.1));
#1805=CARTESIAN_POINT('',(-67.4263455967295,26.6795418535763,11.));
#1806=CARTESIAN_POINT('',(-73.6021446609411,20.503742789366,11.));
#1807=CARTESIAN_POINT('',(-67.4263455967295,26.6795418535763,16.1));
#1808=CARTESIAN_POINT('',(-66.8636045985758,27.24228285173,16.1));
#1809=CARTESIAN_POINT('',(-67.4263455967295,26.6795418535763,16.1));
#1810=CARTESIAN_POINT('Origin',(-65.8000000000001,25.0531962568477,16.1));
#1811=CARTESIAN_POINT('',(-68.1,25.0531962568477,11.));
#1812=CARTESIAN_POINT('Origin',(-65.8000000000001,25.0531962568477,11.));
#1813=CARTESIAN_POINT('',(-68.1,25.0531962568477,16.1));
#1814=CARTESIAN_POINT('Origin',(-65.8000000000001,25.0531962568477,16.1));
#1815=CARTESIAN_POINT('',(-68.1,25.0531962568477,16.1));
#1816=CARTESIAN_POINT('Origin',(-68.1,-25.053196256848,16.1));
#1817=CARTESIAN_POINT('',(-68.1,-25.053196256848,11.));
#1818=CARTESIAN_POINT('',(-68.1,-12.526598128424,11.));
#1819=CARTESIAN_POINT('',(-68.1,-25.053196256848,16.1));
#1820=CARTESIAN_POINT('',(-68.1,25.0531962568477,16.1));
#1821=CARTESIAN_POINT('',(-68.1,-25.053196256848,16.1));
#1822=CARTESIAN_POINT('Origin',(-65.8,-25.053196256848,16.1));
#1823=CARTESIAN_POINT('',(-67.4263455967292,-26.679541853577,11.));
#1824=CARTESIAN_POINT('Origin',(-65.8,-25.053196256848,11.));
#1825=CARTESIAN_POINT('',(-67.4263455967292,-26.679541853577,16.1));
#1826=CARTESIAN_POINT('Origin',(-65.8,-25.053196256848,16.1));
#1827=CARTESIAN_POINT('',(-67.4263455967292,-26.679541853577,16.1));
#1828=CARTESIAN_POINT('Origin',(-66.8636038969328,-27.2422835533729,16.1));
#1829=CARTESIAN_POINT('',(-66.8636038969328,-27.2422835533729,11.));
#1830=CARTESIAN_POINT('',(-73.3207738110427,-20.7851136392678,11.));
#1831=CARTESIAN_POINT('',(-66.8636038969328,-27.2422835533729,16.1));
#1832=CARTESIAN_POINT('',(-67.4263455967292,-26.679541853577,16.1));
#1833=CARTESIAN_POINT('',(-66.8636038969328,-27.2422835533729,16.1));
#1834=CARTESIAN_POINT('Origin',(-66.7221825406956,-27.1008621971355,16.1));
#1835=CARTESIAN_POINT('Origin',(-66.7221825406956,-27.1008621971355,11.));
#1836=CARTESIAN_POINT('Origin',(-66.7221825406956,-27.1008621971355,16.1));
#1837=CARTESIAN_POINT('Origin',(-65.4500000000002,6.66133814775094E-14,
16.1));
#1838=CARTESIAN_POINT('Origin',(-58.5,-13.8,13.));
#1839=CARTESIAN_POINT('',(-55.9,-13.8,13.));
#1840=CARTESIAN_POINT('Origin',(-58.5,-13.8,13.));
#1841=CARTESIAN_POINT('',(-55.9,-13.8,11.2));
#1842=CARTESIAN_POINT('',(-55.9,-13.8,13.));
#1843=CARTESIAN_POINT('Origin',(-58.5,-13.8,11.2));
#1844=CARTESIAN_POINT('Origin',(-58.5,-4.44089209850063E-15,11.2));
#1845=CARTESIAN_POINT('',(-56.85,-13.8,11.2));
#1846=CARTESIAN_POINT('Origin',(-58.5,-13.8,11.2));
#1847=CARTESIAN_POINT('Origin',(-58.5,13.8,13.));
#1848=CARTESIAN_POINT('',(-55.9,13.8,13.));
#1849=CARTESIAN_POINT('Origin',(-58.5,13.8,13.));
#1850=CARTESIAN_POINT('',(-55.9,13.8,11.2));
#1851=CARTESIAN_POINT('',(-55.9,13.8,13.));
#1852=CARTESIAN_POINT('Origin',(-58.5,13.8,11.2));
#1853=CARTESIAN_POINT('Origin',(-58.5,-4.44089209850063E-15,11.2));
#1854=CARTESIAN_POINT('',(-56.85,13.8,11.2));
#1855=CARTESIAN_POINT('Origin',(-58.5,13.8,11.2));
#1856=CARTESIAN_POINT('Origin',(-61.7146448455841,7.105427357601E-14,13.));
#1857=CARTESIAN_POINT('',(-55.8138796849471,13.2107142857152,13.));
#1858=CARTESIAN_POINT('',(-55.75,13.8,13.));
#1859=CARTESIAN_POINT('Origin',(-58.5,13.8,13.));
#1860=CARTESIAN_POINT('',(-55.8138796849468,14.3892857142837,13.));
#1861=CARTESIAN_POINT('Origin',(-58.5,13.8,13.));
#1862=CARTESIAN_POINT('',(-56.0000000000004,15.2376713906963,13.));
#1863=CARTESIAN_POINT('',(-55.8138796849468,14.3892857142837,13.));
#1864=CARTESIAN_POINT('',(-56.0000000000004,18.9644660940672,13.));
#1865=CARTESIAN_POINT('',(-56.0000000000004,-18.9644660940673,13.));
#1866=CARTESIAN_POINT('',(-57.1715728752542,21.7928932188134,13.));
#1867=CARTESIAN_POINT('Origin',(-60.0000000000004,18.9644660940672,13.));
#1868=CARTESIAN_POINT('',(-64.739449878005,29.3607702215643,13.));
#1869=CARTESIAN_POINT('',(-57.1715728752542,21.7928932188134,13.));
#1870=CARTESIAN_POINT('',(-66.3277399941501,29.1264381543711,13.));
#1871=CARTESIAN_POINT('Origin',(-65.4465566591916,28.6536634403777,13.));
#1872=CARTESIAN_POINT('',(-66.9544155877284,28.2828427124762,13.));
#1873=CARTESIAN_POINT('Origin',(-69.5000000000003,30.8284271247475,13.));
#1874=CARTESIAN_POINT('',(-67.4292896911679,27.8079686090365,13.));
#1875=CARTESIAN_POINT('',(-67.9920310216786,27.2452272785257,13.));
#1876=CARTESIAN_POINT('',(-66.0150757595092,27.8079689783223,13.));
#1877=CARTESIAN_POINT('Origin',(-66.7221825406957,27.1008621971357,13.));
#1878=CARTESIAN_POINT('',(-62.7908116907967,24.5837049096098,13.));
#1879=CARTESIAN_POINT('',(-56.3758437520911,18.1687369709042,13.));
#1880=CARTESIAN_POINT('',(-62.0000000000004,22.6745166004061,13.));
#1881=CARTESIAN_POINT('Origin',(-64.7000000000004,22.6745166004061,13.));
#1882=CARTESIAN_POINT('',(-62.0000000000004,-22.6745166004061,13.));
#1883=CARTESIAN_POINT('',(-62.0000000000004,-11.337258300203,13.));
#1884=CARTESIAN_POINT('',(-62.7908116907967,-24.5837049096098,13.));
#1885=CARTESIAN_POINT('Origin',(-64.7000000000004,-22.6745166004061,13.));
#1886=CARTESIAN_POINT('',(-66.015075759509,-27.8079689783221,13.));
#1887=CARTESIAN_POINT('',(-57.9879757864473,-19.7808690052603,13.));
#1888=CARTESIAN_POINT('',(-67.4292893218819,-27.8079689783223,13.));
#1889=CARTESIAN_POINT('Origin',(-66.7221825406956,-27.1008621971355,13.));
#1890=CARTESIAN_POINT('',(-66.9544155877293,-28.2828427124746,13.));
#1891=CARTESIAN_POINT('',(-66.9544155877293,-28.2828427124746,13.));
#1892=CARTESIAN_POINT('',(-66.3277399941499,-29.1264381543708,13.));
#1893=CARTESIAN_POINT('Origin',(-69.5000000000005,-30.8284271247465,13.));
#1894=CARTESIAN_POINT('',(-64.7394498780048,-29.3607702215641,13.));
#1895=CARTESIAN_POINT('Origin',(-65.4465566591914,-28.6536634403776,13.));
#1896=CARTESIAN_POINT('',(-57.1715728752542,-21.7928932188134,13.));
#1897=CARTESIAN_POINT('',(-65.912107135254,-30.5334274788132,13.));
#1898=CARTESIAN_POINT('',(-56.0000000000004,-18.9644660940673,13.));
#1899=CARTESIAN_POINT('Origin',(-60.0000000000004,-18.9644660940672,13.));
#1900=CARTESIAN_POINT('',(-56.0000000000004,-15.2376713906939,13.));
#1901=CARTESIAN_POINT('',(-56.0000000000004,-18.9644660940673,13.));
#1902=CARTESIAN_POINT('',(-55.8138796849472,-14.3892857142853,13.));
#1903=CARTESIAN_POINT('',(-55.8138796849472,-14.3892857142853,13.));
#1904=CARTESIAN_POINT('',(-55.75,-13.8,13.));
#1905=CARTESIAN_POINT('Origin',(-58.5,-13.8,13.));
#1906=CARTESIAN_POINT('',(-55.8138796849467,-13.2107142857169,13.));
#1907=CARTESIAN_POINT('Origin',(-58.5,-13.8,13.));
#1908=CARTESIAN_POINT('',(-56.0000000000004,-12.3623286093023,13.));
#1909=CARTESIAN_POINT('',(-55.8138796849467,-13.2107142857169,13.));
#1910=CARTESIAN_POINT('',(-56.0000000000004,12.3623286093048,13.));
#1911=CARTESIAN_POINT('',(-56.0000000000004,-18.9644660940673,13.));
#1912=CARTESIAN_POINT('',(-55.8138796849471,13.2107142857152,13.));
#1913=CARTESIAN_POINT('Origin',(-60.4535420473029,9.87142857142649,13.));
#1914=CARTESIAN_POINT('',(-61.1861203150523,13.2107142857128,11.));
#1915=CARTESIAN_POINT('',(-60.4535420473029,9.87142857142649,11.));
#1916=CARTESIAN_POINT('',(-59.5351717798636,5.68525372910387,11.));
#1917=CARTESIAN_POINT('',(-61.1861203150523,13.2107142857128,9.5));
#1918=CARTESIAN_POINT('',(-61.1861203150514,13.2107142857084,13.));
#1919=CARTESIAN_POINT('',(-60.4535420473029,9.87142857142649,9.5));
#1920=CARTESIAN_POINT('',(-59.3756054533303,4.95790816326984,9.5));
#1921=CARTESIAN_POINT('',(-60.4535420473029,9.87142857142649,13.));
#1922=CARTESIAN_POINT('Origin',(-58.5,10.3,13.));
#1923=CARTESIAN_POINT('',(-56.5464579526962,9.87142857143068,11.));
#1924=CARTESIAN_POINT('Origin',(-58.5,10.3,11.));
#1925=CARTESIAN_POINT('',(-56.5464579526962,9.87142857143068,9.5));
#1926=CARTESIAN_POINT('Origin',(-58.5,10.3,9.5));
#1927=CARTESIAN_POINT('',(-56.5464579526962,9.87142857143068,13.));
#1928=CARTESIAN_POINT('Origin',(-55.8138796849471,13.2107142857152,13.));
#1929=CARTESIAN_POINT('',(-56.0000000000004,12.3623286093048,11.));
#1930=CARTESIAN_POINT('',(-57.4176717392957,5.90020545458257,11.));
#1931=CARTESIAN_POINT('',(-55.8138796849471,13.2107142857152,9.5));
#1932=CARTESIAN_POINT('',(-57.2581054127675,6.62755102040769,9.5));
#1933=CARTESIAN_POINT('',(-55.8138796849461,13.2107142857195,13.));
#1934=CARTESIAN_POINT('',(-56.0000000000004,12.3623286093048,12.));
#1935=CARTESIAN_POINT('Origin',(-58.5000000000004,4.46087611294388E-12,
9.5));
#1936=CARTESIAN_POINT('Origin',(-58.5,13.8,9.5));
#1937=CARTESIAN_POINT('Origin',(-65.4500000000002,7.105427357601E-14,11.));
#1938=CARTESIAN_POINT('',(-56.0000000000004,-12.3623286093023,11.));
#1939=CARTESIAN_POINT('',(-56.0000000000004,-18.9644660940673,11.));
#1940=CARTESIAN_POINT('',(-56.54645795268,-9.87142857142841,11.));
#1941=CARTESIAN_POINT('',(-57.7839608731573,-4.23056259744009,11.));
#1942=CARTESIAN_POINT('',(-60.4535420473191,-9.87142857142419,11.));
#1943=CARTESIAN_POINT('Origin',(-58.5,-10.3,11.));
#1944=CARTESIAN_POINT('',(-61.1861203150527,-13.2107142857144,11.));
#1945=CARTESIAN_POINT('',(-59.9014609137417,-7.35489658624487,11.));
#1946=CARTESIAN_POINT('',(-61.1861203150542,-14.3892857142831,11.));
#1947=CARTESIAN_POINT('Origin',(-58.5,-13.8,11.));
#1948=CARTESIAN_POINT('',(-60.4535420473101,-17.7285714285695,11.));
#1949=CARTESIAN_POINT('',(-62.4236232355507,-8.74841974029302,11.));
#1950=CARTESIAN_POINT('',(-56.5464579526895,-17.7285714285678,11.));
#1951=CARTESIAN_POINT('Origin',(-58.5,-17.3,11.));
#1952=CARTESIAN_POINT('',(-56.0000000000004,-15.2376713906939,11.));
#1953=CARTESIAN_POINT('',(-54.5292202836516,-8.53346801479671,11.));
#1954=CARTESIAN_POINT('',(-56.0000000000004,-18.9644660940673,11.));
#1955=CARTESIAN_POINT('',(-56.0000000000004,-18.9644660940673,11.));
#1956=CARTESIAN_POINT('',(-57.1715728752542,-21.7928932188134,11.));
#1957=CARTESIAN_POINT('Origin',(-60.0000000000004,-18.9644660940672,11.));
#1958=CARTESIAN_POINT('',(-64.7394498780048,-29.3607702215641,11.));
#1959=CARTESIAN_POINT('',(-65.912107135254,-30.5334274788132,11.));
#1960=CARTESIAN_POINT('',(-66.3277399941499,-29.1264381543708,11.));
#1961=CARTESIAN_POINT('Origin',(-65.4465566591914,-28.6536634403776,11.));
#1962=CARTESIAN_POINT('',(-66.9544155877293,-28.2828427124746,11.));
#1963=CARTESIAN_POINT('Origin',(-69.5000000000005,-30.8284271247465,11.));
#1964=CARTESIAN_POINT('',(-67.9920310216781,-27.2452272785266,11.));
#1965=CARTESIAN_POINT('',(-66.9544155877293,-28.2828427124746,11.));
#1966=CARTESIAN_POINT('',(-68.9,-25.053196256848,11.));
#1967=CARTESIAN_POINT('Origin',(-65.8,-25.053196256848,11.));
#1968=CARTESIAN_POINT('',(-68.9,25.0531962568477,11.));
#1969=CARTESIAN_POINT('',(-68.9,-25.053196256848,11.));
#1970=CARTESIAN_POINT('',(-67.9920310216786,27.2452272785257,11.));
#1971=CARTESIAN_POINT('Origin',(-65.8000000000001,25.0531962568477,11.));
#1972=CARTESIAN_POINT('',(-66.9544155877284,28.2828427124762,11.));
#1973=CARTESIAN_POINT('',(-67.9920310216786,27.2452272785257,11.));
#1974=CARTESIAN_POINT('',(-66.3277399941501,29.1264381543711,11.));
#1975=CARTESIAN_POINT('Origin',(-69.5000000000003,30.8284271247475,11.));
#1976=CARTESIAN_POINT('',(-64.739449878005,29.3607702215643,11.));
#1977=CARTESIAN_POINT('Origin',(-65.4465566591916,28.6536634403777,11.));
#1978=CARTESIAN_POINT('',(-57.1715728752542,21.7928932188134,11.));
#1979=CARTESIAN_POINT('',(-57.1715728752542,21.7928932188134,11.));
#1980=CARTESIAN_POINT('',(-56.0000000000004,18.9644660940672,11.));
#1981=CARTESIAN_POINT('Origin',(-60.0000000000004,18.9644660940672,11.));
#1982=CARTESIAN_POINT('',(-56.0000000000004,15.2376713906963,11.));
#1983=CARTESIAN_POINT('',(-56.0000000000004,-18.9644660940673,11.));
#1984=CARTESIAN_POINT('',(-56.5464579526805,17.7285714285685,11.));
#1985=CARTESIAN_POINT('',(-54.895509417521,10.2031108719339,11.));
#1986=CARTESIAN_POINT('',(-60.4535420473186,17.7285714285727,11.));
#1987=CARTESIAN_POINT('Origin',(-58.5,17.3,11.));
#1988=CARTESIAN_POINT('',(-61.1861203150526,14.3892857142861,11.));
#1989=CARTESIAN_POINT('',(-62.7899123694311,7.07877688315269,11.));
#1990=CARTESIAN_POINT('Origin',(-58.5,13.8,11.));
#1991=CARTESIAN_POINT('Origin',(-56.0000000000004,-18.9644660940673,11.));
#1992=CARTESIAN_POINT('',(-56.0000000000004,-12.3623286093023,12.));
#1993=CARTESIAN_POINT('Origin',(-55.8138796849472,-14.3892857142853,13.));
#1994=CARTESIAN_POINT('',(-56.0000000000004,-15.2376713906939,12.));
#1995=CARTESIAN_POINT('',(-56.5464579526895,-17.7285714285678,9.5));
#1996=CARTESIAN_POINT('',(-56.5464579526895,-17.7285714285678,13.));
#1997=CARTESIAN_POINT('',(-55.8138796849472,-14.3892857142853,9.5));
#1998=CARTESIAN_POINT('',(-54.3696539571228,-7.80612244897051,9.5));
#1999=CARTESIAN_POINT('',(-55.8138796849463,-14.3892857142814,13.));
#2000=CARTESIAN_POINT('Origin',(-58.5,-17.3,13.));
#2001=CARTESIAN_POINT('',(-60.4535420473101,-17.7285714285695,9.5));
#2002=CARTESIAN_POINT('',(-60.4535420473101,-17.7285714285695,13.));
#2003=CARTESIAN_POINT('Origin',(-58.5,-17.3,9.5));
#2004=CARTESIAN_POINT('Origin',(-60.4535420473101,-17.7285714285695,13.));
#2005=CARTESIAN_POINT('',(-61.1861203150542,-14.3892857142831,9.5));
#2006=CARTESIAN_POINT('',(-61.1861203150532,-14.3892857142876,13.));
#2007=CARTESIAN_POINT('',(-62.2640569090196,-9.47576530612211,9.5));
#2008=CARTESIAN_POINT('Origin',(-58.5000000000004,4.46087611294388E-12,
9.5));
#2009=CARTESIAN_POINT('Origin',(-58.5,-13.8,9.5));
#2010=CARTESIAN_POINT('Origin',(-56.0000000000004,-18.9644660940673,11.));
#2011=CARTESIAN_POINT('',(-56.0000000000004,-18.9644660940673,11.));
#2012=CARTESIAN_POINT('Origin',(-58.5,-13.8,13.));
#2013=CARTESIAN_POINT('',(-55.75,-13.8,8.5));
#2014=CARTESIAN_POINT('Origin',(-58.5,-13.8,8.5));
#2015=CARTESIAN_POINT('',(-55.75,-13.8,13.));
#2016=CARTESIAN_POINT('',(-61.1861203150527,-13.2107142857144,9.5));
#2017=CARTESIAN_POINT('',(-61.1861203150517,-13.21071428571,13.));
#2018=CARTESIAN_POINT('',(-55.8138796849467,-13.2107142857169,9.5));
#2019=CARTESIAN_POINT('Origin',(-58.5,-13.8,9.5));
#2020=CARTESIAN_POINT('',(-55.8138796849458,-13.2107142857212,13.));
#2021=CARTESIAN_POINT('Origin',(-58.5,17.3,13.));
#2022=CARTESIAN_POINT('',(-56.5464579526805,17.7285714285685,9.5));
#2023=CARTESIAN_POINT('',(-56.5464579526805,17.7285714285685,13.));
#2024=CARTESIAN_POINT('',(-60.4535420473186,17.7285714285727,9.5));
#2025=CARTESIAN_POINT('Origin',(-58.5,17.3,9.5));
#2026=CARTESIAN_POINT('',(-60.4535420473186,17.7285714285727,13.));
#2027=CARTESIAN_POINT('Origin',(-56.5464579526805,17.7285714285685,13.));
#2028=CARTESIAN_POINT('',(-56.0000000000004,15.2376713906963,12.));
#2029=CARTESIAN_POINT('',(-55.8138796849468,14.3892857142837,9.5));
#2030=CARTESIAN_POINT('',(-55.813879684946,14.3892857142798,13.));
#2031=CARTESIAN_POINT('',(-54.7359430909941,9.47576530611377,9.5));
#2032=CARTESIAN_POINT('Origin',(-61.1861203150526,14.3892857142861,13.));
#2033=CARTESIAN_POINT('',(-61.1861203150526,14.3892857142861,9.5));
#2034=CARTESIAN_POINT('',(-62.6303460428973,7.80612244899007,9.5));
#2035=CARTESIAN_POINT('',(-61.1861203150515,14.3892857142909,13.));
#2036=CARTESIAN_POINT('Origin',(-58.5000000000004,4.46087611294388E-12,
9.5));
#2037=CARTESIAN_POINT('Origin',(-58.5,13.8,9.5));
#2038=CARTESIAN_POINT('Origin',(-58.5,13.8,13.));
#2039=CARTESIAN_POINT('',(-55.75,13.8,8.5));
#2040=CARTESIAN_POINT('Origin',(-58.5,13.8,8.5));
#2041=CARTESIAN_POINT('',(-55.75,13.8,13.));
#2042=CARTESIAN_POINT('Origin',(-61.1861203150527,-13.2107142857144,13.));
#2043=CARTESIAN_POINT('',(-60.4535420473191,-9.87142857142419,9.5));
#2044=CARTESIAN_POINT('',(-60.4535420473191,-9.87142857142419,13.));
#2045=CARTESIAN_POINT('',(-59.7418945872083,-6.6275510204086,9.5));
#2046=CARTESIAN_POINT('Origin',(-58.5,-10.3,13.));
#2047=CARTESIAN_POINT('',(-56.54645795268,-9.87142857142841,9.5));
#2048=CARTESIAN_POINT('',(-56.54645795268,-9.87142857142841,13.));
#2049=CARTESIAN_POINT('Origin',(-58.5,-10.3,9.5));
#2050=CARTESIAN_POINT('Origin',(-56.54645795268,-9.87142857142841,13.));
#2051=CARTESIAN_POINT('',(-57.6243945466309,-4.95790816325909,9.5));
#2052=CARTESIAN_POINT('Origin',(-58.5000000000004,4.46087611294388E-12,
9.5));
#2053=CARTESIAN_POINT('Origin',(-58.5,13.8,13.));
#2054=CARTESIAN_POINT('',(-56.85,13.8,8.5));
#2055=CARTESIAN_POINT('Origin',(-58.5,13.8,8.5));
#2056=CARTESIAN_POINT('',(-56.85,13.8,13.));
#2057=CARTESIAN_POINT('Origin',(-58.5,-4.44089209850063E-15,8.5));
#2058=CARTESIAN_POINT('Origin',(-56.0000000000004,-18.9644660940673,11.));
#2059=CARTESIAN_POINT('',(-56.0000000000004,18.9644660940672,11.));
#2060=CARTESIAN_POINT('Origin',(-58.5,-13.8,13.));
#2061=CARTESIAN_POINT('',(-56.85,-13.8,8.5));
#2062=CARTESIAN_POINT('Origin',(-58.5,-13.8,8.5));
#2063=CARTESIAN_POINT('',(-56.85,-13.8,13.));
#2064=CARTESIAN_POINT('Origin',(-58.5,-4.44089209850063E-15,8.5));
#2065=CARTESIAN_POINT('Origin',(-69.5000000000005,-30.8284271247465,11.));
#2066=CARTESIAN_POINT('',(-66.3277399941499,-29.1264381543708,11.));
#2067=CARTESIAN_POINT('',(-66.9544155877293,-28.2828427124746,11.));
#2068=CARTESIAN_POINT('Origin',(-69.5000000000003,30.8284271247475,11.));
#2069=CARTESIAN_POINT('',(-66.9544155877284,28.2828427124762,11.));
#2070=CARTESIAN_POINT('',(-66.3277399941501,29.1264381543711,11.));
#2071=CARTESIAN_POINT('Origin',(-65.4465566591916,28.6536634403777,11.));
#2072=CARTESIAN_POINT('',(-64.739449878005,29.3607702215643,11.));
#2073=CARTESIAN_POINT('Origin',(-57.1715728752542,21.7928932188134,11.));
#2074=CARTESIAN_POINT('',(-57.1715728752542,21.7928932188134,11.));
#2075=CARTESIAN_POINT('Origin',(-60.0000000000004,18.9644660940672,11.));
#2076=CARTESIAN_POINT('Origin',(-60.0000000000004,-18.9644660940672,11.));
#2077=CARTESIAN_POINT('',(-57.1715728752542,-21.7928932188134,11.));
#2078=CARTESIAN_POINT('Origin',(-64.7394498780048,-29.3607702215641,11.));
#2079=CARTESIAN_POINT('',(-64.7394498780048,-29.3607702215641,11.));
#2080=CARTESIAN_POINT('Origin',(-65.4465566591914,-28.6536634403776,11.));
#2081=CARTESIAN_POINT('Origin',(-66.7221825406956,-27.1008621971355,11.));
#2082=CARTESIAN_POINT('',(-66.015075759509,-27.8079689783221,16.5));
#2083=CARTESIAN_POINT('',(-66.015075759509,-27.8079689783221,11.));
#2084=CARTESIAN_POINT('',(-67.4292893218819,-27.8079689783223,16.5));
#2085=CARTESIAN_POINT('Origin',(-66.7221825406956,-27.1008621971355,16.5));
#2086=CARTESIAN_POINT('',(-67.4292893218819,-27.8079689783223,11.));
#2087=CARTESIAN_POINT('Origin',(-66.015075759509,-27.8079689783221,11.));
#2088=CARTESIAN_POINT('',(-62.7908116907967,-24.5837049096098,16.5));
#2089=CARTESIAN_POINT('',(-62.7908116907967,-24.5837049096098,11.));
#2090=CARTESIAN_POINT('',(-62.7908116907967,-24.5837049096098,16.5));
#2091=CARTESIAN_POINT('Origin',(-64.7000000000004,-22.6745166004061,11.));
#2092=CARTESIAN_POINT('',(-62.0000000000004,-22.6745166004061,16.5));
#2093=CARTESIAN_POINT('',(-62.0000000000004,-22.6745166004061,11.));
#2094=CARTESIAN_POINT('Origin',(-64.7000000000004,-22.6745166004061,16.5));
#2095=CARTESIAN_POINT('Origin',(-62.0000000000004,-22.6745166004061,11.));
#2096=CARTESIAN_POINT('',(-62.0000000000004,22.6745166004061,16.5));
#2097=CARTESIAN_POINT('',(-62.0000000000004,22.6745166004061,11.));
#2098=CARTESIAN_POINT('',(-62.0000000000004,22.6745166004061,16.5));
#2099=CARTESIAN_POINT('Origin',(-64.7000000000004,22.6745166004061,11.));
#2100=CARTESIAN_POINT('',(-62.7908116907967,24.5837049096098,16.5));
#2101=CARTESIAN_POINT('',(-62.7908116907967,24.5837049096098,11.));
#2102=CARTESIAN_POINT('Origin',(-64.7000000000004,22.6745166004061,16.5));
#2103=CARTESIAN_POINT('Origin',(-62.7908116907967,24.5837049096098,11.));
#2104=CARTESIAN_POINT('',(-66.0150757595092,27.8079689783223,16.5));
#2105=CARTESIAN_POINT('',(-66.0150757595092,27.8079689783223,11.));
#2106=CARTESIAN_POINT('',(-67.2677669529667,29.0606601717798,16.5));
#2107=CARTESIAN_POINT('Origin',(-66.7221825406957,27.1008621971357,11.));
#2108=CARTESIAN_POINT('',(-67.4292896911679,27.8079686090365,16.5));
#2109=CARTESIAN_POINT('',(-67.4292896911679,27.8079686090365,11.));
#2110=CARTESIAN_POINT('Origin',(-66.7221825406957,27.1008621971357,16.5));
#2111=CARTESIAN_POINT('Origin',(-68.9,25.0531962568477,11.));
#2112=CARTESIAN_POINT('',(-68.9,-25.053196256848,16.5));
#2113=CARTESIAN_POINT('',(-68.9,-25.053196256848,11.));
#2114=CARTESIAN_POINT('',(-68.9,25.0531962568477,16.5));
#2115=CARTESIAN_POINT('',(-68.9,-25.053196256848,16.5));
#2116=CARTESIAN_POINT('',(-68.9,25.0531962568477,11.));
#2117=CARTESIAN_POINT('Origin',(-65.8000000000001,25.0531962568477,11.));
#2118=CARTESIAN_POINT('',(-67.9920310216786,27.2452272785257,16.5));
#2119=CARTESIAN_POINT('Origin',(-65.8000000000001,25.0531962568477,16.5));
#2120=CARTESIAN_POINT('',(-67.9920310216786,27.2452272785257,11.));
#2121=CARTESIAN_POINT('Origin',(-67.4292896911679,27.8079686090365,11.));
#2122=CARTESIAN_POINT('',(-67.9920310216786,27.2452272785257,16.5));
#2123=CARTESIAN_POINT('Origin',(-67.9920310216781,-27.2452272785266,11.));
#2124=CARTESIAN_POINT('',(-67.9920310216781,-27.2452272785266,16.5));
#2125=CARTESIAN_POINT('',(-66.9544155877293,-28.2828427124746,16.5));
#2126=CARTESIAN_POINT('',(-67.9920310216781,-27.2452272785266,11.));
#2127=CARTESIAN_POINT('Origin',(-65.8,-25.053196256848,11.));
#2128=CARTESIAN_POINT('Origin',(-65.8,-25.053196256848,16.5));
#2129=CARTESIAN_POINT('Origin',(-65.4500000000002,7.105427357601E-14,16.5));
#2130=UNCERTAINTY_MEASURE_WITH_UNIT(LENGTH_MEASURE(0.01),#2134,
'DISTANCE_ACCURACY_VALUE',
'Maximum model space distance between geometric entities at asserted c
onnectivities');
#2131=UNCERTAINTY_MEASURE_WITH_UNIT(LENGTH_MEASURE(0.01),#2134,
'DISTANCE_ACCURACY_VALUE',
'Maximum model space distance between geometric entities at asserted c
onnectivities');
#2132=(
GEOMETRIC_REPRESENTATION_CONTEXT(3)
GLOBAL_UNCERTAINTY_ASSIGNED_CONTEXT((#2130))
GLOBAL_UNIT_ASSIGNED_CONTEXT((#2134,#2136,#2137))
REPRESENTATION_CONTEXT('','3D')
);
#2133=(
GEOMETRIC_REPRESENTATION_CONTEXT(3)
GLOBAL_UNCERTAINTY_ASSIGNED_CONTEXT((#2131))
GLOBAL_UNIT_ASSIGNED_CONTEXT((#2134,#2136,#2137))
REPRESENTATION_CONTEXT('','3D')
);
#2134=(
LENGTH_UNIT()
NAMED_UNIT(*)
SI_UNIT(.MILLI.,.METRE.)
);
#2135=(
LENGTH_UNIT()
NAMED_UNIT(*)
SI_UNIT($,.METRE.)
);
#2136=(
NAMED_UNIT(*)
PLANE_ANGLE_UNIT()
SI_UNIT($,.RADIAN.)
);
#2137=(
NAMED_UNIT(*)
SI_UNIT($,.STERADIAN.)
SOLID_ANGLE_UNIT()
);
#2138=SHAPE_DEFINITION_REPRESENTATION(#2139,#2140);
#2139=PRODUCT_DEFINITION_SHAPE('',$,#2142);
#2140=SHAPE_REPRESENTATION('',(#1258),#2132);
#2141=PRODUCT_DEFINITION_CONTEXT('part definition',#2146,'design');
#2142=PRODUCT_DEFINITION('2026-08-24-22-17-11-892','\X2\706F676167D451495757\X0\',
#2143,#2141);
#2143=PRODUCT_DEFINITION_FORMATION('',$,#2148);
#2144=PRODUCT_RELATED_PRODUCT_CATEGORY('\X2\706F676167D451495757\X0\',
'\X2\706F676167D451495757\X0\',(#2148));
#2145=APPLICATION_PROTOCOL_DEFINITION('international standard',
'automotive_design',2009,#2146);
#2146=APPLICATION_CONTEXT(
'Core Data for Automotive Mechanical Design Process');
#2147=PRODUCT_CONTEXT('part definition',#2146,'mechanical');
#2148=PRODUCT('2026-08-24-22-17-11-892','\X2\706F676167D451495757\X0\',
$,(#2147));
#2149=PRESENTATION_STYLE_ASSIGNMENT((#2150));
#2150=SURFACE_STYLE_USAGE(.BOTH.,#2151);
#2151=SURFACE_SIDE_STYLE('',(#2152));
#2152=SURFACE_STYLE_FILL_AREA(#2153);
#2153=FILL_AREA_STYLE('ABS(\X2\767D8272\X0\)',(#2154));
#2154=FILL_AREA_STYLE_COLOUR('ABS(\X2\767D8272\X0\)',#2155);
#2155=COLOUR_RGB('ABS(\X2\767D8272\X0\)',0.964705882352941,0.964705882352941,
0.952941176470588);
ENDSEC;
END-ISO-10303-21;
