ISO-10303-21;
HEADER;
/* Generated by software containing ST-Developer
 * from STEP Tools, Inc. (www.steptools.com) 
 */

FILE_DESCRIPTION(
/* description */ (''),
/* implementation_level */ '2;1');

FILE_NAME(
/* name */ '',
/* time_stamp */ '2026-08-25T12:29:11+08:00',
/* author */ (''),
/* organization */ (''),
/* preprocessor_version */ 'ST-DEVELOPER v20.1',
/* originating_system */ 'Autodesk Translation Framework v15.8.0.0',
/* authorisation */ '');

FILE_SCHEMA (('AUTOMOTIVE_DESIGN { 1 0 10303 214 3 1 1 }'));
ENDSEC;

DATA;
#10=MECHANICAL_DESIGN_GEOMETRIC_PRESENTATION_REPRESENTATION('',(#13),#1395);
#11=SHAPE_REPRESENTATION_RELATIONSHIP('SRR','None',#1402,#12);
#12=ADVANCED_BREP_SHAPE_REPRESENTATION('',(#14),#1394);
#13=STYLED_ITEM('',(#1412),#14);
#14=MANIFOLD_SOLID_BREP('\X2\5B9E4F53\X0\1',#811);
#15=FACE_BOUND('',#122,.T.);
#16=FACE_BOUND('',#123,.T.);
#17=FACE_BOUND('',#124,.T.);
#18=FACE_BOUND('',#125,.T.);
#19=FACE_BOUND('',#149,.T.);
#20=FACE_BOUND('',#150,.T.);
#21=FACE_BOUND('',#151,.T.);
#22=FACE_BOUND('',#152,.T.);
#23=PLANE('',#848);
#24=PLANE('',#852);
#25=PLANE('',#856);
#26=PLANE('',#860);
#27=PLANE('',#864);
#28=PLANE('',#865);
#29=PLANE('',#879);
#30=PLANE('',#884);
#31=PLANE('',#889);
#32=PLANE('',#894);
#33=PLANE('',#899);
#34=PLANE('',#904);
#35=PLANE('',#905);
#36=PLANE('',#906);
#37=PLANE('',#907);
#38=PLANE('',#908);
#39=PLANE('',#909);
#40=PLANE('',#910);
#41=CYLINDRICAL_SURFACE('',#828,2.15);
#42=CYLINDRICAL_SURFACE('',#833,2.15);
#43=CYLINDRICAL_SURFACE('',#838,2.15);
#44=CYLINDRICAL_SURFACE('',#843,2.15);
#45=CYLINDRICAL_SURFACE('',#845,3.2);
#46=CYLINDRICAL_SURFACE('',#849,3.2);
#47=CYLINDRICAL_SURFACE('',#853,3.2);
#48=CYLINDRICAL_SURFACE('',#857,3.2);
#49=CYLINDRICAL_SURFACE('',#861,2.);
#50=CYLINDRICAL_SURFACE('',#877,2.);
#51=CYLINDRICAL_SURFACE('',#880,2.);
#52=CYLINDRICAL_SURFACE('',#882,2.);
#53=CYLINDRICAL_SURFACE('',#885,2.);
#54=CYLINDRICAL_SURFACE('',#887,2.);
#55=CYLINDRICAL_SURFACE('',#890,2.);
#56=CYLINDRICAL_SURFACE('',#892,2.);
#57=CYLINDRICAL_SURFACE('',#895,2.);
#58=CYLINDRICAL_SURFACE('',#897,2.);
#59=CYLINDRICAL_SURFACE('',#900,2.);
#60=CYLINDRICAL_SURFACE('',#902,2.);
#61=FACE_OUTER_BOUND('',#103,.T.);
#62=FACE_OUTER_BOUND('',#104,.T.);
#63=FACE_OUTER_BOUND('',#105,.T.);
#64=FACE_OUTER_BOUND('',#106,.T.);
#65=FACE_OUTER_BOUND('',#107,.T.);
#66=FACE_OUTER_BOUND('',#108,.T.);
#67=FACE_OUTER_BOUND('',#109,.T.);
#68=FACE_OUTER_BOUND('',#110,.T.);
#69=FACE_OUTER_BOUND('',#111,.T.);
#70=FACE_OUTER_BOUND('',#112,.T.);
#71=FACE_OUTER_BOUND('',#113,.T.);
#72=FACE_OUTER_BOUND('',#114,.T.);
#73=FACE_OUTER_BOUND('',#115,.T.);
#74=FACE_OUTER_BOUND('',#116,.T.);
#75=FACE_OUTER_BOUND('',#117,.T.);
#76=FACE_OUTER_BOUND('',#118,.T.);
#77=FACE_OUTER_BOUND('',#119,.T.);
#78=FACE_OUTER_BOUND('',#120,.T.);
#79=FACE_OUTER_BOUND('',#121,.T.);
#80=FACE_OUTER_BOUND('',#126,.T.);
#81=FACE_OUTER_BOUND('',#127,.T.);
#82=FACE_OUTER_BOUND('',#128,.T.);
#83=FACE_OUTER_BOUND('',#129,.T.);
#84=FACE_OUTER_BOUND('',#130,.T.);
#85=FACE_OUTER_BOUND('',#131,.T.);
#86=FACE_OUTER_BOUND('',#132,.T.);
#87=FACE_OUTER_BOUND('',#133,.T.);
#88=FACE_OUTER_BOUND('',#134,.T.);
#89=FACE_OUTER_BOUND('',#135,.T.);
#90=FACE_OUTER_BOUND('',#136,.T.);
#91=FACE_OUTER_BOUND('',#137,.T.);
#92=FACE_OUTER_BOUND('',#138,.T.);
#93=FACE_OUTER_BOUND('',#139,.T.);
#94=FACE_OUTER_BOUND('',#140,.T.);
#95=FACE_OUTER_BOUND('',#141,.T.);
#96=FACE_OUTER_BOUND('',#142,.T.);
#97=FACE_OUTER_BOUND('',#143,.T.);
#98=FACE_OUTER_BOUND('',#144,.T.);
#99=FACE_OUTER_BOUND('',#145,.T.);
#100=FACE_OUTER_BOUND('',#146,.T.);
#101=FACE_OUTER_BOUND('',#147,.T.);
#102=FACE_OUTER_BOUND('',#148,.T.);
#103=EDGE_LOOP('',(#533,#534,#535,#536));
#104=EDGE_LOOP('',(#537,#538,#539,#540));
#105=EDGE_LOOP('',(#541,#542,#543,#544));
#106=EDGE_LOOP('',(#545,#546,#547,#548));
#107=EDGE_LOOP('',(#549,#550,#551,#552));
#108=EDGE_LOOP('',(#553,#554,#555,#556));
#109=EDGE_LOOP('',(#557,#558,#559,#560));
#110=EDGE_LOOP('',(#561,#562,#563,#564));
#111=EDGE_LOOP('',(#565,#566,#567,#568));
#112=EDGE_LOOP('',(#569,#570,#571,#572));
#113=EDGE_LOOP('',(#573,#574,#575,#576));
#114=EDGE_LOOP('',(#577,#578,#579,#580));
#115=EDGE_LOOP('',(#581,#582,#583,#584));
#116=EDGE_LOOP('',(#585,#586,#587,#588));
#117=EDGE_LOOP('',(#589,#590,#591,#592));
#118=EDGE_LOOP('',(#593,#594,#595,#596));
#119=EDGE_LOOP('',(#597,#598,#599,#600));
#120=EDGE_LOOP('',(#601,#602,#603,#604));
#121=EDGE_LOOP('',(#605,#606,#607,#608,#609,#610,#611,#612,#613,#614,#615,
#616,#617,#618,#619,#620,#621,#622,#623,#624,#625,#626,#627,#628,#629,#630,
#631,#632,#633,#634,#635,#636));
#122=EDGE_LOOP('',(#637));
#123=EDGE_LOOP('',(#638));
#124=EDGE_LOOP('',(#639));
#125=EDGE_LOOP('',(#640));
#126=EDGE_LOOP('',(#641,#642,#643,#644));
#127=EDGE_LOOP('',(#645,#646,#647,#648));
#128=EDGE_LOOP('',(#649,#650,#651,#652));
#129=EDGE_LOOP('',(#653,#654,#655,#656));
#130=EDGE_LOOP('',(#657,#658,#659,#660));
#131=EDGE_LOOP('',(#661,#662,#663,#664));
#132=EDGE_LOOP('',(#665,#666,#667,#668));
#133=EDGE_LOOP('',(#669,#670,#671,#672));
#134=EDGE_LOOP('',(#673,#674,#675,#676));
#135=EDGE_LOOP('',(#677,#678,#679,#680));
#136=EDGE_LOOP('',(#681,#682,#683,#684));
#137=EDGE_LOOP('',(#685,#686,#687,#688));
#138=EDGE_LOOP('',(#689,#690,#691,#692));
#139=EDGE_LOOP('',(#693,#694,#695,#696));
#140=EDGE_LOOP('',(#697,#698,#699,#700));
#141=EDGE_LOOP('',(#701,#702,#703,#704));
#142=EDGE_LOOP('',(#705,#706,#707,#708));
#143=EDGE_LOOP('',(#709,#710,#711,#712));
#144=EDGE_LOOP('',(#713,#714,#715,#716));
#145=EDGE_LOOP('',(#717,#718,#719,#720));
#146=EDGE_LOOP('',(#721,#722,#723,#724));
#147=EDGE_LOOP('',(#725,#726,#727,#728));
#148=EDGE_LOOP('',(#729,#730,#731,#732,#733,#734,#735,#736,#737,#738,#739,
#740,#741,#742,#743,#744,#745,#746,#747,#748,#749,#750,#751,#752,#753,#754,
#755,#756,#757,#758,#759,#760));
#149=EDGE_LOOP('',(#761));
#150=EDGE_LOOP('',(#762));
#151=EDGE_LOOP('',(#763));
#152=EDGE_LOOP('',(#764));
#153=LINE('',#1162,#225);
#154=LINE('',#1166,#226);
#155=LINE('',#1172,#227);
#156=LINE('',#1176,#228);
#157=LINE('',#1182,#229);
#158=LINE('',#1186,#230);
#159=LINE('',#1192,#231);
#160=LINE('',#1196,#232);
#161=LINE('',#1203,#233);
#162=LINE('',#1206,#234);
#163=LINE('',#1209,#235);
#164=LINE('',#1211,#236);
#165=LINE('',#1212,#237);
#166=LINE('',#1218,#238);
#167=LINE('',#1221,#239);
#168=LINE('',#1223,#240);
#169=LINE('',#1224,#241);
#170=LINE('',#1230,#242);
#171=LINE('',#1233,#243);
#172=LINE('',#1236,#244);
#173=LINE('',#1238,#245);
#174=LINE('',#1239,#246);
#175=LINE('',#1245,#247);
#176=LINE('',#1248,#248);
#177=LINE('',#1250,#249);
#178=LINE('',#1251,#250);
#179=LINE('',#1257,#251);
#180=LINE('',#1260,#252);
#181=LINE('',#1262,#253);
#182=LINE('',#1263,#254);
#183=LINE('',#1266,#255);
#184=LINE('',#1270,#256);
#185=LINE('',#1274,#257);
#186=LINE('',#1278,#258);
#187=LINE('',#1282,#259);
#188=LINE('',#1286,#260);
#189=LINE('',#1289,#261);
#190=LINE('',#1293,#262);
#191=LINE('',#1297,#263);
#192=LINE('',#1301,#264);
#193=LINE('',#1305,#265);
#194=LINE('',#1311,#266);
#195=LINE('',#1312,#267);
#196=LINE('',#1315,#268);
#197=LINE('',#1316,#269);
#198=LINE('',#1320,#270);
#199=LINE('',#1325,#271);
#200=LINE('',#1326,#272);
#201=LINE('',#1329,#273);
#202=LINE('',#1330,#274);
#203=LINE('',#1334,#275);
#204=LINE('',#1339,#276);
#205=LINE('',#1340,#277);
#206=LINE('',#1343,#278);
#207=LINE('',#1344,#279);
#208=LINE('',#1351,#280);
#209=LINE('',#1352,#281);
#210=LINE('',#1355,#282);
#211=LINE('',#1356,#283);
#212=LINE('',#1360,#284);
#213=LINE('',#1365,#285);
#214=LINE('',#1366,#286);
#215=LINE('',#1369,#287);
#216=LINE('',#1370,#288);
#217=LINE('',#1374,#289);
#218=LINE('',#1378,#290);
#219=LINE('',#1380,#291);
#220=LINE('',#1382,#292);
#221=LINE('',#1384,#293);
#222=LINE('',#1386,#294);
#223=LINE('',#1388,#295);
#224=LINE('',#1390,#296);
#225=VECTOR('',#917,3.225);
#226=VECTOR('',#922,2.15);
#227=VECTOR('',#929,3.225);
#228=VECTOR('',#934,2.15);
#229=VECTOR('',#941,3.225);
#230=VECTOR('',#946,2.15);
#231=VECTOR('',#953,3.225);
#232=VECTOR('',#958,2.15);
#233=VECTOR('',#965,10.);
#234=VECTOR('',#968,10.);
#235=VECTOR('',#971,10.);
#236=VECTOR('',#972,10.);
#237=VECTOR('',#973,10.);
#238=VECTOR('',#978,10.);
#239=VECTOR('',#981,10.);
#240=VECTOR('',#984,10.);
#241=VECTOR('',#985,10.);
#242=VECTOR('',#990,10.);
#243=VECTOR('',#993,10.);
#244=VECTOR('',#996,10.);
#245=VECTOR('',#997,10.);
#246=VECTOR('',#998,10.);
#247=VECTOR('',#1003,10.);
#248=VECTOR('',#1006,10.);
#249=VECTOR('',#1009,10.);
#250=VECTOR('',#1010,10.);
#251=VECTOR('',#1017,10.);
#252=VECTOR('',#1020,10.);
#253=VECTOR('',#1021,10.);
#254=VECTOR('',#1022,10.);
#255=VECTOR('',#1025,10.);
#256=VECTOR('',#1028,10.);
#257=VECTOR('',#1031,10.);
#258=VECTOR('',#1034,10.);
#259=VECTOR('',#1037,10.);
#260=VECTOR('',#1040,10.);
#261=VECTOR('',#1043,10.);
#262=VECTOR('',#1046,10.);
#263=VECTOR('',#1049,10.);
#264=VECTOR('',#1052,10.);
#265=VECTOR('',#1055,10.);
#266=VECTOR('',#1062,10.);
#267=VECTOR('',#1063,10.);
#268=VECTOR('',#1066,10.);
#269=VECTOR('',#1067,10.);
#270=VECTOR('',#1072,10.);
#271=VECTOR('',#1077,10.);
#272=VECTOR('',#1078,10.);
#273=VECTOR('',#1081,10.);
#274=VECTOR('',#1082,10.);
#275=VECTOR('',#1087,10.);
#276=VECTOR('',#1092,10.);
#277=VECTOR('',#1093,10.);
#278=VECTOR('',#1096,10.);
#279=VECTOR('',#1097,10.);
#280=VECTOR('',#1106,10.);
#281=VECTOR('',#1107,10.);
#282=VECTOR('',#1110,10.);
#283=VECTOR('',#1111,10.);
#284=VECTOR('',#1116,10.);
#285=VECTOR('',#1121,10.);
#286=VECTOR('',#1122,10.);
#287=VECTOR('',#1125,10.);
#288=VECTOR('',#1126,10.);
#289=VECTOR('',#1131,10.);
#290=VECTOR('',#1136,10.);
#291=VECTOR('',#1139,10.);
#292=VECTOR('',#1142,10.);
#293=VECTOR('',#1145,10.);
#294=VECTOR('',#1148,10.);
#295=VECTOR('',#1151,10.);
#296=VECTOR('',#1154,10.);
#297=CIRCLE('',#826,4.3);
#298=CIRCLE('',#827,2.15);
#299=CIRCLE('',#829,2.15);
#300=CIRCLE('',#831,4.3);
#301=CIRCLE('',#832,2.15);
#302=CIRCLE('',#834,2.15);
#303=CIRCLE('',#836,4.3);
#304=CIRCLE('',#837,2.15);
#305=CIRCLE('',#839,2.15);
#306=CIRCLE('',#841,4.3);
#307=CIRCLE('',#842,2.15);
#308=CIRCLE('',#844,2.15);
#309=CIRCLE('',#846,3.2);
#310=CIRCLE('',#847,3.2);
#311=CIRCLE('',#850,3.2);
#312=CIRCLE('',#851,3.2);
#313=CIRCLE('',#854,3.2);
#314=CIRCLE('',#855,3.2);
#315=CIRCLE('',#858,3.2);
#316=CIRCLE('',#859,3.2);
#317=CIRCLE('',#862,2.);
#318=CIRCLE('',#863,2.);
#319=CIRCLE('',#866,2.);
#320=CIRCLE('',#867,2.);
#321=CIRCLE('',#868,2.);
#322=CIRCLE('',#869,2.);
#323=CIRCLE('',#870,2.);
#324=CIRCLE('',#871,2.);
#325=CIRCLE('',#872,2.);
#326=CIRCLE('',#873,2.);
#327=CIRCLE('',#874,2.);
#328=CIRCLE('',#875,2.);
#329=CIRCLE('',#876,2.);
#330=CIRCLE('',#878,2.);
#331=CIRCLE('',#881,2.);
#332=CIRCLE('',#883,2.);
#333=CIRCLE('',#886,2.);
#334=CIRCLE('',#888,2.);
#335=CIRCLE('',#891,2.);
#336=CIRCLE('',#893,2.);
#337=CIRCLE('',#896,2.);
#338=CIRCLE('',#898,2.);
#339=CIRCLE('',#901,2.);
#340=CIRCLE('',#903,2.);
#341=VERTEX_POINT('',#1159);
#342=VERTEX_POINT('',#1161);
#343=VERTEX_POINT('',#1165);
#344=VERTEX_POINT('',#1169);
#345=VERTEX_POINT('',#1171);
#346=VERTEX_POINT('',#1175);
#347=VERTEX_POINT('',#1179);
#348=VERTEX_POINT('',#1181);
#349=VERTEX_POINT('',#1185);
#350=VERTEX_POINT('',#1189);
#351=VERTEX_POINT('',#1191);
#352=VERTEX_POINT('',#1195);
#353=VERTEX_POINT('',#1199);
#354=VERTEX_POINT('',#1200);
#355=VERTEX_POINT('',#1202);
#356=VERTEX_POINT('',#1204);
#357=VERTEX_POINT('',#1208);
#358=VERTEX_POINT('',#1210);
#359=VERTEX_POINT('',#1214);
#360=VERTEX_POINT('',#1215);
#361=VERTEX_POINT('',#1217);
#362=VERTEX_POINT('',#1219);
#363=VERTEX_POINT('',#1226);
#364=VERTEX_POINT('',#1227);
#365=VERTEX_POINT('',#1229);
#366=VERTEX_POINT('',#1231);
#367=VERTEX_POINT('',#1235);
#368=VERTEX_POINT('',#1237);
#369=VERTEX_POINT('',#1241);
#370=VERTEX_POINT('',#1242);
#371=VERTEX_POINT('',#1244);
#372=VERTEX_POINT('',#1246);
#373=VERTEX_POINT('',#1253);
#374=VERTEX_POINT('',#1255);
#375=VERTEX_POINT('',#1259);
#376=VERTEX_POINT('',#1261);
#377=VERTEX_POINT('',#1265);
#378=VERTEX_POINT('',#1267);
#379=VERTEX_POINT('',#1269);
#380=VERTEX_POINT('',#1271);
#381=VERTEX_POINT('',#1273);
#382=VERTEX_POINT('',#1275);
#383=VERTEX_POINT('',#1277);
#384=VERTEX_POINT('',#1279);
#385=VERTEX_POINT('',#1281);
#386=VERTEX_POINT('',#1283);
#387=VERTEX_POINT('',#1285);
#388=VERTEX_POINT('',#1288);
#389=VERTEX_POINT('',#1290);
#390=VERTEX_POINT('',#1292);
#391=VERTEX_POINT('',#1294);
#392=VERTEX_POINT('',#1296);
#393=VERTEX_POINT('',#1298);
#394=VERTEX_POINT('',#1300);
#395=VERTEX_POINT('',#1302);
#396=VERTEX_POINT('',#1304);
#397=VERTEX_POINT('',#1308);
#398=VERTEX_POINT('',#1309);
#399=VERTEX_POINT('',#1314);
#400=VERTEX_POINT('',#1318);
#401=VERTEX_POINT('',#1322);
#402=VERTEX_POINT('',#1323);
#403=VERTEX_POINT('',#1328);
#404=VERTEX_POINT('',#1332);
#405=VERTEX_POINT('',#1336);
#406=VERTEX_POINT('',#1337);
#407=VERTEX_POINT('',#1342);
#408=VERTEX_POINT('',#1348);
#409=VERTEX_POINT('',#1349);
#410=VERTEX_POINT('',#1354);
#411=VERTEX_POINT('',#1358);
#412=VERTEX_POINT('',#1362);
#413=VERTEX_POINT('',#1363);
#414=VERTEX_POINT('',#1368);
#415=VERTEX_POINT('',#1372);
#416=VERTEX_POINT('',#1376);
#417=EDGE_CURVE('',#341,#341,#297,.T.);
#418=EDGE_CURVE('',#341,#342,#153,.T.);
#419=EDGE_CURVE('',#342,#342,#298,.T.);
#420=EDGE_CURVE('',#342,#343,#154,.T.);
#421=EDGE_CURVE('',#343,#343,#299,.T.);
#422=EDGE_CURVE('',#344,#344,#300,.T.);
#423=EDGE_CURVE('',#344,#345,#155,.T.);
#424=EDGE_CURVE('',#345,#345,#301,.T.);
#425=EDGE_CURVE('',#345,#346,#156,.T.);
#426=EDGE_CURVE('',#346,#346,#302,.T.);
#427=EDGE_CURVE('',#347,#347,#303,.T.);
#428=EDGE_CURVE('',#347,#348,#157,.T.);
#429=EDGE_CURVE('',#348,#348,#304,.T.);
#430=EDGE_CURVE('',#348,#349,#158,.T.);
#431=EDGE_CURVE('',#349,#349,#305,.T.);
#432=EDGE_CURVE('',#350,#350,#306,.T.);
#433=EDGE_CURVE('',#350,#351,#159,.T.);
#434=EDGE_CURVE('',#351,#351,#307,.T.);
#435=EDGE_CURVE('',#351,#352,#160,.T.);
#436=EDGE_CURVE('',#352,#352,#308,.T.);
#437=EDGE_CURVE('',#353,#354,#309,.T.);
#438=EDGE_CURVE('',#354,#355,#161,.T.);
#439=EDGE_CURVE('',#355,#356,#310,.T.);
#440=EDGE_CURVE('',#356,#353,#162,.T.);
#441=EDGE_CURVE('',#354,#357,#163,.T.);
#442=EDGE_CURVE('',#358,#357,#164,.T.);
#443=EDGE_CURVE('',#355,#358,#165,.T.);
#444=EDGE_CURVE('',#359,#360,#311,.T.);
#445=EDGE_CURVE('',#360,#361,#166,.T.);
#446=EDGE_CURVE('',#361,#362,#312,.T.);
#447=EDGE_CURVE('',#362,#359,#167,.T.);
#448=EDGE_CURVE('',#361,#356,#168,.T.);
#449=EDGE_CURVE('',#360,#353,#169,.T.);
#450=EDGE_CURVE('',#363,#364,#313,.T.);
#451=EDGE_CURVE('',#364,#365,#170,.T.);
#452=EDGE_CURVE('',#365,#366,#314,.T.);
#453=EDGE_CURVE('',#366,#363,#171,.T.);
#454=EDGE_CURVE('',#367,#364,#172,.T.);
#455=EDGE_CURVE('',#368,#367,#173,.T.);
#456=EDGE_CURVE('',#365,#368,#174,.T.);
#457=EDGE_CURVE('',#369,#370,#315,.T.);
#458=EDGE_CURVE('',#370,#371,#175,.T.);
#459=EDGE_CURVE('',#371,#372,#316,.T.);
#460=EDGE_CURVE('',#372,#369,#176,.T.);
#461=EDGE_CURVE('',#371,#366,#177,.T.);
#462=EDGE_CURVE('',#363,#370,#178,.T.);
#463=EDGE_CURVE('',#373,#358,#317,.T.);
#464=EDGE_CURVE('',#357,#374,#318,.T.);
#465=EDGE_CURVE('',#374,#373,#179,.T.);
#466=EDGE_CURVE('',#374,#375,#180,.T.);
#467=EDGE_CURVE('',#376,#375,#181,.T.);
#468=EDGE_CURVE('',#373,#376,#182,.T.);
#469=EDGE_CURVE('',#377,#359,#183,.T.);
#470=EDGE_CURVE('',#378,#377,#319,.T.);
#471=EDGE_CURVE('',#379,#378,#184,.T.);
#472=EDGE_CURVE('',#380,#379,#320,.T.);
#473=EDGE_CURVE('',#381,#380,#185,.T.);
#474=EDGE_CURVE('',#382,#381,#321,.T.);
#475=EDGE_CURVE('',#383,#382,#186,.T.);
#476=EDGE_CURVE('',#384,#383,#322,.T.);
#477=EDGE_CURVE('',#384,#385,#187,.T.);
#478=EDGE_CURVE('',#386,#385,#323,.T.);
#479=EDGE_CURVE('',#387,#386,#188,.T.);
#480=EDGE_CURVE('',#367,#387,#324,.T.);
#481=EDGE_CURVE('',#369,#388,#189,.T.);
#482=EDGE_CURVE('',#389,#388,#325,.T.);
#483=EDGE_CURVE('',#390,#389,#190,.T.);
#484=EDGE_CURVE('',#391,#390,#326,.T.);
#485=EDGE_CURVE('',#391,#392,#191,.T.);
#486=EDGE_CURVE('',#393,#392,#327,.T.);
#487=EDGE_CURVE('',#394,#393,#192,.T.);
#488=EDGE_CURVE('',#395,#394,#328,.T.);
#489=EDGE_CURVE('',#395,#396,#193,.T.);
#490=EDGE_CURVE('',#375,#396,#329,.T.);
#491=EDGE_CURVE('',#397,#398,#330,.T.);
#492=EDGE_CURVE('',#398,#378,#194,.T.);
#493=EDGE_CURVE('',#377,#397,#195,.T.);
#494=EDGE_CURVE('',#399,#398,#196,.T.);
#495=EDGE_CURVE('',#379,#399,#197,.T.);
#496=EDGE_CURVE('',#399,#400,#331,.T.);
#497=EDGE_CURVE('',#400,#380,#198,.T.);
#498=EDGE_CURVE('',#401,#402,#332,.T.);
#499=EDGE_CURVE('',#402,#382,#199,.T.);
#500=EDGE_CURVE('',#381,#401,#200,.T.);
#501=EDGE_CURVE('',#403,#402,#201,.T.);
#502=EDGE_CURVE('',#383,#403,#202,.T.);
#503=EDGE_CURVE('',#403,#404,#333,.T.);
#504=EDGE_CURVE('',#404,#384,#203,.T.);
#505=EDGE_CURVE('',#405,#406,#334,.T.);
#506=EDGE_CURVE('',#406,#386,#204,.T.);
#507=EDGE_CURVE('',#385,#405,#205,.T.);
#508=EDGE_CURVE('',#407,#406,#206,.T.);
#509=EDGE_CURVE('',#387,#407,#207,.T.);
#510=EDGE_CURVE('',#407,#368,#335,.T.);
#511=EDGE_CURVE('',#408,#409,#336,.T.);
#512=EDGE_CURVE('',#409,#389,#208,.T.);
#513=EDGE_CURVE('',#388,#408,#209,.T.);
#514=EDGE_CURVE('',#410,#409,#210,.T.);
#515=EDGE_CURVE('',#390,#410,#211,.T.);
#516=EDGE_CURVE('',#410,#411,#337,.T.);
#517=EDGE_CURVE('',#411,#391,#212,.T.);
#518=EDGE_CURVE('',#412,#413,#338,.T.);
#519=EDGE_CURVE('',#413,#393,#213,.T.);
#520=EDGE_CURVE('',#392,#412,#214,.T.);
#521=EDGE_CURVE('',#414,#413,#215,.T.);
#522=EDGE_CURVE('',#394,#414,#216,.T.);
#523=EDGE_CURVE('',#414,#415,#339,.T.);
#524=EDGE_CURVE('',#415,#395,#217,.T.);
#525=EDGE_CURVE('',#416,#376,#340,.T.);
#526=EDGE_CURVE('',#396,#416,#218,.T.);
#527=EDGE_CURVE('',#405,#404,#219,.T.);
#528=EDGE_CURVE('',#408,#372,#220,.T.);
#529=EDGE_CURVE('',#412,#411,#221,.T.);
#530=EDGE_CURVE('',#416,#415,#222,.T.);
#531=EDGE_CURVE('',#397,#362,#223,.T.);
#532=EDGE_CURVE('',#401,#400,#224,.T.);
#533=ORIENTED_EDGE('',*,*,#417,.F.);
#534=ORIENTED_EDGE('',*,*,#418,.T.);
#535=ORIENTED_EDGE('',*,*,#419,.T.);
#536=ORIENTED_EDGE('',*,*,#418,.F.);
#537=ORIENTED_EDGE('',*,*,#419,.F.);
#538=ORIENTED_EDGE('',*,*,#420,.T.);
#539=ORIENTED_EDGE('',*,*,#421,.F.);
#540=ORIENTED_EDGE('',*,*,#420,.F.);
#541=ORIENTED_EDGE('',*,*,#422,.F.);
#542=ORIENTED_EDGE('',*,*,#423,.T.);
#543=ORIENTED_EDGE('',*,*,#424,.T.);
#544=ORIENTED_EDGE('',*,*,#423,.F.);
#545=ORIENTED_EDGE('',*,*,#424,.F.);
#546=ORIENTED_EDGE('',*,*,#425,.T.);
#547=ORIENTED_EDGE('',*,*,#426,.F.);
#548=ORIENTED_EDGE('',*,*,#425,.F.);
#549=ORIENTED_EDGE('',*,*,#427,.F.);
#550=ORIENTED_EDGE('',*,*,#428,.T.);
#551=ORIENTED_EDGE('',*,*,#429,.T.);
#552=ORIENTED_EDGE('',*,*,#428,.F.);
#553=ORIENTED_EDGE('',*,*,#429,.F.);
#554=ORIENTED_EDGE('',*,*,#430,.T.);
#555=ORIENTED_EDGE('',*,*,#431,.F.);
#556=ORIENTED_EDGE('',*,*,#430,.F.);
#557=ORIENTED_EDGE('',*,*,#432,.F.);
#558=ORIENTED_EDGE('',*,*,#433,.T.);
#559=ORIENTED_EDGE('',*,*,#434,.T.);
#560=ORIENTED_EDGE('',*,*,#433,.F.);
#561=ORIENTED_EDGE('',*,*,#434,.F.);
#562=ORIENTED_EDGE('',*,*,#435,.T.);
#563=ORIENTED_EDGE('',*,*,#436,.F.);
#564=ORIENTED_EDGE('',*,*,#435,.F.);
#565=ORIENTED_EDGE('',*,*,#437,.T.);
#566=ORIENTED_EDGE('',*,*,#438,.T.);
#567=ORIENTED_EDGE('',*,*,#439,.T.);
#568=ORIENTED_EDGE('',*,*,#440,.T.);
#569=ORIENTED_EDGE('',*,*,#438,.F.);
#570=ORIENTED_EDGE('',*,*,#441,.T.);
#571=ORIENTED_EDGE('',*,*,#442,.F.);
#572=ORIENTED_EDGE('',*,*,#443,.F.);
#573=ORIENTED_EDGE('',*,*,#444,.T.);
#574=ORIENTED_EDGE('',*,*,#445,.T.);
#575=ORIENTED_EDGE('',*,*,#446,.T.);
#576=ORIENTED_EDGE('',*,*,#447,.T.);
#577=ORIENTED_EDGE('',*,*,#440,.F.);
#578=ORIENTED_EDGE('',*,*,#448,.F.);
#579=ORIENTED_EDGE('',*,*,#445,.F.);
#580=ORIENTED_EDGE('',*,*,#449,.T.);
#581=ORIENTED_EDGE('',*,*,#450,.T.);
#582=ORIENTED_EDGE('',*,*,#451,.T.);
#583=ORIENTED_EDGE('',*,*,#452,.T.);
#584=ORIENTED_EDGE('',*,*,#453,.T.);
#585=ORIENTED_EDGE('',*,*,#451,.F.);
#586=ORIENTED_EDGE('',*,*,#454,.F.);
#587=ORIENTED_EDGE('',*,*,#455,.F.);
#588=ORIENTED_EDGE('',*,*,#456,.F.);
#589=ORIENTED_EDGE('',*,*,#457,.T.);
#590=ORIENTED_EDGE('',*,*,#458,.T.);
#591=ORIENTED_EDGE('',*,*,#459,.T.);
#592=ORIENTED_EDGE('',*,*,#460,.T.);
#593=ORIENTED_EDGE('',*,*,#453,.F.);
#594=ORIENTED_EDGE('',*,*,#461,.F.);
#595=ORIENTED_EDGE('',*,*,#458,.F.);
#596=ORIENTED_EDGE('',*,*,#462,.F.);
#597=ORIENTED_EDGE('',*,*,#463,.T.);
#598=ORIENTED_EDGE('',*,*,#442,.T.);
#599=ORIENTED_EDGE('',*,*,#464,.T.);
#600=ORIENTED_EDGE('',*,*,#465,.T.);
#601=ORIENTED_EDGE('',*,*,#465,.F.);
#602=ORIENTED_EDGE('',*,*,#466,.T.);
#603=ORIENTED_EDGE('',*,*,#467,.F.);
#604=ORIENTED_EDGE('',*,*,#468,.F.);
#605=ORIENTED_EDGE('',*,*,#464,.F.);
#606=ORIENTED_EDGE('',*,*,#441,.F.);
#607=ORIENTED_EDGE('',*,*,#437,.F.);
#608=ORIENTED_EDGE('',*,*,#449,.F.);
#609=ORIENTED_EDGE('',*,*,#444,.F.);
#610=ORIENTED_EDGE('',*,*,#469,.F.);
#611=ORIENTED_EDGE('',*,*,#470,.F.);
#612=ORIENTED_EDGE('',*,*,#471,.F.);
#613=ORIENTED_EDGE('',*,*,#472,.F.);
#614=ORIENTED_EDGE('',*,*,#473,.F.);
#615=ORIENTED_EDGE('',*,*,#474,.F.);
#616=ORIENTED_EDGE('',*,*,#475,.F.);
#617=ORIENTED_EDGE('',*,*,#476,.F.);
#618=ORIENTED_EDGE('',*,*,#477,.T.);
#619=ORIENTED_EDGE('',*,*,#478,.F.);
#620=ORIENTED_EDGE('',*,*,#479,.F.);
#621=ORIENTED_EDGE('',*,*,#480,.F.);
#622=ORIENTED_EDGE('',*,*,#454,.T.);
#623=ORIENTED_EDGE('',*,*,#450,.F.);
#624=ORIENTED_EDGE('',*,*,#462,.T.);
#625=ORIENTED_EDGE('',*,*,#457,.F.);
#626=ORIENTED_EDGE('',*,*,#481,.T.);
#627=ORIENTED_EDGE('',*,*,#482,.F.);
#628=ORIENTED_EDGE('',*,*,#483,.F.);
#629=ORIENTED_EDGE('',*,*,#484,.F.);
#630=ORIENTED_EDGE('',*,*,#485,.T.);
#631=ORIENTED_EDGE('',*,*,#486,.F.);
#632=ORIENTED_EDGE('',*,*,#487,.F.);
#633=ORIENTED_EDGE('',*,*,#488,.F.);
#634=ORIENTED_EDGE('',*,*,#489,.T.);
#635=ORIENTED_EDGE('',*,*,#490,.F.);
#636=ORIENTED_EDGE('',*,*,#466,.F.);
#637=ORIENTED_EDGE('',*,*,#421,.T.);
#638=ORIENTED_EDGE('',*,*,#426,.T.);
#639=ORIENTED_EDGE('',*,*,#431,.T.);
#640=ORIENTED_EDGE('',*,*,#436,.T.);
#641=ORIENTED_EDGE('',*,*,#491,.T.);
#642=ORIENTED_EDGE('',*,*,#492,.T.);
#643=ORIENTED_EDGE('',*,*,#470,.T.);
#644=ORIENTED_EDGE('',*,*,#493,.T.);
#645=ORIENTED_EDGE('',*,*,#492,.F.);
#646=ORIENTED_EDGE('',*,*,#494,.F.);
#647=ORIENTED_EDGE('',*,*,#495,.F.);
#648=ORIENTED_EDGE('',*,*,#471,.T.);
#649=ORIENTED_EDGE('',*,*,#496,.T.);
#650=ORIENTED_EDGE('',*,*,#497,.T.);
#651=ORIENTED_EDGE('',*,*,#472,.T.);
#652=ORIENTED_EDGE('',*,*,#495,.T.);
#653=ORIENTED_EDGE('',*,*,#498,.T.);
#654=ORIENTED_EDGE('',*,*,#499,.T.);
#655=ORIENTED_EDGE('',*,*,#474,.T.);
#656=ORIENTED_EDGE('',*,*,#500,.T.);
#657=ORIENTED_EDGE('',*,*,#499,.F.);
#658=ORIENTED_EDGE('',*,*,#501,.F.);
#659=ORIENTED_EDGE('',*,*,#502,.F.);
#660=ORIENTED_EDGE('',*,*,#475,.T.);
#661=ORIENTED_EDGE('',*,*,#503,.T.);
#662=ORIENTED_EDGE('',*,*,#504,.T.);
#663=ORIENTED_EDGE('',*,*,#476,.T.);
#664=ORIENTED_EDGE('',*,*,#502,.T.);
#665=ORIENTED_EDGE('',*,*,#505,.T.);
#666=ORIENTED_EDGE('',*,*,#506,.T.);
#667=ORIENTED_EDGE('',*,*,#478,.T.);
#668=ORIENTED_EDGE('',*,*,#507,.T.);
#669=ORIENTED_EDGE('',*,*,#506,.F.);
#670=ORIENTED_EDGE('',*,*,#508,.F.);
#671=ORIENTED_EDGE('',*,*,#509,.F.);
#672=ORIENTED_EDGE('',*,*,#479,.T.);
#673=ORIENTED_EDGE('',*,*,#510,.T.);
#674=ORIENTED_EDGE('',*,*,#455,.T.);
#675=ORIENTED_EDGE('',*,*,#480,.T.);
#676=ORIENTED_EDGE('',*,*,#509,.T.);
#677=ORIENTED_EDGE('',*,*,#511,.T.);
#678=ORIENTED_EDGE('',*,*,#512,.T.);
#679=ORIENTED_EDGE('',*,*,#482,.T.);
#680=ORIENTED_EDGE('',*,*,#513,.T.);
#681=ORIENTED_EDGE('',*,*,#512,.F.);
#682=ORIENTED_EDGE('',*,*,#514,.F.);
#683=ORIENTED_EDGE('',*,*,#515,.F.);
#684=ORIENTED_EDGE('',*,*,#483,.T.);
#685=ORIENTED_EDGE('',*,*,#516,.T.);
#686=ORIENTED_EDGE('',*,*,#517,.T.);
#687=ORIENTED_EDGE('',*,*,#484,.T.);
#688=ORIENTED_EDGE('',*,*,#515,.T.);
#689=ORIENTED_EDGE('',*,*,#518,.T.);
#690=ORIENTED_EDGE('',*,*,#519,.T.);
#691=ORIENTED_EDGE('',*,*,#486,.T.);
#692=ORIENTED_EDGE('',*,*,#520,.T.);
#693=ORIENTED_EDGE('',*,*,#519,.F.);
#694=ORIENTED_EDGE('',*,*,#521,.F.);
#695=ORIENTED_EDGE('',*,*,#522,.F.);
#696=ORIENTED_EDGE('',*,*,#487,.T.);
#697=ORIENTED_EDGE('',*,*,#523,.T.);
#698=ORIENTED_EDGE('',*,*,#524,.T.);
#699=ORIENTED_EDGE('',*,*,#488,.T.);
#700=ORIENTED_EDGE('',*,*,#522,.T.);
#701=ORIENTED_EDGE('',*,*,#525,.T.);
#702=ORIENTED_EDGE('',*,*,#467,.T.);
#703=ORIENTED_EDGE('',*,*,#490,.T.);
#704=ORIENTED_EDGE('',*,*,#526,.T.);
#705=ORIENTED_EDGE('',*,*,#504,.F.);
#706=ORIENTED_EDGE('',*,*,#527,.F.);
#707=ORIENTED_EDGE('',*,*,#507,.F.);
#708=ORIENTED_EDGE('',*,*,#477,.F.);
#709=ORIENTED_EDGE('',*,*,#460,.F.);
#710=ORIENTED_EDGE('',*,*,#528,.F.);
#711=ORIENTED_EDGE('',*,*,#513,.F.);
#712=ORIENTED_EDGE('',*,*,#481,.F.);
#713=ORIENTED_EDGE('',*,*,#517,.F.);
#714=ORIENTED_EDGE('',*,*,#529,.F.);
#715=ORIENTED_EDGE('',*,*,#520,.F.);
#716=ORIENTED_EDGE('',*,*,#485,.F.);
#717=ORIENTED_EDGE('',*,*,#524,.F.);
#718=ORIENTED_EDGE('',*,*,#530,.F.);
#719=ORIENTED_EDGE('',*,*,#526,.F.);
#720=ORIENTED_EDGE('',*,*,#489,.F.);
#721=ORIENTED_EDGE('',*,*,#447,.F.);
#722=ORIENTED_EDGE('',*,*,#531,.F.);
#723=ORIENTED_EDGE('',*,*,#493,.F.);
#724=ORIENTED_EDGE('',*,*,#469,.T.);
#725=ORIENTED_EDGE('',*,*,#497,.F.);
#726=ORIENTED_EDGE('',*,*,#532,.F.);
#727=ORIENTED_EDGE('',*,*,#500,.F.);
#728=ORIENTED_EDGE('',*,*,#473,.T.);
#729=ORIENTED_EDGE('',*,*,#463,.F.);
#730=ORIENTED_EDGE('',*,*,#468,.T.);
#731=ORIENTED_EDGE('',*,*,#525,.F.);
#732=ORIENTED_EDGE('',*,*,#530,.T.);
#733=ORIENTED_EDGE('',*,*,#523,.F.);
#734=ORIENTED_EDGE('',*,*,#521,.T.);
#735=ORIENTED_EDGE('',*,*,#518,.F.);
#736=ORIENTED_EDGE('',*,*,#529,.T.);
#737=ORIENTED_EDGE('',*,*,#516,.F.);
#738=ORIENTED_EDGE('',*,*,#514,.T.);
#739=ORIENTED_EDGE('',*,*,#511,.F.);
#740=ORIENTED_EDGE('',*,*,#528,.T.);
#741=ORIENTED_EDGE('',*,*,#459,.F.);
#742=ORIENTED_EDGE('',*,*,#461,.T.);
#743=ORIENTED_EDGE('',*,*,#452,.F.);
#744=ORIENTED_EDGE('',*,*,#456,.T.);
#745=ORIENTED_EDGE('',*,*,#510,.F.);
#746=ORIENTED_EDGE('',*,*,#508,.T.);
#747=ORIENTED_EDGE('',*,*,#505,.F.);
#748=ORIENTED_EDGE('',*,*,#527,.T.);
#749=ORIENTED_EDGE('',*,*,#503,.F.);
#750=ORIENTED_EDGE('',*,*,#501,.T.);
#751=ORIENTED_EDGE('',*,*,#498,.F.);
#752=ORIENTED_EDGE('',*,*,#532,.T.);
#753=ORIENTED_EDGE('',*,*,#496,.F.);
#754=ORIENTED_EDGE('',*,*,#494,.T.);
#755=ORIENTED_EDGE('',*,*,#491,.F.);
#756=ORIENTED_EDGE('',*,*,#531,.T.);
#757=ORIENTED_EDGE('',*,*,#446,.F.);
#758=ORIENTED_EDGE('',*,*,#448,.T.);
#759=ORIENTED_EDGE('',*,*,#439,.F.);
#760=ORIENTED_EDGE('',*,*,#443,.T.);
#761=ORIENTED_EDGE('',*,*,#417,.T.);
#762=ORIENTED_EDGE('',*,*,#422,.T.);
#763=ORIENTED_EDGE('',*,*,#427,.T.);
#764=ORIENTED_EDGE('',*,*,#432,.T.);
#765=CONICAL_SURFACE('',#825,3.225,0.785398163397448);
#766=CONICAL_SURFACE('',#830,3.225,0.785398163397448);
#767=CONICAL_SURFACE('',#835,3.225,0.785398163397448);
#768=CONICAL_SURFACE('',#840,3.225,0.785398163397448);
#769=ADVANCED_FACE('',(#61),#765,.F.);
#770=ADVANCED_FACE('',(#62),#41,.F.);
#771=ADVANCED_FACE('',(#63),#766,.F.);
#772=ADVANCED_FACE('',(#64),#42,.F.);
#773=ADVANCED_FACE('',(#65),#767,.F.);
#774=ADVANCED_FACE('',(#66),#43,.F.);
#775=ADVANCED_FACE('',(#67),#768,.F.);
#776=ADVANCED_FACE('',(#68),#44,.F.);
#777=ADVANCED_FACE('',(#69),#45,.F.);
#778=ADVANCED_FACE('',(#70),#23,.T.);
#779=ADVANCED_FACE('',(#71),#46,.F.);
#780=ADVANCED_FACE('',(#72),#24,.T.);
#781=ADVANCED_FACE('',(#73),#47,.F.);
#782=ADVANCED_FACE('',(#74),#25,.T.);
#783=ADVANCED_FACE('',(#75),#48,.F.);
#784=ADVANCED_FACE('',(#76),#26,.T.);
#785=ADVANCED_FACE('',(#77),#49,.T.);
#786=ADVANCED_FACE('',(#78),#27,.T.);
#787=ADVANCED_FACE('',(#79,#15,#16,#17,#18),#28,.F.);
#788=ADVANCED_FACE('',(#80),#50,.T.);
#789=ADVANCED_FACE('',(#81),#29,.T.);
#790=ADVANCED_FACE('',(#82),#51,.T.);
#791=ADVANCED_FACE('',(#83),#52,.T.);
#792=ADVANCED_FACE('',(#84),#30,.T.);
#793=ADVANCED_FACE('',(#85),#53,.T.);
#794=ADVANCED_FACE('',(#86),#54,.T.);
#795=ADVANCED_FACE('',(#87),#31,.T.);
#796=ADVANCED_FACE('',(#88),#55,.T.);
#797=ADVANCED_FACE('',(#89),#56,.T.);
#798=ADVANCED_FACE('',(#90),#32,.T.);
#799=ADVANCED_FACE('',(#91),#57,.T.);
#800=ADVANCED_FACE('',(#92),#58,.T.);
#801=ADVANCED_FACE('',(#93),#33,.T.);
#802=ADVANCED_FACE('',(#94),#59,.T.);
#803=ADVANCED_FACE('',(#95),#60,.T.);
#804=ADVANCED_FACE('',(#96),#34,.T.);
#805=ADVANCED_FACE('',(#97),#35,.T.);
#806=ADVANCED_FACE('',(#98),#36,.T.);
#807=ADVANCED_FACE('',(#99),#37,.T.);
#808=ADVANCED_FACE('',(#100),#38,.T.);
#809=ADVANCED_FACE('',(#101),#39,.T.);
#810=ADVANCED_FACE('',(#102,#19,#20,#21,#22),#40,.T.);
#811=CLOSED_SHELL('',(#769,#770,#771,#772,#773,#774,#775,#776,#777,#778,
#779,#780,#781,#782,#783,#784,#785,#786,#787,#788,#789,#790,#791,#792,#793,
#794,#795,#796,#797,#798,#799,#800,#801,#802,#803,#804,#805,#806,#807,#808,
#809,#810));
#812=DERIVED_UNIT_ELEMENT(#814,1.);
#813=DERIVED_UNIT_ELEMENT(#1397,-3.);
#814=(
MASS_UNIT()
NAMED_UNIT(*)
SI_UNIT(.KILO.,.GRAM.)
);
#815=DERIVED_UNIT((#812,#813));
#816=MEASURE_REPRESENTATION_ITEM('density measure',
POSITIVE_RATIO_MEASURE(7850.),#815);
#817=PROPERTY_DEFINITION_REPRESENTATION(#822,#819);
#818=PROPERTY_DEFINITION_REPRESENTATION(#823,#820);
#819=REPRESENTATION('material name',(#821),#1394);
#820=REPRESENTATION('density',(#816),#1394);
#821=DESCRIPTIVE_REPRESENTATION_ITEM('\X2\94A2\X0\','\X2\94A2\X0\');
#822=PROPERTY_DEFINITION('material property','material name',#1404);
#823=PROPERTY_DEFINITION('material property','density of part',#1404);
#824=AXIS2_PLACEMENT_3D('',#1157,#911,#912);
#825=AXIS2_PLACEMENT_3D('',#1158,#913,#914);
#826=AXIS2_PLACEMENT_3D('',#1160,#915,#916);
#827=AXIS2_PLACEMENT_3D('',#1163,#918,#919);
#828=AXIS2_PLACEMENT_3D('',#1164,#920,#921);
#829=AXIS2_PLACEMENT_3D('',#1167,#923,#924);
#830=AXIS2_PLACEMENT_3D('',#1168,#925,#926);
#831=AXIS2_PLACEMENT_3D('',#1170,#927,#928);
#832=AXIS2_PLACEMENT_3D('',#1173,#930,#931);
#833=AXIS2_PLACEMENT_3D('',#1174,#932,#933);
#834=AXIS2_PLACEMENT_3D('',#1177,#935,#936);
#835=AXIS2_PLACEMENT_3D('',#1178,#937,#938);
#836=AXIS2_PLACEMENT_3D('',#1180,#939,#940);
#837=AXIS2_PLACEMENT_3D('',#1183,#942,#943);
#838=AXIS2_PLACEMENT_3D('',#1184,#944,#945);
#839=AXIS2_PLACEMENT_3D('',#1187,#947,#948);
#840=AXIS2_PLACEMENT_3D('',#1188,#949,#950);
#841=AXIS2_PLACEMENT_3D('',#1190,#951,#952);
#842=AXIS2_PLACEMENT_3D('',#1193,#954,#955);
#843=AXIS2_PLACEMENT_3D('',#1194,#956,#957);
#844=AXIS2_PLACEMENT_3D('',#1197,#959,#960);
#845=AXIS2_PLACEMENT_3D('',#1198,#961,#962);
#846=AXIS2_PLACEMENT_3D('',#1201,#963,#964);
#847=AXIS2_PLACEMENT_3D('',#1205,#966,#967);
#848=AXIS2_PLACEMENT_3D('',#1207,#969,#970);
#849=AXIS2_PLACEMENT_3D('',#1213,#974,#975);
#850=AXIS2_PLACEMENT_3D('',#1216,#976,#977);
#851=AXIS2_PLACEMENT_3D('',#1220,#979,#980);
#852=AXIS2_PLACEMENT_3D('',#1222,#982,#983);
#853=AXIS2_PLACEMENT_3D('',#1225,#986,#987);
#854=AXIS2_PLACEMENT_3D('',#1228,#988,#989);
#855=AXIS2_PLACEMENT_3D('',#1232,#991,#992);
#856=AXIS2_PLACEMENT_3D('',#1234,#994,#995);
#857=AXIS2_PLACEMENT_3D('',#1240,#999,#1000);
#858=AXIS2_PLACEMENT_3D('',#1243,#1001,#1002);
#859=AXIS2_PLACEMENT_3D('',#1247,#1004,#1005);
#860=AXIS2_PLACEMENT_3D('',#1249,#1007,#1008);
#861=AXIS2_PLACEMENT_3D('',#1252,#1011,#1012);
#862=AXIS2_PLACEMENT_3D('',#1254,#1013,#1014);
#863=AXIS2_PLACEMENT_3D('',#1256,#1015,#1016);
#864=AXIS2_PLACEMENT_3D('',#1258,#1018,#1019);
#865=AXIS2_PLACEMENT_3D('',#1264,#1023,#1024);
#866=AXIS2_PLACEMENT_3D('',#1268,#1026,#1027);
#867=AXIS2_PLACEMENT_3D('',#1272,#1029,#1030);
#868=AXIS2_PLACEMENT_3D('',#1276,#1032,#1033);
#869=AXIS2_PLACEMENT_3D('',#1280,#1035,#1036);
#870=AXIS2_PLACEMENT_3D('',#1284,#1038,#1039);
#871=AXIS2_PLACEMENT_3D('',#1287,#1041,#1042);
#872=AXIS2_PLACEMENT_3D('',#1291,#1044,#1045);
#873=AXIS2_PLACEMENT_3D('',#1295,#1047,#1048);
#874=AXIS2_PLACEMENT_3D('',#1299,#1050,#1051);
#875=AXIS2_PLACEMENT_3D('',#1303,#1053,#1054);
#876=AXIS2_PLACEMENT_3D('',#1306,#1056,#1057);
#877=AXIS2_PLACEMENT_3D('',#1307,#1058,#1059);
#878=AXIS2_PLACEMENT_3D('',#1310,#1060,#1061);
#879=AXIS2_PLACEMENT_3D('',#1313,#1064,#1065);
#880=AXIS2_PLACEMENT_3D('',#1317,#1068,#1069);
#881=AXIS2_PLACEMENT_3D('',#1319,#1070,#1071);
#882=AXIS2_PLACEMENT_3D('',#1321,#1073,#1074);
#883=AXIS2_PLACEMENT_3D('',#1324,#1075,#1076);
#884=AXIS2_PLACEMENT_3D('',#1327,#1079,#1080);
#885=AXIS2_PLACEMENT_3D('',#1331,#1083,#1084);
#886=AXIS2_PLACEMENT_3D('',#1333,#1085,#1086);
#887=AXIS2_PLACEMENT_3D('',#1335,#1088,#1089);
#888=AXIS2_PLACEMENT_3D('',#1338,#1090,#1091);
#889=AXIS2_PLACEMENT_3D('',#1341,#1094,#1095);
#890=AXIS2_PLACEMENT_3D('',#1345,#1098,#1099);
#891=AXIS2_PLACEMENT_3D('',#1346,#1100,#1101);
#892=AXIS2_PLACEMENT_3D('',#1347,#1102,#1103);
#893=AXIS2_PLACEMENT_3D('',#1350,#1104,#1105);
#894=AXIS2_PLACEMENT_3D('',#1353,#1108,#1109);
#895=AXIS2_PLACEMENT_3D('',#1357,#1112,#1113);
#896=AXIS2_PLACEMENT_3D('',#1359,#1114,#1115);
#897=AXIS2_PLACEMENT_3D('',#1361,#1117,#1118);
#898=AXIS2_PLACEMENT_3D('',#1364,#1119,#1120);
#899=AXIS2_PLACEMENT_3D('',#1367,#1123,#1124);
#900=AXIS2_PLACEMENT_3D('',#1371,#1127,#1128);
#901=AXIS2_PLACEMENT_3D('',#1373,#1129,#1130);
#902=AXIS2_PLACEMENT_3D('',#1375,#1132,#1133);
#903=AXIS2_PLACEMENT_3D('',#1377,#1134,#1135);
#904=AXIS2_PLACEMENT_3D('',#1379,#1137,#1138);
#905=AXIS2_PLACEMENT_3D('',#1381,#1140,#1141);
#906=AXIS2_PLACEMENT_3D('',#1383,#1143,#1144);
#907=AXIS2_PLACEMENT_3D('',#1385,#1146,#1147);
#908=AXIS2_PLACEMENT_3D('',#1387,#1149,#1150);
#909=AXIS2_PLACEMENT_3D('',#1389,#1152,#1153);
#910=AXIS2_PLACEMENT_3D('',#1391,#1155,#1156);
#911=DIRECTION('axis',(0.,0.,1.));
#912=DIRECTION('refdir',(1.,0.,0.));
#913=DIRECTION('center_axis',(0.,0.,1.));
#914=DIRECTION('ref_axis',(1.,0.,0.));
#915=DIRECTION('center_axis',(0.,0.,-1.));
#916=DIRECTION('ref_axis',(1.,0.,0.));
#917=DIRECTION('',(0.707106781186547,-8.65956056235493E-17,-0.707106781186547));
#918=DIRECTION('center_axis',(0.,0.,-1.));
#919=DIRECTION('ref_axis',(1.,0.,0.));
#920=DIRECTION('center_axis',(0.,0.,-1.));
#921=DIRECTION('ref_axis',(1.,0.,0.));
#922=DIRECTION('',(0.,0.,-1.));
#923=DIRECTION('center_axis',(0.,0.,1.));
#924=DIRECTION('ref_axis',(1.,0.,0.));
#925=DIRECTION('center_axis',(0.,0.,1.));
#926=DIRECTION('ref_axis',(1.,0.,0.));
#927=DIRECTION('center_axis',(0.,0.,-1.));
#928=DIRECTION('ref_axis',(1.,0.,0.));
#929=DIRECTION('',(0.707106781186547,-8.65956056235493E-17,-0.707106781186547));
#930=DIRECTION('center_axis',(0.,0.,-1.));
#931=DIRECTION('ref_axis',(1.,0.,0.));
#932=DIRECTION('center_axis',(0.,0.,-1.));
#933=DIRECTION('ref_axis',(1.,0.,0.));
#934=DIRECTION('',(0.,0.,-1.));
#935=DIRECTION('center_axis',(0.,0.,1.));
#936=DIRECTION('ref_axis',(1.,0.,0.));
#937=DIRECTION('center_axis',(0.,0.,1.));
#938=DIRECTION('ref_axis',(1.,0.,0.));
#939=DIRECTION('center_axis',(0.,0.,-1.));
#940=DIRECTION('ref_axis',(1.,0.,0.));
#941=DIRECTION('',(0.707106781186547,-8.65956056235493E-17,-0.707106781186547));
#942=DIRECTION('center_axis',(0.,0.,-1.));
#943=DIRECTION('ref_axis',(1.,0.,0.));
#944=DIRECTION('center_axis',(0.,0.,-1.));
#945=DIRECTION('ref_axis',(1.,0.,0.));
#946=DIRECTION('',(0.,0.,-1.));
#947=DIRECTION('center_axis',(0.,0.,1.));
#948=DIRECTION('ref_axis',(1.,0.,0.));
#949=DIRECTION('center_axis',(0.,0.,1.));
#950=DIRECTION('ref_axis',(1.,0.,0.));
#951=DIRECTION('center_axis',(0.,0.,-1.));
#952=DIRECTION('ref_axis',(1.,0.,0.));
#953=DIRECTION('',(0.707106781186547,-8.65956056235493E-17,-0.707106781186547));
#954=DIRECTION('center_axis',(0.,0.,-1.));
#955=DIRECTION('ref_axis',(1.,0.,0.));
#956=DIRECTION('center_axis',(0.,0.,-1.));
#957=DIRECTION('ref_axis',(1.,0.,0.));
#958=DIRECTION('',(0.,0.,-1.));
#959=DIRECTION('center_axis',(0.,0.,1.));
#960=DIRECTION('ref_axis',(1.,0.,0.));
#961=DIRECTION('center_axis',(0.,0.,1.));
#962=DIRECTION('ref_axis',(0.923879532511288,-0.382683432365088,0.));
#963=DIRECTION('center_axis',(0.,0.,-1.));
#964=DIRECTION('ref_axis',(0.923879532511288,-0.382683432365088,0.));
#965=DIRECTION('',(0.,0.,1.));
#966=DIRECTION('center_axis',(0.,0.,1.));
#967=DIRECTION('ref_axis',(0.923879532511288,-0.382683432365088,0.));
#968=DIRECTION('',(0.,0.,-1.));
#969=DIRECTION('center_axis',(-0.70710678118655,0.707106781186545,0.));
#970=DIRECTION('ref_axis',(-0.707106781186545,-0.70710678118655,0.));
#971=DIRECTION('',(-0.707106781186545,-0.70710678118655,0.));
#972=DIRECTION('',(0.,0.,-1.));
#973=DIRECTION('',(-0.707106781186545,-0.70710678118655,0.));
#974=DIRECTION('center_axis',(0.,0.,1.));
#975=DIRECTION('ref_axis',(0.923879532511288,0.382683432365088,0.));
#976=DIRECTION('center_axis',(0.,0.,-1.));
#977=DIRECTION('ref_axis',(0.923879532511288,0.382683432365088,0.));
#978=DIRECTION('',(0.,0.,1.));
#979=DIRECTION('center_axis',(0.,0.,1.));
#980=DIRECTION('ref_axis',(0.923879532511288,0.382683432365088,0.));
#981=DIRECTION('',(0.,0.,-1.));
#982=DIRECTION('center_axis',(-1.,0.,0.));
#983=DIRECTION('ref_axis',(0.,-1.,0.));
#984=DIRECTION('',(0.,-1.,0.));
#985=DIRECTION('',(0.,-1.,0.));
#986=DIRECTION('center_axis',(0.,0.,1.));
#987=DIRECTION('ref_axis',(-0.923879532511288,0.382683432365088,0.));
#988=DIRECTION('center_axis',(0.,0.,-1.));
#989=DIRECTION('ref_axis',(-0.923879532511288,0.382683432365088,0.));
#990=DIRECTION('',(0.,0.,1.));
#991=DIRECTION('center_axis',(0.,0.,1.));
#992=DIRECTION('ref_axis',(-0.923879532511288,0.382683432365088,0.));
#993=DIRECTION('',(0.,0.,-1.));
#994=DIRECTION('center_axis',(0.707106781186549,-0.707106781186546,0.));
#995=DIRECTION('ref_axis',(0.707106781186546,0.707106781186549,0.));
#996=DIRECTION('',(-0.707106781186546,-0.707106781186549,0.));
#997=DIRECTION('',(0.,0.,-1.));
#998=DIRECTION('',(0.707106781186546,0.707106781186549,0.));
#999=DIRECTION('center_axis',(0.,0.,1.));
#1000=DIRECTION('ref_axis',(-0.923879532511299,-0.38268343236506,0.));
#1001=DIRECTION('center_axis',(0.,0.,-1.));
#1002=DIRECTION('ref_axis',(-0.923879532511299,-0.38268343236506,0.));
#1003=DIRECTION('',(0.,0.,1.));
#1004=DIRECTION('center_axis',(0.,0.,1.));
#1005=DIRECTION('ref_axis',(-0.923879532511299,-0.38268343236506,0.));
#1006=DIRECTION('',(0.,0.,-1.));
#1007=DIRECTION('center_axis',(1.,0.,0.));
#1008=DIRECTION('ref_axis',(0.,1.,0.));
#1009=DIRECTION('',(0.,1.,0.));
#1010=DIRECTION('',(0.,-1.,0.));
#1011=DIRECTION('center_axis',(0.,0.,1.));
#1012=DIRECTION('ref_axis',(-0.923879532511313,0.382683432365027,0.));
#1013=DIRECTION('center_axis',(0.,0.,-1.));
#1014=DIRECTION('ref_axis',(-0.923879532511313,0.382683432365027,0.));
#1015=DIRECTION('center_axis',(0.,0.,1.));
#1016=DIRECTION('ref_axis',(-0.923879532511313,0.382683432365027,0.));
#1017=DIRECTION('',(0.,0.,1.));
#1018=DIRECTION('center_axis',(-1.,-1.36295015677619E-13,0.));
#1019=DIRECTION('ref_axis',(1.36295015677619E-13,-1.,0.));
#1020=DIRECTION('',(1.36295015677619E-13,-1.,0.));
#1021=DIRECTION('',(0.,0.,-1.));
#1022=DIRECTION('',(1.36295015677619E-13,-1.,0.));
#1023=DIRECTION('center_axis',(0.,0.,1.));
#1024=DIRECTION('ref_axis',(1.,0.,0.));
#1025=DIRECTION('',(0.707106781186546,-0.707106781186549,0.));
#1026=DIRECTION('center_axis',(0.,0.,1.));
#1027=DIRECTION('ref_axis',(-0.923879532511293,-0.382683432365076,0.));
#1028=DIRECTION('',(-2.93906313428041E-14,-1.,0.));
#1029=DIRECTION('center_axis',(0.,0.,1.));
#1030=DIRECTION('ref_axis',(-0.923879532511281,0.382683432365105,0.));
#1031=DIRECTION('',(-0.707106781186546,-0.707106781186549,0.));
#1032=DIRECTION('center_axis',(0.,0.,1.));
#1033=DIRECTION('ref_axis',(-0.38268343236509,0.923879532511287,0.));
#1034=DIRECTION('',(-1.,0.,0.));
#1035=DIRECTION('center_axis',(0.,0.,1.));
#1036=DIRECTION('ref_axis',(0.382683432365088,0.923879532511287,0.));
#1037=DIRECTION('',(0.707106781186547,-0.707106781186548,0.));
#1038=DIRECTION('center_axis',(0.,0.,1.));
#1039=DIRECTION('ref_axis',(0.923879532511281,0.382683432365105,0.));
#1040=DIRECTION('',(-3.06825272260043E-14,1.,0.));
#1041=DIRECTION('center_axis',(0.,0.,1.));
#1042=DIRECTION('ref_axis',(0.923879532511293,-0.382683432365074,0.));
#1043=DIRECTION('',(0.707106781186501,-0.707106781186594,0.));
#1044=DIRECTION('center_axis',(0.,0.,1.));
#1045=DIRECTION('ref_axis',(0.923879532511275,0.382683432365119,0.));
#1046=DIRECTION('',(-1.27897692436818E-13,1.,0.));
#1047=DIRECTION('center_axis',(0.,0.,1.));
#1048=DIRECTION('ref_axis',(0.923879532511313,-0.382683432365027,0.));
#1049=DIRECTION('',(-0.707106781186546,-0.707106781186549,0.));
#1050=DIRECTION('center_axis',(0.,0.,1.));
#1051=DIRECTION('ref_axis',(0.38268343236509,-0.923879532511287,0.));
#1052=DIRECTION('',(1.,0.,0.));
#1053=DIRECTION('center_axis',(0.,0.,1.));
#1054=DIRECTION('ref_axis',(-0.382683432365088,-0.923879532511287,0.));
#1055=DIRECTION('',(-0.707106781186549,0.707106781186546,0.));
#1056=DIRECTION('center_axis',(0.,0.,1.));
#1057=DIRECTION('ref_axis',(-0.92387953251126,-0.382683432365154,0.));
#1058=DIRECTION('center_axis',(0.,0.,1.));
#1059=DIRECTION('ref_axis',(-0.923879532511293,-0.382683432365076,0.));
#1060=DIRECTION('center_axis',(0.,0.,-1.));
#1061=DIRECTION('ref_axis',(-0.923879532511293,-0.382683432365076,0.));
#1062=DIRECTION('',(0.,0.,-1.));
#1063=DIRECTION('',(0.,0.,1.));
#1064=DIRECTION('center_axis',(-1.,2.93906313428041E-14,0.));
#1065=DIRECTION('ref_axis',(-2.93906313428041E-14,-1.,0.));
#1066=DIRECTION('',(-2.93906313428041E-14,-1.,0.));
#1067=DIRECTION('',(0.,0.,1.));
#1068=DIRECTION('center_axis',(0.,0.,1.));
#1069=DIRECTION('ref_axis',(-0.923879532511281,0.382683432365105,0.));
#1070=DIRECTION('center_axis',(0.,0.,-1.));
#1071=DIRECTION('ref_axis',(-0.923879532511281,0.382683432365105,0.));
#1072=DIRECTION('',(0.,0.,-1.));
#1073=DIRECTION('center_axis',(0.,0.,1.));
#1074=DIRECTION('ref_axis',(-0.38268343236509,0.923879532511287,0.));
#1075=DIRECTION('center_axis',(0.,0.,-1.));
#1076=DIRECTION('ref_axis',(-0.38268343236509,0.923879532511287,0.));
#1077=DIRECTION('',(0.,0.,-1.));
#1078=DIRECTION('',(0.,0.,1.));
#1079=DIRECTION('center_axis',(0.,1.,0.));
#1080=DIRECTION('ref_axis',(-1.,0.,0.));
#1081=DIRECTION('',(-1.,0.,0.));
#1082=DIRECTION('',(0.,0.,1.));
#1083=DIRECTION('center_axis',(0.,0.,1.));
#1084=DIRECTION('ref_axis',(0.382683432365088,0.923879532511287,0.));
#1085=DIRECTION('center_axis',(0.,0.,-1.));
#1086=DIRECTION('ref_axis',(0.382683432365088,0.923879532511287,0.));
#1087=DIRECTION('',(0.,0.,-1.));
#1088=DIRECTION('center_axis',(0.,0.,1.));
#1089=DIRECTION('ref_axis',(0.923879532511281,0.382683432365105,0.));
#1090=DIRECTION('center_axis',(0.,0.,-1.));
#1091=DIRECTION('ref_axis',(0.923879532511281,0.382683432365105,0.));
#1092=DIRECTION('',(0.,0.,-1.));
#1093=DIRECTION('',(0.,0.,1.));
#1094=DIRECTION('center_axis',(1.,3.06825272260043E-14,0.));
#1095=DIRECTION('ref_axis',(-3.06825272260043E-14,1.,0.));
#1096=DIRECTION('',(-3.06825272260043E-14,1.,0.));
#1097=DIRECTION('',(0.,0.,1.));
#1098=DIRECTION('center_axis',(0.,0.,1.));
#1099=DIRECTION('ref_axis',(0.923879532511293,-0.382683432365074,0.));
#1100=DIRECTION('center_axis',(0.,0.,-1.));
#1101=DIRECTION('ref_axis',(0.923879532511293,-0.382683432365074,0.));
#1102=DIRECTION('center_axis',(0.,0.,1.));
#1103=DIRECTION('ref_axis',(0.923879532511275,0.382683432365119,0.));
#1104=DIRECTION('center_axis',(0.,0.,-1.));
#1105=DIRECTION('ref_axis',(0.923879532511275,0.382683432365119,0.));
#1106=DIRECTION('',(0.,0.,-1.));
#1107=DIRECTION('',(0.,0.,1.));
#1108=DIRECTION('center_axis',(1.,1.27897692436818E-13,0.));
#1109=DIRECTION('ref_axis',(-1.27897692436818E-13,1.,0.));
#1110=DIRECTION('',(-1.27897692436818E-13,1.,0.));
#1111=DIRECTION('',(0.,0.,1.));
#1112=DIRECTION('center_axis',(0.,0.,1.));
#1113=DIRECTION('ref_axis',(0.923879532511313,-0.382683432365027,0.));
#1114=DIRECTION('center_axis',(0.,0.,-1.));
#1115=DIRECTION('ref_axis',(0.923879532511313,-0.382683432365027,0.));
#1116=DIRECTION('',(0.,0.,-1.));
#1117=DIRECTION('center_axis',(0.,0.,1.));
#1118=DIRECTION('ref_axis',(0.38268343236509,-0.923879532511287,0.));
#1119=DIRECTION('center_axis',(0.,0.,-1.));
#1120=DIRECTION('ref_axis',(0.38268343236509,-0.923879532511287,0.));
#1121=DIRECTION('',(0.,0.,-1.));
#1122=DIRECTION('',(0.,0.,1.));
#1123=DIRECTION('center_axis',(0.,-1.,0.));
#1124=DIRECTION('ref_axis',(1.,0.,0.));
#1125=DIRECTION('',(1.,0.,0.));
#1126=DIRECTION('',(0.,0.,1.));
#1127=DIRECTION('center_axis',(0.,0.,1.));
#1128=DIRECTION('ref_axis',(-0.382683432365088,-0.923879532511287,0.));
#1129=DIRECTION('center_axis',(0.,0.,-1.));
#1130=DIRECTION('ref_axis',(-0.382683432365088,-0.923879532511287,0.));
#1131=DIRECTION('',(0.,0.,-1.));
#1132=DIRECTION('center_axis',(0.,0.,1.));
#1133=DIRECTION('ref_axis',(-0.92387953251126,-0.382683432365154,0.));
#1134=DIRECTION('center_axis',(0.,0.,-1.));
#1135=DIRECTION('ref_axis',(-0.92387953251126,-0.382683432365154,0.));
#1136=DIRECTION('',(0.,0.,1.));
#1137=DIRECTION('center_axis',(0.707106781186548,0.707106781186547,0.));
#1138=DIRECTION('ref_axis',(-0.707106781186547,0.707106781186548,0.));
#1139=DIRECTION('',(-0.707106781186547,0.707106781186548,0.));
#1140=DIRECTION('center_axis',(0.707106781186594,0.707106781186501,0.));
#1141=DIRECTION('ref_axis',(-0.707106781186501,0.707106781186594,0.));
#1142=DIRECTION('',(-0.707106781186501,0.707106781186594,0.));
#1143=DIRECTION('center_axis',(0.707106781186549,-0.707106781186546,0.));
#1144=DIRECTION('ref_axis',(0.707106781186546,0.707106781186549,0.));
#1145=DIRECTION('',(0.707106781186546,0.707106781186549,0.));
#1146=DIRECTION('center_axis',(-0.707106781186546,-0.707106781186549,0.));
#1147=DIRECTION('ref_axis',(0.707106781186549,-0.707106781186546,0.));
#1148=DIRECTION('',(0.707106781186549,-0.707106781186546,0.));
#1149=DIRECTION('center_axis',(-0.707106781186549,-0.707106781186546,0.));
#1150=DIRECTION('ref_axis',(0.707106781186546,-0.707106781186549,0.));
#1151=DIRECTION('',(0.707106781186546,-0.707106781186549,0.));
#1152=DIRECTION('center_axis',(-0.707106781186549,0.707106781186546,0.));
#1153=DIRECTION('ref_axis',(-0.707106781186546,-0.707106781186549,0.));
#1154=DIRECTION('',(-0.707106781186546,-0.707106781186549,0.));
#1155=DIRECTION('center_axis',(0.,0.,1.));
#1156=DIRECTION('ref_axis',(1.,0.,0.));
#1157=CARTESIAN_POINT('',(0.,0.,0.));
#1158=CARTESIAN_POINT('Origin',(-39.0000000000003,-43.0000000000001,17.925));
#1159=CARTESIAN_POINT('',(-43.3000000000003,-43.0000000000001,19.));
#1160=CARTESIAN_POINT('Origin',(-39.0000000000003,-43.0000000000001,19.));
#1161=CARTESIAN_POINT('',(-41.1500000000003,-43.0000000000001,16.85));
#1162=CARTESIAN_POINT('',(-42.2250000000003,-43.0000000000001,17.925));
#1163=CARTESIAN_POINT('Origin',(-39.0000000000003,-43.0000000000001,16.85));
#1164=CARTESIAN_POINT('Origin',(-39.0000000000003,-43.0000000000001,17.35));
#1165=CARTESIAN_POINT('',(-41.1500000000003,-43.0000000000001,16.));
#1166=CARTESIAN_POINT('',(-41.1500000000003,-43.0000000000001,17.35));
#1167=CARTESIAN_POINT('Origin',(-39.0000000000003,-43.0000000000001,16.));
#1168=CARTESIAN_POINT('Origin',(-39.0000000000003,43.,17.925));
#1169=CARTESIAN_POINT('',(-43.3000000000003,43.,19.));
#1170=CARTESIAN_POINT('Origin',(-39.0000000000003,43.,19.));
#1171=CARTESIAN_POINT('',(-41.1500000000003,43.,16.85));
#1172=CARTESIAN_POINT('',(-42.2250000000003,43.,17.925));
#1173=CARTESIAN_POINT('Origin',(-39.0000000000003,43.,16.85));
#1174=CARTESIAN_POINT('Origin',(-39.0000000000003,43.,17.35));
#1175=CARTESIAN_POINT('',(-41.1500000000003,43.,16.));
#1176=CARTESIAN_POINT('',(-41.1500000000003,43.,17.35));
#1177=CARTESIAN_POINT('Origin',(-39.0000000000003,43.,16.));
#1178=CARTESIAN_POINT('Origin',(39.0000000000003,43.,17.925));
#1179=CARTESIAN_POINT('',(34.7000000000003,43.,19.));
#1180=CARTESIAN_POINT('Origin',(39.0000000000003,43.,19.));
#1181=CARTESIAN_POINT('',(36.8500000000003,43.,16.85));
#1182=CARTESIAN_POINT('',(35.7750000000003,43.,17.925));
#1183=CARTESIAN_POINT('Origin',(39.0000000000003,43.,16.85));
#1184=CARTESIAN_POINT('Origin',(39.0000000000003,43.,17.35));
#1185=CARTESIAN_POINT('',(36.8500000000003,43.,16.));
#1186=CARTESIAN_POINT('',(36.8500000000003,43.,17.35));
#1187=CARTESIAN_POINT('Origin',(39.0000000000003,43.,16.));
#1188=CARTESIAN_POINT('Origin',(39.0000000000003,-43.0000000000001,17.925));
#1189=CARTESIAN_POINT('',(34.7000000000003,-43.0000000000001,19.));
#1190=CARTESIAN_POINT('Origin',(39.0000000000003,-43.0000000000001,19.));
#1191=CARTESIAN_POINT('',(36.8500000000003,-43.0000000000001,16.85));
#1192=CARTESIAN_POINT('',(35.7750000000003,-43.0000000000001,17.925));
#1193=CARTESIAN_POINT('Origin',(39.0000000000003,-43.0000000000001,16.85));
#1194=CARTESIAN_POINT('Origin',(39.0000000000003,-43.0000000000001,17.35));
#1195=CARTESIAN_POINT('',(36.8500000000003,-43.0000000000001,16.));
#1196=CARTESIAN_POINT('',(36.8500000000003,-43.0000000000001,17.35));
#1197=CARTESIAN_POINT('Origin',(39.0000000000003,-43.0000000000001,16.));
#1198=CARTESIAN_POINT('Origin',(-64.7000000000004,-22.6745166004061,16.));
#1199=CARTESIAN_POINT('',(-61.5000000000004,-22.6745166004061,16.));
#1200=CARTESIAN_POINT('',(-62.4372583002034,-24.937258300203,16.));
#1201=CARTESIAN_POINT('Origin',(-64.7000000000004,-22.6745166004061,16.));
#1202=CARTESIAN_POINT('',(-62.4372583002034,-24.937258300203,19.));
#1203=CARTESIAN_POINT('',(-62.4372583002034,-24.937258300203,16.));
#1204=CARTESIAN_POINT('',(-61.5000000000004,-22.6745166004061,19.));
#1205=CARTESIAN_POINT('Origin',(-64.7000000000004,-22.6745166004061,19.));
#1206=CARTESIAN_POINT('',(-61.5000000000004,-22.6745166004061,16.));
#1207=CARTESIAN_POINT('Origin',(-61.5000000000004,-24.,16.));
#1208=CARTESIAN_POINT('',(-66.9142135623734,-29.414213562373,16.));
#1209=CARTESIAN_POINT('',(-61.5000000000004,-24.,16.));
#1210=CARTESIAN_POINT('',(-66.9142135623734,-29.414213562373,19.));
#1211=CARTESIAN_POINT('',(-66.9142135623734,-29.414213562373,16.));
#1212=CARTESIAN_POINT('',(-61.5000000000004,-24.,19.));
#1213=CARTESIAN_POINT('Origin',(-64.7000000000004,22.6745166004061,16.));
#1214=CARTESIAN_POINT('',(-62.4372583002034,24.937258300203,16.));
#1215=CARTESIAN_POINT('',(-61.5000000000004,22.6745166004061,16.));
#1216=CARTESIAN_POINT('Origin',(-64.7000000000004,22.6745166004061,16.));
#1217=CARTESIAN_POINT('',(-61.5000000000004,22.6745166004061,19.));
#1218=CARTESIAN_POINT('',(-61.5000000000004,22.6745166004061,16.));
#1219=CARTESIAN_POINT('',(-62.4372583002034,24.937258300203,19.));
#1220=CARTESIAN_POINT('Origin',(-64.7000000000004,22.6745166004061,19.));
#1221=CARTESIAN_POINT('',(-62.4372583002034,24.937258300203,16.));
#1222=CARTESIAN_POINT('Origin',(-61.5000000000004,24.,16.));
#1223=CARTESIAN_POINT('',(-61.5000000000004,24.,19.));
#1224=CARTESIAN_POINT('',(-61.5000000000004,24.,16.));
#1225=CARTESIAN_POINT('Origin',(64.7000000000004,22.6745166004061,16.));
#1226=CARTESIAN_POINT('',(61.5000000000004,22.6745166004061,16.));
#1227=CARTESIAN_POINT('',(62.4372583002034,24.937258300203,16.));
#1228=CARTESIAN_POINT('Origin',(64.7000000000004,22.6745166004061,16.));
#1229=CARTESIAN_POINT('',(62.4372583002034,24.937258300203,19.));
#1230=CARTESIAN_POINT('',(62.4372583002034,24.937258300203,16.));
#1231=CARTESIAN_POINT('',(61.5000000000004,22.6745166004061,19.));
#1232=CARTESIAN_POINT('Origin',(64.7000000000004,22.6745166004061,19.));
#1233=CARTESIAN_POINT('',(61.5000000000004,22.6745166004061,16.));
#1234=CARTESIAN_POINT('Origin',(61.5000000000004,24.,16.));
#1235=CARTESIAN_POINT('',(66.9142135623734,29.4142135623731,16.));
#1236=CARTESIAN_POINT('',(67.5000000000004,30.,16.));
#1237=CARTESIAN_POINT('',(66.9142135623734,29.4142135623731,19.));
#1238=CARTESIAN_POINT('',(66.9142135623734,29.4142135623731,16.));
#1239=CARTESIAN_POINT('',(67.5000000000004,30.,19.));
#1240=CARTESIAN_POINT('Origin',(64.7000000000004,-22.6745166004062,16.));
#1241=CARTESIAN_POINT('',(62.4372583002033,-24.937258300203,16.));
#1242=CARTESIAN_POINT('',(61.5000000000004,-22.6745166004062,16.));
#1243=CARTESIAN_POINT('Origin',(64.7000000000004,-22.6745166004062,16.));
#1244=CARTESIAN_POINT('',(61.5000000000004,-22.6745166004062,19.));
#1245=CARTESIAN_POINT('',(61.5000000000004,-22.6745166004062,16.));
#1246=CARTESIAN_POINT('',(62.4372583002033,-24.937258300203,19.));
#1247=CARTESIAN_POINT('Origin',(64.7000000000004,-22.6745166004062,19.));
#1248=CARTESIAN_POINT('',(62.4372583002033,-24.937258300203,16.));
#1249=CARTESIAN_POINT('Origin',(61.5000000000004,-24.,16.));
#1250=CARTESIAN_POINT('',(61.5000000000004,24.,19.));
#1251=CARTESIAN_POINT('',(61.5000000000004,24.,16.));
#1252=CARTESIAN_POINT('Origin',(-65.5000000000003,-30.8284271247461,16.));
#1253=CARTESIAN_POINT('',(-67.5000000000003,-30.8284271247464,19.));
#1254=CARTESIAN_POINT('Origin',(-65.5000000000003,-30.8284271247461,19.));
#1255=CARTESIAN_POINT('',(-67.5000000000003,-30.8284271247464,16.));
#1256=CARTESIAN_POINT('Origin',(-65.5000000000003,-30.8284271247461,16.));
#1257=CARTESIAN_POINT('',(-67.5000000000003,-30.8284271247464,16.));
#1258=CARTESIAN_POINT('Origin',(-67.5000000000004,-30.,16.));
#1259=CARTESIAN_POINT('',(-67.4999999999967,-56.671572875254,16.));
#1260=CARTESIAN_POINT('',(-67.5000000000004,-30.,16.));
#1261=CARTESIAN_POINT('',(-67.4999999999967,-56.671572875254,19.));
#1262=CARTESIAN_POINT('',(-67.4999999999967,-56.671572875254,16.));
#1263=CARTESIAN_POINT('',(-67.5000000000004,-30.,19.));
#1264=CARTESIAN_POINT('Origin',(1.3855583347322E-12,3.5527136788005E-14,
16.));
#1265=CARTESIAN_POINT('',(-66.9142135623734,29.4142135623731,16.));
#1266=CARTESIAN_POINT('',(-67.5000000000004,30.,16.));
#1267=CARTESIAN_POINT('',(-67.5000000000003,30.8284271247462,16.));
#1268=CARTESIAN_POINT('Origin',(-65.5000000000004,30.8284271247462,16.));
#1269=CARTESIAN_POINT('',(-67.4999999999996,56.6715728752539,16.));
#1270=CARTESIAN_POINT('',(-67.4999999999996,57.5000000000001,16.));
#1271=CARTESIAN_POINT('',(-66.9142135623727,58.0857864376269,16.));
#1272=CARTESIAN_POINT('Origin',(-65.4999999999996,56.6715728752538,16.));
#1273=CARTESIAN_POINT('',(-63.0857864376265,61.9142135623732,16.));
#1274=CARTESIAN_POINT('',(-62.4999999999996,62.5000000000001,16.));
#1275=CARTESIAN_POINT('',(-61.6715728752534,62.5000000000001,16.));
#1276=CARTESIAN_POINT('Origin',(-61.6715728752534,60.5000000000001,16.));
#1277=CARTESIAN_POINT('',(61.6715728752533,62.5000000000001,16.));
#1278=CARTESIAN_POINT('',(62.4999999999995,62.5000000000001,16.));
#1279=CARTESIAN_POINT('',(63.0857864376264,61.9142135623732,16.));
#1280=CARTESIAN_POINT('Origin',(61.6715728752533,60.5000000000001,16.));
#1281=CARTESIAN_POINT('',(66.9142135623727,58.0857864376269,16.));
#1282=CARTESIAN_POINT('',(62.4999999999995,62.5000000000001,16.));
#1283=CARTESIAN_POINT('',(67.4999999999996,56.6715728752539,16.));
#1284=CARTESIAN_POINT('Origin',(65.4999999999996,56.6715728752538,16.));
#1285=CARTESIAN_POINT('',(67.5000000000003,30.8284271247462,16.));
#1286=CARTESIAN_POINT('',(67.5000000000004,30.,16.));
#1287=CARTESIAN_POINT('Origin',(65.5000000000003,30.8284271247462,16.));
#1288=CARTESIAN_POINT('',(66.9142135623729,-29.4142135623732,16.));
#1289=CARTESIAN_POINT('',(61.5000000000004,-24.,16.));
#1290=CARTESIAN_POINT('',(67.4999999999997,-30.828427124746,16.));
#1291=CARTESIAN_POINT('Origin',(65.4999999999997,-30.8284271247462,16.));
#1292=CARTESIAN_POINT('',(67.500000000003,-56.6715728752536,16.));
#1293=CARTESIAN_POINT('',(67.5000000000031,-57.5,16.));
#1294=CARTESIAN_POINT('',(66.9142135623761,-58.085786437627,16.));
#1295=CARTESIAN_POINT('Origin',(65.500000000003,-56.6715728752539,16.));
#1296=CARTESIAN_POINT('',(63.08578643763,-61.9142135623731,16.));
#1297=CARTESIAN_POINT('',(67.5000000000031,-57.5,16.));
#1298=CARTESIAN_POINT('',(61.6715728752569,-62.5,16.));
#1299=CARTESIAN_POINT('Origin',(61.6715728752569,-60.5,16.));
#1300=CARTESIAN_POINT('',(-61.6715728752504,-62.5,16.));
#1301=CARTESIAN_POINT('',(-62.4999999999966,-62.5,16.));
#1302=CARTESIAN_POINT('',(-63.0857864376235,-61.9142135623731,16.));
#1303=CARTESIAN_POINT('Origin',(-61.6715728752504,-60.5,16.));
#1304=CARTESIAN_POINT('',(-66.9142135623698,-58.0857864376268,16.));
#1305=CARTESIAN_POINT('',(-62.4999999999966,-62.5,16.));
#1306=CARTESIAN_POINT('Origin',(-65.4999999999967,-56.6715728752537,16.));
#1307=CARTESIAN_POINT('Origin',(-65.5000000000004,30.8284271247462,16.));
#1308=CARTESIAN_POINT('',(-66.9142135623734,29.4142135623731,19.));
#1309=CARTESIAN_POINT('',(-67.5000000000003,30.8284271247462,19.));
#1310=CARTESIAN_POINT('Origin',(-65.5000000000004,30.8284271247462,19.));
#1311=CARTESIAN_POINT('',(-67.5000000000003,30.8284271247462,16.));
#1312=CARTESIAN_POINT('',(-66.9142135623734,29.4142135623731,16.));
#1313=CARTESIAN_POINT('Origin',(-67.4999999999996,57.5000000000001,16.));
#1314=CARTESIAN_POINT('',(-67.4999999999996,56.6715728752539,19.));
#1315=CARTESIAN_POINT('',(-67.4999999999996,57.5000000000001,19.));
#1316=CARTESIAN_POINT('',(-67.4999999999996,56.6715728752539,16.));
#1317=CARTESIAN_POINT('Origin',(-65.4999999999996,56.6715728752538,16.));
#1318=CARTESIAN_POINT('',(-66.9142135623727,58.0857864376269,19.));
#1319=CARTESIAN_POINT('Origin',(-65.4999999999996,56.6715728752538,19.));
#1320=CARTESIAN_POINT('',(-66.9142135623727,58.0857864376269,16.));
#1321=CARTESIAN_POINT('Origin',(-61.6715728752534,60.5000000000001,16.));
#1322=CARTESIAN_POINT('',(-63.0857864376265,61.9142135623732,19.));
#1323=CARTESIAN_POINT('',(-61.6715728752534,62.5000000000001,19.));
#1324=CARTESIAN_POINT('Origin',(-61.6715728752534,60.5000000000001,19.));
#1325=CARTESIAN_POINT('',(-61.6715728752534,62.5000000000001,16.));
#1326=CARTESIAN_POINT('',(-63.0857864376265,61.9142135623732,16.));
#1327=CARTESIAN_POINT('Origin',(62.4999999999995,62.5000000000001,16.));
#1328=CARTESIAN_POINT('',(61.6715728752533,62.5000000000001,19.));
#1329=CARTESIAN_POINT('',(62.4999999999995,62.5000000000001,19.));
#1330=CARTESIAN_POINT('',(61.6715728752533,62.5000000000001,16.));
#1331=CARTESIAN_POINT('Origin',(61.6715728752533,60.5000000000001,16.));
#1332=CARTESIAN_POINT('',(63.0857864376264,61.9142135623732,19.));
#1333=CARTESIAN_POINT('Origin',(61.6715728752533,60.5000000000001,19.));
#1334=CARTESIAN_POINT('',(63.0857864376264,61.9142135623732,16.));
#1335=CARTESIAN_POINT('Origin',(65.4999999999996,56.6715728752538,16.));
#1336=CARTESIAN_POINT('',(66.9142135623727,58.0857864376269,19.));
#1337=CARTESIAN_POINT('',(67.4999999999996,56.6715728752539,19.));
#1338=CARTESIAN_POINT('Origin',(65.4999999999996,56.6715728752538,19.));
#1339=CARTESIAN_POINT('',(67.4999999999996,56.6715728752539,16.));
#1340=CARTESIAN_POINT('',(66.9142135623727,58.0857864376269,16.));
#1341=CARTESIAN_POINT('Origin',(67.5000000000004,30.,16.));
#1342=CARTESIAN_POINT('',(67.5000000000003,30.8284271247462,19.));
#1343=CARTESIAN_POINT('',(67.5000000000004,30.,19.));
#1344=CARTESIAN_POINT('',(67.5000000000003,30.8284271247462,16.));
#1345=CARTESIAN_POINT('Origin',(65.5000000000003,30.8284271247462,16.));
#1346=CARTESIAN_POINT('Origin',(65.5000000000003,30.8284271247462,19.));
#1347=CARTESIAN_POINT('Origin',(65.4999999999997,-30.8284271247462,16.));
#1348=CARTESIAN_POINT('',(66.9142135623729,-29.4142135623732,19.));
#1349=CARTESIAN_POINT('',(67.4999999999997,-30.828427124746,19.));
#1350=CARTESIAN_POINT('Origin',(65.4999999999997,-30.8284271247462,19.));
#1351=CARTESIAN_POINT('',(67.4999999999997,-30.828427124746,16.));
#1352=CARTESIAN_POINT('',(66.9142135623729,-29.4142135623732,16.));
#1353=CARTESIAN_POINT('Origin',(67.5000000000031,-57.5,16.));
#1354=CARTESIAN_POINT('',(67.500000000003,-56.6715728752536,19.));
#1355=CARTESIAN_POINT('',(67.5000000000031,-57.5,19.));
#1356=CARTESIAN_POINT('',(67.500000000003,-56.6715728752536,16.));
#1357=CARTESIAN_POINT('Origin',(65.500000000003,-56.6715728752539,16.));
#1358=CARTESIAN_POINT('',(66.9142135623761,-58.085786437627,19.));
#1359=CARTESIAN_POINT('Origin',(65.500000000003,-56.6715728752539,19.));
#1360=CARTESIAN_POINT('',(66.9142135623761,-58.085786437627,16.));
#1361=CARTESIAN_POINT('Origin',(61.6715728752569,-60.5,16.));
#1362=CARTESIAN_POINT('',(63.08578643763,-61.9142135623731,19.));
#1363=CARTESIAN_POINT('',(61.6715728752569,-62.5,19.));
#1364=CARTESIAN_POINT('Origin',(61.6715728752569,-60.5,19.));
#1365=CARTESIAN_POINT('',(61.6715728752569,-62.5,16.));
#1366=CARTESIAN_POINT('',(63.08578643763,-61.9142135623731,16.));
#1367=CARTESIAN_POINT('Origin',(-62.4999999999966,-62.5,16.));
#1368=CARTESIAN_POINT('',(-61.6715728752504,-62.5,19.));
#1369=CARTESIAN_POINT('',(-62.4999999999966,-62.5,19.));
#1370=CARTESIAN_POINT('',(-61.6715728752504,-62.5,16.));
#1371=CARTESIAN_POINT('Origin',(-61.6715728752504,-60.5,16.));
#1372=CARTESIAN_POINT('',(-63.0857864376235,-61.9142135623731,19.));
#1373=CARTESIAN_POINT('Origin',(-61.6715728752504,-60.5,19.));
#1374=CARTESIAN_POINT('',(-63.0857864376235,-61.9142135623731,16.));
#1375=CARTESIAN_POINT('Origin',(-65.4999999999967,-56.6715728752537,16.));
#1376=CARTESIAN_POINT('',(-66.9142135623698,-58.0857864376268,19.));
#1377=CARTESIAN_POINT('Origin',(-65.4999999999967,-56.6715728752537,19.));
#1378=CARTESIAN_POINT('',(-66.9142135623698,-58.0857864376268,16.));
#1379=CARTESIAN_POINT('Origin',(67.4999999999995,57.5000000000001,16.));
#1380=CARTESIAN_POINT('',(62.4999999999995,62.5000000000001,19.));
#1381=CARTESIAN_POINT('Origin',(67.4999999999996,-30.,16.));
#1382=CARTESIAN_POINT('',(61.5000000000004,-24.,19.));
#1383=CARTESIAN_POINT('Origin',(62.5000000000031,-62.5,16.));
#1384=CARTESIAN_POINT('',(67.5000000000031,-57.5,19.));
#1385=CARTESIAN_POINT('Origin',(-67.4999999999966,-57.5,16.));
#1386=CARTESIAN_POINT('',(-62.4999999999966,-62.5,19.));
#1387=CARTESIAN_POINT('Origin',(-67.5000000000004,30.,16.));
#1388=CARTESIAN_POINT('',(-67.5000000000004,30.,19.));
#1389=CARTESIAN_POINT('Origin',(-62.4999999999996,62.5000000000001,16.));
#1390=CARTESIAN_POINT('',(-62.4999999999996,62.5000000000001,19.));
#1391=CARTESIAN_POINT('Origin',(1.3855583347322E-12,3.5527136788005E-14,
19.));
#1392=UNCERTAINTY_MEASURE_WITH_UNIT(LENGTH_MEASURE(0.01),#1396,
'DISTANCE_ACCURACY_VALUE',
'Maximum model space distance between geometric entities at asserted c
onnectivities');
#1393=UNCERTAINTY_MEASURE_WITH_UNIT(LENGTH_MEASURE(0.01),#1396,
'DISTANCE_ACCURACY_VALUE',
'Maximum model space distance between geometric entities at asserted c
onnectivities');
#1394=(
GEOMETRIC_REPRESENTATION_CONTEXT(3)
GLOBAL_UNCERTAINTY_ASSIGNED_CONTEXT((#1392))
GLOBAL_UNIT_ASSIGNED_CONTEXT((#1396,#1398,#1399))
REPRESENTATION_CONTEXT('','3D')
);
#1395=(
GEOMETRIC_REPRESENTATION_CONTEXT(3)
GLOBAL_UNCERTAINTY_ASSIGNED_CONTEXT((#1393))
GLOBAL_UNIT_ASSIGNED_CONTEXT((#1396,#1398,#1399))
REPRESENTATION_CONTEXT('','3D')
);
#1396=(
LENGTH_UNIT()
NAMED_UNIT(*)
SI_UNIT(.MILLI.,.METRE.)
);
#1397=(
LENGTH_UNIT()
NAMED_UNIT(*)
SI_UNIT($,.METRE.)
);
#1398=(
NAMED_UNIT(*)
PLANE_ANGLE_UNIT()
SI_UNIT($,.RADIAN.)
);
#1399=(
NAMED_UNIT(*)
SI_UNIT($,.STERADIAN.)
SOLID_ANGLE_UNIT()
);
#1400=SHAPE_DEFINITION_REPRESENTATION(#1401,#1402);
#1401=PRODUCT_DEFINITION_SHAPE('',$,#1404);
#1402=SHAPE_REPRESENTATION('',(#824),#1394);
#1403=PRODUCT_DEFINITION_CONTEXT('part definition',#1408,'design');
#1404=PRODUCT_DEFINITION('2026-08-25-12-29-10-962','\X2\88C57532677F88689762\X0\',
#1405,#1403);
#1405=PRODUCT_DEFINITION_FORMATION('',$,#1410);
#1406=PRODUCT_RELATED_PRODUCT_CATEGORY('\X2\88C57532677F88689762\X0\',
'\X2\88C57532677F88689762\X0\',(#1410));
#1407=APPLICATION_PROTOCOL_DEFINITION('international standard',
'automotive_design',2009,#1408);
#1408=APPLICATION_CONTEXT(
'Core Data for Automotive Mechanical Design Process');
#1409=PRODUCT_CONTEXT('part definition',#1408,'mechanical');
#1410=PRODUCT('2026-08-25-12-29-10-962','\X2\88C57532677F88689762\X0\',
$,(#1409));
#1411=PRESENTATION_STYLE_ASSIGNMENT((#1413));
#1412=PRESENTATION_STYLE_ASSIGNMENT((#1414));
#1413=SURFACE_STYLE_USAGE(.BOTH.,#1415);
#1414=SURFACE_STYLE_USAGE(.BOTH.,#1416);
#1415=SURFACE_SIDE_STYLE('',(#1417));
#1416=SURFACE_SIDE_STYLE('',(#1418));
#1417=SURFACE_STYLE_FILL_AREA(#1419);
#1418=SURFACE_STYLE_FILL_AREA(#1420);
#1419=FILL_AREA_STYLE('\X2\7C89672B6D825C42\X0\ - \X2\7C977CD9\X0\(\X2\6DF170708272\X0\)',
(#1421));
#1420=FILL_AREA_STYLE('\X2\6D826599\X0\ - \X2\91D15C5E\X0\(\X2\9ED18272\X0\)',
(#1422));
#1421=FILL_AREA_STYLE_COLOUR('\X2\7C89672B6D825C42\X0\ - \X2\7C977CD9\X0\(
\X2\6DF170708272\X0\)',#1423);
#1422=FILL_AREA_STYLE_COLOUR('\X2\6D826599\X0\ - \X2\91D15C5E\X0\(\X2\9ED18272\X0\)',
#1424);
#1423=COLOUR_RGB('\X2\7C89672B6D825C42\X0\ - \X2\7C977CD9\X0\(\X2\6DF170708272\X0\)',
0.349019607843137,0.349019607843137,0.349019607843137);
#1424=COLOUR_RGB('\X2\6D826599\X0\ - \X2\91D15C5E\X0\(\X2\9ED18272\X0\)',
0.0980392156862745,0.0980392156862745,0.0980392156862745);
ENDSEC;
END-ISO-10303-21;
